<svg width="100" height="100" viewBox="0 0 100 100" fill="none" xmlns="http://www.w3.org/2000/svg">
<g clip-path="url(#clip0_602_1756)">
<path d="M87.9862 85.5357C85.3871 88.2147 83.0616 89.7896 81.2811 90.9783C63.9163 102.573 44.0663 99.2311 37.9288 98.0888C28.0272 96.2458 19.6691 94.9457 12.488 88.4577C-3.83003 73.7154 -3.0364 42.9615 9.43245 23.9106C10.9108 21.6516 23.3609 3.1968 43.2539 0.596324C43.7404 0.532659 44.1036 0.496486 44.4215 0.462845C47.4988 0.136926 66.5688 -1.58274 82.1185 11.445C84.3443 13.3097 87.9265 16.6734 91.2483 21.8035C103.394 40.5617 103.432 69.6138 87.9862 85.5357Z" fill="#EBEDFE"/>
<path d="M43.6696 96.818C43.6696 96.818 34.9176 86.6834 28.0302 65.1376C21.5968 45.012 31.5987 15.1233 9.6355 3.37831C8.89576 2.98258 8.03846 3.66083 8.25333 4.47146C9.52445 9.26548 12.3604 21.7126 11.4503 34.4669C10.2888 50.7473 15.6594 90.4504 43.6693 96.8184L43.6696 96.818Z" fill="#91B3FA"/>
<path opacity="0.47" d="M13.7071 11.4119L13.7892 11.4849L13.8543 11.5472C13.8977 11.5884 13.9386 11.6293 13.978 11.6694C14.0591 11.7504 14.1354 11.8322 14.2117 11.9139C14.3633 12.0782 14.5109 12.2442 14.653 12.4135C14.7981 12.581 14.9337 12.7546 15.0726 12.9261C15.2047 13.1019 15.3425 13.2741 15.4698 13.4531C15.9882 14.1632 16.4635 14.9011 16.9019 15.6593C17.7813 17.1746 18.4957 18.7796 19.0744 20.4273C19.6478 22.0775 20.0866 23.7722 20.3933 25.4886C20.7008 27.2054 20.8628 28.9446 20.9153 30.6831C20.9663 32.4219 20.9005 34.1611 20.7417 35.8894L20.6057 37.1837L20.4266 38.4718C20.368 38.9052 20.3029 39.3176 20.2414 39.7419C20.1774 40.1629 20.1155 40.5843 20.067 41.0079C19.6315 44.3886 19.4358 47.8027 19.4514 51.216L19.4651 52.4961L19.506 53.7759C19.5161 54.2028 19.5404 54.6289 19.5642 55.055C19.5903 55.4811 19.6044 55.908 19.6402 56.3334C19.7545 58.0375 19.9379 59.7361 20.1582 61.4301C20.3854 63.1234 20.6715 64.8083 21.0046 66.4846C21.3497 68.1583 21.7538 69.8197 22.2128 71.4667C22.6827 73.1104 23.2181 74.7353 23.8164 76.3374C24.4205 77.9373 25.1002 79.5087 25.8515 81.046C26.5999 82.5852 27.4456 84.0773 28.3792 85.5134C29.3125 86.9495 30.3369 88.3288 31.4641 89.6234C30.3051 88.3577 29.2441 87.0019 28.2718 85.5854C27.2991 84.1689 26.4118 82.6912 25.6207 81.1636C24.8278 79.6371 24.0985 78.0755 23.463 76.4752C22.8292 74.8746 22.258 73.2489 21.7523 71.6027C21.2575 69.9532 20.8176 68.2871 20.4367 66.6069C20.0685 64.9241 19.7447 63.2308 19.485 61.5271C19.2376 59.8219 19.0274 58.1102 18.8867 56.392C18.8444 55.9629 18.8234 55.5325 18.7909 55.1027C18.7605 54.673 18.7297 54.2429 18.7131 53.8121L18.653 52.5204L18.6201 51.2275C18.5536 47.7792 18.7001 44.3235 19.0911 40.8911C19.1341 40.4613 19.1906 40.0331 19.2492 39.6051L19.4188 38.326L19.5845 37.064L19.7075 35.7976C19.8493 34.1079 19.8999 32.4118 19.837 30.721C19.7089 27.3414 19.1334 23.9787 18.0309 20.7933C17.7483 20.0001 17.4467 19.2133 17.0958 18.4486C16.7507 17.6817 16.3799 16.9257 15.9636 16.1965C15.5505 15.4654 15.1023 14.7546 14.6154 14.0738C14.372 13.7338 14.1191 13.401 13.8558 13.0798C13.7252 12.9181 13.5899 12.7611 13.4535 12.6077C13.3848 12.5314 13.3164 12.4551 13.2466 12.3835C13.2119 12.3462 13.1775 12.3108 13.1435 12.2775L13.0936 12.2276L13.0563 12.1925L13.0223 12.1606C12.8187 11.9682 12.8093 11.647 13.0017 11.4433C13.1905 11.2437 13.5038 11.2314 13.7078 11.4126L13.7071 11.4119Z" fill="white"/>
<path d="M0.131183 64.7521C-0.152775 64.5011 0.0588373 64.0319 0.43576 64.0728C4.26251 64.4866 14.3967 66.7265 21.3593 78.7468C30.0951 93.8284 38.2872 93.1473 42.6739 97.0709C42.6739 97.0709 36.6649 99.3354 29.7131 96.5555C12.6438 89.73 5.17841 69.2184 0.131183 64.7521Z" fill="#BDD0FB"/>
<path opacity="0.47" d="M5.20279 67.6135C5.93783 67.9897 6.6139 68.4404 7.27189 68.9219L7.52004 69.1006L7.76167 69.2868L8.24531 69.6602C8.56038 69.9177 8.87436 70.1771 9.18617 70.439C10.4189 71.5043 11.5664 72.6632 12.6624 73.8667C13.7715 75.0608 14.772 76.3471 15.7657 77.6359L16.4808 78.6249L16.8386 79.1198L17.0173 79.3672L17.1876 79.6204L18.547 81.6414C20.3123 84.3214 22.3557 86.8177 24.6107 89.1046C25.7321 90.2542 26.9044 91.3549 28.1275 92.3964C28.4306 92.6597 28.742 92.9129 29.0488 93.1719C29.3595 93.4262 29.6739 93.6754 29.9882 93.9247C30.3065 94.1681 30.6234 94.4148 30.9471 94.6503C31.2666 94.8898 31.5968 95.1238 31.9184 95.3419L31.9274 95.3481C32.1003 95.4653 32.1452 95.7008 32.028 95.8737C31.9122 96.044 31.6815 96.09 31.5093 95.9789C30.8097 95.526 30.155 95.0496 29.5024 94.5552C29.1797 94.3056 28.8571 94.0553 28.5384 93.8006C28.2237 93.5412 27.9043 93.2873 27.5935 93.0232C26.347 91.9706 25.1573 90.8525 24.0157 89.6874C23.4369 89.1122 22.8914 88.5049 22.3427 87.9015C22.0714 87.5969 21.8124 87.2811 21.5469 86.9718L21.1508 86.5056C21.0184 86.3504 20.8965 86.1865 20.7688 86.0274L20.0117 85.0655C19.7624 84.7425 19.5298 84.4065 19.2886 84.0776L18.9294 83.5817C18.8704 83.4985 18.8082 83.4175 18.7514 83.3328L18.5825 83.0774L17.9075 82.0556C17.6796 81.7137 17.4651 81.377 17.2466 81.0384L16.5926 80.023L16.4291 79.7691L16.2569 79.5213L15.9129 79.0254L15.2245 78.0331L14.5036 77.0651C14.2616 76.7436 14.0272 76.4158 13.7707 76.1058L13.0158 75.1639C12.8921 75.0047 12.7612 74.8524 12.6306 74.6994L12.2395 74.2397C11.193 73.0177 10.0938 71.837 8.90872 70.7479C8.61174 70.4769 8.31223 70.2082 8.01127 69.9409L7.54898 69.5531L7.31783 69.3592L7.08054 69.1733C6.92138 69.0503 6.76547 68.9229 6.60378 68.8036L6.11652 68.4484C5.78699 68.2215 5.45347 67.9882 5.10947 67.7965L5.10476 67.794C5.05593 67.7669 5.03821 67.705 5.0657 67.6562C5.09247 67.6084 5.15215 67.5907 5.20062 67.6153L5.20279 67.6135Z" fill="white"/>
<path d="M37.2461 96.7232C37.2461 96.7232 52.8171 91.4579 59.2668 72.4156C65.5356 53.907 68.7973 27.2196 93.0676 23.6265C93.8352 23.513 94.3995 24.3164 93.986 24.9729C91.5415 28.8539 85.604 39.0598 82.8889 50.5697C79.4228 65.2621 63.7291 98.8292 37.2461 96.7228V96.7232Z" fill="#91B3FA"/>
<path opacity="0.47" d="M87.6177 30.464L87.5751 30.4847L87.5172 30.515C87.4781 30.5349 87.438 30.5566 87.3971 30.5802C87.3157 30.6243 87.2343 30.6728 87.1526 30.7212C86.9898 30.8189 86.8274 30.9202 86.6671 31.0269C86.3463 31.2378 86.0312 31.462 85.7223 31.695C85.1048 32.1616 84.513 32.6655 83.9465 33.1969C83.3779 33.7261 82.8418 34.2911 82.326 34.8728C81.8051 35.4509 81.3218 36.0622 80.8538 36.6847C79.0017 39.1922 77.566 42.0021 76.5206 44.9502C75.9986 46.4254 75.5754 47.9367 75.2346 49.4672L74.9937 50.6189L74.7915 51.7786L74.5886 52.9546C74.522 53.3485 74.4537 53.7421 74.3734 54.1335C73.7714 57.2715 72.9478 60.3625 71.9375 63.388L71.5515 64.5202L71.142 65.6441C71.0085 66.0196 70.8628 66.3911 70.717 66.7619C70.5698 67.1323 70.4327 67.5067 70.2768 67.8738C69.6785 69.3518 69.0208 70.8049 68.3321 72.2417C67.6325 73.6742 66.8797 75.0795 66.0905 76.4635C65.2907 77.8417 64.4428 79.1913 63.5511 80.5109C62.6504 81.8247 61.698 83.1023 60.6971 84.3405C59.6947 85.578 58.62 86.7554 57.499 87.884C56.3794 89.0144 55.1883 90.0739 53.9388 91.056C52.6894 92.0381 51.3792 92.9425 50.0068 93.7397C51.359 92.9077 52.6435 91.9727 53.8636 90.9627C55.0841 89.9528 56.2423 88.8686 57.3275 87.7165C58.4149 86.5666 59.4487 85.3671 60.4232 84.1213C61.3934 82.8722 62.314 81.5856 63.1825 80.2642C64.042 78.937 64.857 77.5819 65.6235 76.1994C66.3802 74.8118 67.0975 73.4032 67.7653 71.9711C68.4269 70.5365 69.0574 69.0874 69.6285 67.6148C69.7776 67.2491 69.9078 66.8762 70.0481 66.5072C70.187 66.1375 70.326 65.7682 70.4526 65.3942L70.8414 64.2757L71.2068 63.1493C72.1625 60.1404 72.9315 57.0726 73.4795 53.9678C73.5533 53.5808 73.6152 53.1916 73.6749 52.8023C73.7374 52.4109 73.7939 52.029 73.8615 51.6303L74.0586 50.4438L74.2956 49.2639C74.6323 47.6943 75.0541 46.1411 75.5786 44.62C76.1046 43.1 76.7275 41.6093 77.4723 40.1787C78.2167 38.748 79.0719 37.3731 80.033 36.0745C80.9984 34.7795 82.0721 33.5601 83.2661 32.4648C83.8623 31.9164 84.4855 31.3962 85.1388 30.9126C85.3005 30.7896 85.4698 30.6756 85.6347 30.5566C85.8048 30.4434 85.9722 30.3277 86.1466 30.2199C86.3188 30.1095 86.4946 30.0039 86.674 29.9005C86.7637 29.8491 86.8538 29.7981 86.9478 29.7489C86.9934 29.7239 87.0408 29.6993 87.0907 29.6747L87.1652 29.6375L87.2578 29.5959C87.494 29.4892 87.7718 29.5944 87.8786 29.8306C87.9831 30.0622 87.884 30.3342 87.6572 30.4452L87.6177 30.4644V30.464Z" fill="white"/>
<path d="M92.5343 61.6651C92.8945 61.3862 92.6779 60.8075 92.2228 60.8266C87.6013 61.0205 75.2732 62.9044 65.9742 76.7674C54.3073 94.1604 46.0722 97.0731 38.9678 97.0536C38.9678 97.0536 45.9937 100.244 54.5497 97.4602C75.5561 90.6256 86.1295 66.6216 92.5346 61.6651H92.5343Z" fill="#BDD0FB"/>
<path opacity="0.47" d="M86.3221 64.9201C85.8941 65.1227 85.476 65.3763 85.0629 65.6222L84.4505 66.01C84.2475 66.1406 84.05 66.2809 83.8496 66.4155L83.5505 66.6199L83.2578 66.8344L82.6729 67.2627C82.2909 67.5593 81.9107 67.8581 81.5331 68.1594C80.0261 69.3716 78.6147 70.7002 77.2632 72.0827L76.7579 72.6029C76.5893 72.7762 76.42 72.9484 76.2591 73.1292L75.2795 74.1992C74.9474 74.5508 74.6403 74.9252 74.3249 75.2916L73.384 76.3956L72.4804 77.5311L72.0286 78.0987L71.8029 78.3823L71.5866 78.6738L70.7221 79.8393C70.433 80.2278 70.1495 80.6152 69.8492 81.007L68.9594 82.179L68.7369 82.472C68.6624 82.5693 68.5814 82.6615 68.5039 82.7567L68.0341 83.3228C67.7183 83.6979 67.413 84.0824 67.0889 84.4499L66.1049 85.5434C65.9393 85.7243 65.7805 85.9113 65.6094 86.0868L65.0975 86.6149C64.7546 86.965 64.4189 87.3232 64.0698 87.6668C63.3641 88.3472 62.662 89.032 61.9226 89.6759C60.462 90.9828 58.947 92.2297 57.3688 93.393C56.9752 93.6853 56.5719 93.9642 56.1744 94.2503C55.7721 94.5306 55.3655 94.8048 54.9589 95.0786C54.1371 95.6202 53.3149 96.1392 52.4399 96.6272C52.2206 96.7495 51.9436 96.671 51.8213 96.4518C51.7008 96.2355 51.7754 95.9634 51.9877 95.8386L51.9996 95.8314C52.4026 95.5952 52.8171 95.3405 53.219 95.0786C53.626 94.8222 54.025 94.5516 54.4261 94.2847C54.8229 94.0108 55.2198 93.7366 55.6122 93.4563C56.0007 93.1702 56.3943 92.8913 56.7785 92.599C58.327 91.4472 59.8202 90.2199 61.2556 88.9303C64.1404 86.3664 66.7875 83.5348 69.1163 80.4608L70.9062 78.145L71.1305 77.8549L71.3645 77.5724L71.8326 77.0073L72.7684 75.878C74.0619 74.4108 75.3631 72.9476 76.7876 71.6038C78.1969 70.2477 79.6644 68.9483 81.2271 67.7687C81.6217 67.4794 82.0185 67.1929 82.4172 66.9093L83.0267 66.5001L83.3313 66.2958L83.6427 66.1012C84.47 65.5763 85.3164 65.089 86.2273 64.6958C86.2891 64.6691 86.3608 64.6976 86.3875 64.7595C86.4136 64.8199 86.3868 64.8897 86.3278 64.9179L86.3221 64.9208V64.9201Z" fill="white"/>
<path d="M49.1263 94.3973C49.0894 96.9186 45.8537 99.6052 42.1149 99.6052C38.376 99.6052 35.5491 97.6348 35.3451 95.1215C34.8582 89.1269 38.376 89.1895 42.1149 89.1895C45.8537 89.1895 49.2171 88.1662 49.1263 94.3973Z" fill="url(#paint0_linear_602_1756)"/>
<path d="M42.6263 93.9484C47.8441 93.5276 51.9849 92.081 51.8749 90.7171C51.7649 89.3532 47.4459 88.5887 42.228 89.0094C37.0102 89.4302 32.8694 90.8769 32.9794 92.2407C33.0894 93.6046 37.4084 94.3691 42.6263 93.9484Z" fill="url(#paint1_linear_602_1756)"/>
<path d="M42.6263 91.5507C47.8441 91.1299 51.9849 89.6832 51.8749 88.3194C51.7649 86.9555 47.4459 86.191 42.228 86.6117C37.0102 87.0325 32.8694 88.4792 32.9794 89.843C33.0894 91.2069 37.4084 91.9714 42.6263 91.5507Z" fill="url(#paint2_linear_602_1756)"/>
<path d="M42.6263 89.1525C47.8441 88.7317 51.9849 87.2851 51.8749 85.9212C51.7649 84.5573 47.4459 83.7928 42.228 84.2135C37.0102 84.6343 32.8694 86.081 32.9794 87.4448C33.0894 88.8087 37.4084 89.5732 42.6263 89.1525Z" fill="url(#paint3_linear_602_1756)"/>
<path d="M42.6263 86.755C47.8441 86.3343 51.9849 84.8876 51.8749 83.5237C51.7649 82.1599 47.4459 81.3953 42.228 81.8161C37.0102 82.2368 32.8694 83.6835 32.9794 85.0474C33.0894 86.4112 37.4084 87.1758 42.6263 86.755Z" fill="url(#paint4_linear_602_1756)"/>
<path d="M39.8133 94.1909C38.2636 94.1909 36.8456 94.0769 35.674 93.8526C35.606 93.8396 35.5615 93.7741 35.5745 93.7061C35.5876 93.6381 35.653 93.5936 35.721 93.6067C37.5543 93.9575 40.0028 94.0349 42.6156 93.8244C44.7538 93.6519 46.7531 93.3071 48.3979 92.8271C48.4644 92.8076 48.5339 92.8459 48.5534 92.9121C48.5729 92.9787 48.5346 93.0481 48.4684 93.0677C46.8077 93.5524 44.7907 93.9004 42.6362 94.074C41.6657 94.1521 40.7172 94.1912 39.8136 94.1912L39.8133 94.1909Z" fill="#91B3FA"/>
<path d="M39.839 91.7908C37.8256 91.7908 36.0263 91.6012 34.757 91.2399C34.6905 91.2211 34.6518 91.1516 34.6709 91.085C34.6901 91.0185 34.7588 90.9801 34.8257 90.999C36.6344 91.5141 39.5463 91.6736 42.6156 91.4262C45.6516 91.1813 48.4832 90.5652 50.1899 89.7781C50.2528 89.7492 50.3273 89.7767 50.3563 89.8396C50.3852 89.9025 50.3577 89.9771 50.2948 90.006C48.5628 90.8047 45.6994 91.429 42.6359 91.6761C41.6798 91.7532 40.7379 91.7911 39.839 91.7911V91.7908Z" fill="#91B3FA"/>
<path d="M39.8131 89.3946C37.6391 89.3946 35.7368 89.1722 34.4563 88.75C34.3904 88.7283 34.355 88.6574 34.3763 88.592C34.398 88.5261 34.4686 88.4903 34.5344 88.512C36.3163 89.0995 39.3371 89.2923 42.6151 89.0282C45.6511 88.7833 48.4824 88.1673 50.1894 87.3802C50.2523 87.3512 50.3268 87.3787 50.3558 87.4417C50.3847 87.5046 50.3572 87.5791 50.2943 87.608C48.5619 88.4067 45.6988 89.0315 42.6353 89.2782C41.6645 89.3567 40.7153 89.3946 39.8128 89.3946H39.8131Z" fill="#91B3FA"/>
<path d="M39.8302 86.9957C38.1058 86.9957 36.5373 86.8564 35.3179 86.5855C35.2503 86.5707 35.2076 86.5034 35.2228 86.4361C35.2376 86.3685 35.3049 86.3258 35.3722 86.341C37.2058 86.7483 39.8461 86.8539 42.6155 86.6307C45.6244 86.388 48.4415 85.7788 50.151 85.0004C50.214 84.9715 50.2881 84.9997 50.3171 85.0626C50.3457 85.1256 50.3178 85.1997 50.2549 85.2287C48.52 86.0183 45.6717 86.6358 42.6357 86.8807C41.6764 86.9581 40.7319 86.9961 39.8302 86.9961V86.9957Z" fill="#91B3FA"/>
<path d="M29.4761 73.8182C28.8424 71.5736 27.7658 69.476 26.316 67.6489C23.2099 63.7338 18.142 55.7722 17.5184 44.9058C16.6112 29.1 30.6289 21.1868 43.4205 22.2611C56.212 23.3354 68.8338 32.8594 67.452 47.5638C66.6019 56.6114 61.5377 63.4738 57.7674 67.4148C55.3731 69.9176 53.6654 72.9826 52.7408 76.3206C51.6093 80.406 48.9166 85.497 42.5161 85.8074C34.2343 86.2089 30.7946 78.4892 29.4757 73.8182H29.4761Z" fill="url(#paint5_linear_602_1756)"/>
<path opacity="0.78" d="M44.6327 82.8169L49.1083 60.4109C49.2009 59.9479 49.4968 59.6372 49.7696 59.7168C50.0423 59.7964 50.1881 60.2359 50.0959 60.6989C50.0933 60.7112 50.0901 60.7264 50.0876 60.7387L44.9893 82.9366C44.951 83.1034 44.8407 83.209 44.7433 83.1721C44.6489 83.1363 44.6008 82.9793 44.633 82.8176L44.6327 82.8169Z" fill="white"/>
<path opacity="0.78" d="M39.986 82.9946L35.5103 60.5887C35.4177 60.1257 35.1218 59.8149 34.8491 59.8945C34.5763 59.9741 34.4306 60.4136 34.5228 60.8766C34.5253 60.8889 34.5286 60.9041 34.5315 60.9164L39.6297 83.1143C39.668 83.2811 39.778 83.3867 39.8757 83.3498C39.9701 83.314 40.0182 83.157 39.986 82.9953V82.9946Z" fill="white"/>
<path opacity="0.78" d="M49.0755 58.4869C48.9619 58.3462 48.699 58.2938 48.4881 58.3694L45.9958 59.2657L45.1309 57.3684C45.0849 57.2693 44.9789 57.1818 44.8277 57.1337C44.5412 57.0429 44.1983 57.1239 44.0619 57.3153L44.0576 57.3214L42.008 60.1979L40.1061 56.1035L40.1028 56.0966C40.0561 55.9968 39.9581 55.9071 39.8149 55.8466C39.4958 55.7128 39.0748 55.7765 38.8737 55.9892L36.0084 59.0252C35.8919 59.1496 35.9321 59.3164 36.1093 59.4082C36.2985 59.5063 36.5716 59.4835 36.7185 59.3572L39.2412 57.1912L41.5125 61.0863L41.5143 61.0892C41.5508 61.1514 41.6192 61.206 41.7143 61.24C41.9274 61.3167 42.1936 61.2639 42.3086 61.1218L44.5007 58.4142L45.3258 59.7837L45.3331 59.796C45.3392 59.8058 45.3457 59.8156 45.3537 59.825C45.4673 59.9657 45.7299 60.0181 45.9408 59.9422L48.899 58.8783C49.1099 58.8023 49.1888 58.6269 49.0752 58.4862L49.0755 58.4869Z" fill="white"/>
<path d="M33.2195 26.2764C33.0585 26.6852 33.1583 27.082 33.5732 27.4636C33.6583 27.5417 33.7783 27.5714 33.8905 27.5439C39.6818 26.1285 45.5306 26.2533 51.2232 28.1343C51.3621 28.1802 51.514 28.1339 51.6059 28.0199C52.0642 27.4513 51.9918 26.8563 51.5042 26.2406C51.4612 26.186 51.4004 26.1465 51.3338 26.1263C45.6171 24.3784 39.901 24.2569 34.1849 25.4831C33.7541 25.5754 33.3808 25.8666 33.2195 26.2764Z" fill="white"/>
<path d="M33.5385 26.3509C33.3826 26.7191 33.4792 27.0765 33.8807 27.4201C33.9632 27.4907 34.0789 27.5174 34.1878 27.4925C39.7896 26.2177 45.447 26.3299 50.9529 28.0242C51.0871 28.0655 51.2343 28.0239 51.323 27.9211C51.7665 27.4089 51.6963 26.8728 51.2246 26.3183C51.183 26.2691 51.1244 26.2337 51.06 26.2152C45.5302 24.641 40.0012 24.5314 34.4725 25.6357C34.0558 25.7189 33.6948 25.9812 33.5385 26.3505V26.3509Z" fill="url(#paint6_linear_602_1756)"/>
<path d="M57.2101 99.5283C57.4011 99.5283 57.5559 99.3735 57.5559 99.1825V57.8392C57.5559 57.6482 57.4011 57.4934 57.2101 57.4934C57.0191 57.4934 56.8643 57.6482 56.8643 57.8392V99.1825C56.8643 99.3735 57.0191 99.5283 57.2101 99.5283Z" fill="url(#paint7_linear_602_1756)"/>
<path d="M66.5831 99.5283C66.7741 99.5283 66.9289 99.3735 66.9289 99.1825V57.8392C66.9289 57.6482 66.7741 57.4934 66.5831 57.4934C66.3921 57.4934 66.2373 57.6482 66.2373 57.8392V99.1825C66.2373 99.3735 66.3921 99.5283 66.5831 99.5283Z" fill="url(#paint8_linear_602_1756)"/>
<path d="M89.6125 99.7906C89.6577 99.7906 89.7037 99.7816 89.7478 99.7628C89.9236 99.6879 90.0054 99.485 89.9308 99.3092L72.2433 57.704C72.1684 57.5282 71.9651 57.4465 71.7897 57.521C71.6139 57.5958 71.5321 57.7988 71.6067 57.9746L89.2942 99.5797C89.3503 99.7114 89.4783 99.7902 89.6125 99.7902V99.7906Z" fill="url(#paint9_linear_602_1756)"/>
<path d="M78.6867 99.7906C78.732 99.7906 78.7779 99.7816 78.822 99.7628C78.9978 99.6879 79.0796 99.485 79.0051 99.3092L61.3175 57.704C61.2426 57.5282 61.0394 57.4465 60.8639 57.521C60.6881 57.5958 60.6064 57.7988 60.6809 57.9746L78.3684 99.5797C78.4245 99.7114 78.5525 99.7902 78.6867 99.7902V99.7906Z" fill="url(#paint10_linear_602_1756)"/>
<path d="M56.6732 58.2199H72.8754C73.1446 58.2199 73.363 58.0017 73.363 57.7322C73.363 57.4631 73.1449 57.2446 72.8754 57.2446H56.6732C56.404 57.2446 56.1855 57.4628 56.1855 57.7322C56.1855 58.0014 56.4037 58.2199 56.6732 58.2199Z" fill="url(#paint11_linear_602_1756)"/>
<path d="M63.672 64.5473H74.6295C74.8205 64.5473 74.9753 64.3925 74.9753 64.2015C74.9753 64.0105 74.8205 63.8557 74.6295 63.8557H63.672C63.481 63.8557 63.3262 64.0105 63.3262 64.2015C63.3262 64.3925 63.481 64.5473 63.672 64.5473Z" fill="url(#paint12_linear_602_1756)"/>
<path d="M77.9917 71.7239H67.0342V72.4155H77.9917V71.7239Z" fill="url(#paint13_linear_602_1756)"/>
<path d="M81.2466 79.5928H70.2891V80.2844H81.2466V79.5928Z" fill="url(#paint14_linear_602_1756)"/>
<path d="M73.7023 88.153H84.6602C84.8511 88.153 85.006 87.9982 85.006 87.8072C85.006 87.6162 84.8511 87.4614 84.6602 87.4614H73.7023C73.5113 87.4614 73.3564 87.6162 73.3564 87.8072C73.3564 87.9982 73.5113 88.153 73.7023 88.153Z" fill="url(#paint15_linear_602_1756)"/>
<path d="M77.0021 96.0217H87.9596C88.1506 96.0217 88.3054 95.8669 88.3054 95.6759C88.3054 95.4849 88.1506 95.3301 87.9596 95.3301H77.0021C76.8111 95.3301 76.6562 95.4849 76.6562 95.6759C76.6562 95.8669 76.8111 96.0217 77.0021 96.0217Z" fill="url(#paint16_linear_602_1756)"/>
<path d="M69.3281 55.1037C69.3281 55.1037 69.6855 55.6672 69.7755 57.2451C69.7839 57.392 69.6674 57.5175 69.5202 57.5175H66.724C66.6115 57.5175 66.5312 57.4072 66.5674 57.3004C66.7312 56.8154 67.2268 55.6332 68.3322 54.9575L69.3285 55.1037H69.3281Z" fill="url(#paint17_linear_602_1756)"/>
<path d="M69.4493 54.0343L69.2912 55.3604C69.2775 55.4747 69.1878 55.5662 69.0735 55.5796C68.9204 55.5973 68.6983 55.6096 68.4824 55.5742C68.286 55.5416 68.1445 55.3669 68.1445 55.168V53.8875L69.4493 54.0343Z" fill="url(#paint18_linear_602_1756)"/>
<path d="M62.4093 54.9575C62.4093 54.9575 62.9446 55.7895 62.9331 56.9311C62.9305 57.2002 62.7052 57.4144 62.436 57.4144H58.0931C57.8898 57.4144 57.8073 57.1532 57.9737 57.0364C58.7956 56.4594 60.4107 55.3815 61.5791 54.9575H62.4093Z" fill="url(#paint19_linear_602_1756)"/>
<path d="M62.8572 53.5253L62.5197 55.1632C62.4821 55.3463 62.3027 55.4696 62.1204 55.4288C62.0094 55.4042 61.8784 55.3564 61.7388 55.2692C61.6057 55.186 61.5384 55.028 61.5655 54.8735L61.9146 52.8894L62.8572 53.5257V53.5253Z" fill="url(#paint20_linear_602_1756)"/>
<path d="M68.8293 30.7544C68.8293 30.7544 70.0024 31.7886 70.223 33.0326C70.4437 34.2766 69.5976 54.498 69.5976 54.498C69.5976 54.498 68.4249 54.693 67.8201 54.3269C67.8201 54.3269 67.1031 41.2037 66.558 38.171C66.558 38.171 63.6996 51.7651 62.9074 54.2213C62.9074 54.2213 61.7773 54.3587 61.4131 54.1439C61.4131 54.1439 62.1619 36.5222 63.1027 33.3892L68.8293 30.7548V30.7544Z" fill="url(#paint21_linear_602_1756)"/>
<path d="M66.5924 37.7327C66.5826 37.7327 66.5729 37.7316 66.5631 37.7291C66.5012 37.7128 66.4643 37.6498 66.4803 37.588L66.9784 35.677C66.9856 35.6488 67.0033 35.6245 67.0279 35.6086L68.1044 34.9181C68.158 34.8833 68.2296 34.8993 68.2643 34.9532C68.2987 35.007 68.2831 35.0783 68.2292 35.113L67.1911 35.7793L66.7042 37.6466C66.6908 37.6987 66.6438 37.733 66.5924 37.733V37.7327Z" fill="url(#paint22_linear_602_1756)"/>
<path d="M57.255 19.0702C62.1926 18.6603 63.4833 19.6822 63.4833 19.6822L61.1103 23.4283C61.1103 23.4283 56.2588 23.3324 52.7822 20.6531C53.433 19.9524 53.8848 19.178 54.1745 18.575C55.0709 18.9475 56.1033 19.166 57.255 19.0702Z" fill="url(#paint23_linear_602_1756)"/>
<path d="M49.5224 11.8226C49.5289 11.6645 49.7434 11.6214 49.8107 11.7647L50.4408 13.1092C50.5627 13.3689 50.6014 13.6598 50.5526 13.9427L50.3316 14.7251C50.2654 15.1067 50.3652 15.4977 50.6072 15.8001C51.186 16.524 52.4191 17.8457 54.1743 18.575C53.8845 19.178 53.4327 19.9521 52.782 20.6531C51.5065 19.6699 50.4155 18.3395 49.8183 16.5377C49.5322 16.4498 49.3408 16.1803 49.352 15.8808L49.5228 11.8229L49.5224 11.8226Z" fill="url(#paint24_linear_602_1756)"/>
<path d="M55.6291 21.2421C57.3672 19.3691 60.6781 18.523 62.5953 18.1754C63.4352 18.0231 64.2629 18.4904 64.5606 19.2902C65.4233 21.6093 67.7695 27.6422 68.2242 28.6793C68.5971 29.5301 68.9867 30.3606 69.2345 30.88C69.3824 31.1904 69.2533 31.5615 68.9437 31.7109C67.3307 32.4883 64.4289 33.3677 63.2522 33.711C62.9936 33.7866 62.7357 33.5923 62.7357 33.3225C62.7357 33.0938 62.6734 32.8696 62.5559 32.6735L58.1001 25.2483C55.3227 28.3277 52.8908 28.6091 51.0225 27.9352C51.3364 26.9643 51.5423 25.9916 51.6407 25.0171C54.4007 24.5443 55.6295 21.2421 55.6295 21.2421H55.6291Z" fill="url(#paint25_linear_602_1756)"/>
<path d="M59.9593 14.7354L61.4399 18.3487C61.4399 18.3487 59.7387 19.5261 58.3699 19.4143L57.6309 16.1653L59.9593 14.7354Z" fill="url(#paint26_linear_602_1756)"/>
<path d="M57.4578 12.2721C57.4238 12.3202 56.3867 16.0674 56.3867 16.0674L58.539 16.6143L60.05 13.2086C60.05 13.2086 58.0261 11.4676 57.4582 12.2721H57.4578Z" fill="url(#paint27_linear_602_1756)"/>
<path d="M59.2388 13.7259L58.5841 15.5809C58.5757 15.6048 58.5645 15.6268 58.5501 15.6474C58.4611 15.7737 58.1236 16.1857 57.7231 15.8146C57.3596 15.4778 57.0232 15.1757 56.7121 15.1211C56.5725 15.0965 56.4372 15.1815 56.3996 15.3183C56.3055 15.6587 56.1073 16.4299 56.0375 17.1262C56.0234 17.2676 56.121 17.3953 56.2603 17.4217C56.6806 17.5017 57.5719 17.6453 58.316 17.5928C58.4169 17.5856 58.5056 17.5252 58.5475 17.4333C58.7526 16.9851 59.381 15.6257 59.6146 15.2741C59.8338 14.9439 60.3717 14.9533 60.5971 14.9732C60.6709 14.9797 60.7436 14.9558 60.7997 14.907C60.9968 14.7341 61.3723 14.2928 60.8442 13.7643C60.7335 13.6536 60.7367 13.4753 60.8507 13.3682C61.0775 13.1548 61.3198 12.7768 60.9422 12.3076C60.558 11.8308 60.0512 11.9068 59.7405 12.02C59.615 12.066 59.4779 12.0128 59.4095 11.8977C59.3708 11.8323 59.3028 11.7827 59.1853 11.7928C59.0268 11.8066 58.8937 11.6742 58.8966 11.5154C58.902 11.2101 58.7928 10.8241 58.2628 10.6592C57.3227 10.3665 56.7363 11.2748 56.6785 11.9527C56.6202 12.6306 57.6577 12.8896 58.2679 12.844C58.7317 12.8093 59.076 13.2691 59.2146 13.4912C59.2583 13.5617 59.267 13.6478 59.2395 13.7263L59.2388 13.7259Z" fill="url(#paint28_linear_602_1756)"/>
<path d="M59.3691 15.9467C59.3691 15.9467 59.5211 14.77 60.0105 14.7125C60.4999 14.655 60.9763 15.0572 60.4898 15.7174C59.8846 16.5389 59.3691 15.9467 59.3691 15.9467Z" fill="url(#paint29_linear_602_1756)"/>
<path d="M52.3552 20.9502C56.4877 16.8176 56.4877 10.1174 52.3552 5.98488C48.2226 1.85233 41.5224 1.85233 37.3899 5.98488C33.2573 10.1174 33.2573 16.8176 37.3899 20.9502C41.5224 25.0827 48.2226 25.0827 52.3552 20.9502Z" fill="url(#paint30_linear_602_1756)"/>
<path d="M52.1066 20.7013C56.1017 16.7062 56.1017 10.2289 52.1066 6.23376C48.1115 2.23866 41.6341 2.23866 37.639 6.23376C33.6439 10.2289 33.6439 16.7062 37.639 20.7013C41.6341 24.6964 48.1115 24.6964 52.1066 20.7013Z" fill="url(#paint31_linear_602_1756)"/>
<path d="M36.4818 9.31611C36.4528 9.31611 36.4235 9.30887 36.396 9.29476C36.3023 9.24629 36.2658 9.1309 36.3146 9.03721C38.0003 5.78706 41.3199 3.79321 44.9784 3.83336C45.5623 3.83987 46.1461 3.89883 46.7144 4.00916C46.8178 4.02906 46.8858 4.12925 46.8656 4.23307C46.8457 4.33653 46.7462 4.40489 46.6417 4.38427C46.0958 4.27865 45.5348 4.22186 44.9741 4.21571C41.4606 4.177 38.2723 6.092 36.6536 9.21337C36.6192 9.27957 36.5516 9.31719 36.4818 9.31647V9.31611Z" fill="url(#paint32_linear_602_1756)"/>
<path opacity="0.78" d="M51.2158 19.815C54.5971 16.4337 54.5971 10.9515 51.2158 7.57023C47.8345 4.18892 42.3523 4.18892 38.971 7.57023C35.5897 10.9515 35.5897 16.4337 38.971 19.815C42.3523 23.1963 47.8345 23.1963 51.2158 19.815Z" fill="white"/>
<path d="M44.1729 20.1199L44.1834 19.1779C43.202 19.1276 42.2333 18.8853 41.5467 18.5756C41.3015 18.465 41.1792 18.1871 41.2526 17.9285L41.5015 17.0538C41.5926 16.733 41.9446 16.5702 42.251 16.7026C42.9321 16.9971 43.7746 17.2333 44.6854 17.2434C45.6314 17.2539 46.34 16.941 46.3472 16.2837C46.3537 15.6905 45.8126 15.332 44.502 14.9649C42.6323 14.4313 41.2946 13.599 41.3127 11.9477C41.3289 10.4566 42.4319 9.33054 44.3266 9.04695L44.3371 8.105C44.3403 7.80187 44.5889 7.55879 44.892 7.56204L45.4454 7.56819C45.7486 7.57145 45.9916 7.81996 45.988 8.12309L45.9786 8.96881C46.8869 9.01511 47.5467 9.17789 48.0694 9.36816C48.3375 9.46547 48.4811 9.75702 48.4033 10.0312L48.1743 10.84C48.0861 11.1519 47.7497 11.3197 47.4476 11.2018C46.9665 11.0137 46.2854 10.8158 45.397 10.806C44.2749 10.7937 43.9493 11.2549 43.9446 11.6717C43.9388 12.1846 44.6084 12.5445 46.0622 13.0097C48.1392 13.6579 48.9955 14.5329 48.9781 16.088C48.9625 17.5147 47.8904 18.7855 45.835 19.0835L45.8234 20.1376C45.8202 20.4407 45.5717 20.6838 45.2685 20.6806L44.7151 20.6744C44.412 20.6712 44.1689 20.4226 44.1725 20.1195L44.1729 20.1199Z" fill="url(#paint33_linear_602_1756)"/>
<path d="M47.0781 24.5001L47.5762 23.8359C49.1888 24.9436 50.537 25.2058 51.6403 25.017C51.5415 25.9915 51.3361 26.9642 51.0221 27.9351C48.5609 27.047 47.0781 24.5001 47.0781 24.5001Z" fill="url(#paint34_linear_602_1756)"/>
<path d="M47.4302 24.512L44.6239 24.6213L42.04 23.1783C42.4108 22.9457 44.5081 23.4211 44.5081 23.4211C44.5081 23.4211 46.7006 23.0893 47.2942 23.0886C47.7872 23.0879 47.7167 23.7965 47.6787 24.0367C47.6711 24.0856 47.6646 24.1152 47.6646 24.1152L47.4302 24.5117V24.512Z" fill="url(#paint35_linear_602_1756)"/>
</g>
<defs>
<linearGradient id="paint0_linear_602_1756" x1="36.2776" y1="84.1329" x2="47.9463" y2="103.117" gradientUnits="userSpaceOnUse">
<stop stop-color="#4F52FF"/>
<stop offset="1" stop-color="#4042E2"/>
</linearGradient>
<linearGradient id="paint1_linear_602_1756" x1="37.982" y1="84.2485" x2="48.8429" y2="101.918" gradientUnits="userSpaceOnUse">
<stop stop-color="#4F52FF"/>
<stop offset="1" stop-color="#4042E2"/>
</linearGradient>
<linearGradient id="paint2_linear_602_1756" x1="39.0515" y1="83.5913" x2="49.9125" y2="101.261" gradientUnits="userSpaceOnUse">
<stop stop-color="#4F52FF"/>
<stop offset="1" stop-color="#4042E2"/>
</linearGradient>
<linearGradient id="paint3_linear_602_1756" x1="40.1214" y1="82.9331" x2="50.9824" y2="100.603" gradientUnits="userSpaceOnUse">
<stop stop-color="#4F52FF"/>
<stop offset="1" stop-color="#4042E2"/>
</linearGradient>
<linearGradient id="paint4_linear_602_1756" x1="41.1914" y1="82.2761" x2="52.0523" y2="99.9459" gradientUnits="userSpaceOnUse">
<stop stop-color="#4F52FF"/>
<stop offset="1" stop-color="#4042E2"/>
</linearGradient>
<linearGradient id="paint5_linear_602_1756" x1="43.1629" y1="94.0378" x2="42.4409" y2="38.6233" gradientUnits="userSpaceOnUse">
<stop stop-color="#FE7062"/>
<stop offset="1" stop-color="#FF928E"/>
</linearGradient>
<linearGradient id="paint6_linear_602_1756" x1="46.5959" y1="0.428171" x2="41.3009" y2="35.0866" gradientUnits="userSpaceOnUse">
<stop stop-color="#E1473D"/>
<stop offset="1" stop-color="#E9605A"/>
</linearGradient>
<linearGradient id="paint7_linear_602_1756" x1="83.7842" y1="48.0906" x2="111.221" y2="16.683" gradientUnits="userSpaceOnUse">
<stop stop-color="#4F52FF"/>
<stop offset="1" stop-color="#4042E2"/>
</linearGradient>
<linearGradient id="paint8_linear_602_1756" x1="89.1001" y1="52.7348" x2="116.537" y2="21.3269" gradientUnits="userSpaceOnUse">
<stop stop-color="#4F52FF"/>
<stop offset="1" stop-color="#4042E2"/>
</linearGradient>
<linearGradient id="paint9_linear_602_1756" x1="97.211" y1="59.8198" x2="124.648" y2="28.4122" gradientUnits="userSpaceOnUse">
<stop stop-color="#4F52FF"/>
<stop offset="1" stop-color="#4042E2"/>
</linearGradient>
<linearGradient id="paint10_linear_602_1756" x1="91.0141" y1="54.4068" x2="118.451" y2="22.9992" gradientUnits="userSpaceOnUse">
<stop stop-color="#4F52FF"/>
<stop offset="1" stop-color="#4042E2"/>
</linearGradient>
<linearGradient id="paint11_linear_602_1756" x1="77.7794" y1="42.8453" x2="105.216" y2="11.4373" gradientUnits="userSpaceOnUse">
<stop stop-color="#4F52FF"/>
<stop offset="1" stop-color="#4042E2"/>
</linearGradient>
<linearGradient id="paint12_linear_602_1756" x1="83.467" y1="47.8133" x2="110.903" y2="16.4054" gradientUnits="userSpaceOnUse">
<stop stop-color="#4F52FF"/>
<stop offset="1" stop-color="#4042E2"/>
</linearGradient>
<linearGradient id="paint13_linear_602_1756" x1="89.2723" y1="52.8846" x2="116.709" y2="21.4766" gradientUnits="userSpaceOnUse">
<stop stop-color="#4F52FF"/>
<stop offset="1" stop-color="#4042E2"/>
</linearGradient>
<linearGradient id="paint14_linear_602_1756" x1="95.0173" y1="57.9032" x2="122.454" y2="26.4956" gradientUnits="userSpaceOnUse">
<stop stop-color="#4F52FF"/>
<stop offset="1" stop-color="#4042E2"/>
</linearGradient>
<linearGradient id="paint15_linear_602_1756" x1="100.852" y1="63.0003" x2="128.288" y2="31.5924" gradientUnits="userSpaceOnUse">
<stop stop-color="#4F52FF"/>
<stop offset="1" stop-color="#4042E2"/>
</linearGradient>
<linearGradient id="paint16_linear_602_1756" x1="106.622" y1="68.041" x2="134.058" y2="36.6334" gradientUnits="userSpaceOnUse">
<stop stop-color="#4F52FF"/>
<stop offset="1" stop-color="#4042E2"/>
</linearGradient>
<linearGradient id="paint17_linear_602_1756" x1="69.7759" y1="56.2373" x2="66.5587" y2="56.2373" gradientUnits="userSpaceOnUse">
<stop stop-color="#09005D"/>
<stop offset="1" stop-color="#1A0F91"/>
</linearGradient>
<linearGradient id="paint18_linear_602_1756" x1="69.4493" y1="54.7422" x2="68.1445" y2="54.7422" gradientUnits="userSpaceOnUse">
<stop stop-color="#FEBBBA"/>
<stop offset="1" stop-color="#FF928E"/>
</linearGradient>
<linearGradient id="paint19_linear_602_1756" x1="62.9334" y1="56.186" x2="57.8851" y2="56.186" gradientUnits="userSpaceOnUse">
<stop stop-color="#09005D"/>
<stop offset="1" stop-color="#1A0F91"/>
</linearGradient>
<linearGradient id="paint20_linear_602_1756" x1="62.8572" y1="54.1627" x2="61.5594" y2="54.1627" gradientUnits="userSpaceOnUse">
<stop stop-color="#FEBBBA"/>
<stop offset="1" stop-color="#FF928E"/>
</linearGradient>
<linearGradient id="paint21_linear_602_1756" x1="70.2596" y1="42.6521" x2="61.4127" y2="42.6521" gradientUnits="userSpaceOnUse">
<stop stop-color="#09005D"/>
<stop offset="1" stop-color="#1A0F91"/>
</linearGradient>
<linearGradient id="paint22_linear_602_1756" x1="69.6063" y1="27.3554" x2="62.2053" y2="57.1388" gradientUnits="userSpaceOnUse">
<stop stop-color="#4F52FF"/>
<stop offset="1" stop-color="#4042E2"/>
</linearGradient>
<linearGradient id="paint23_linear_602_1756" x1="50.6505" y1="2.53148" x2="54.5652" y2="11.7585" gradientUnits="userSpaceOnUse">
<stop stop-color="#4F52FF"/>
<stop offset="1" stop-color="#4042E2"/>
</linearGradient>
<linearGradient id="paint24_linear_602_1756" x1="54.1743" y1="16.1651" x2="49.3513" y2="16.1651" gradientUnits="userSpaceOnUse">
<stop stop-color="#FEBBBA"/>
<stop offset="1" stop-color="#FF928E"/>
</linearGradient>
<linearGradient id="paint25_linear_602_1756" x1="58.6112" y1="14.8691" x2="61.2511" y2="39.8716" gradientUnits="userSpaceOnUse">
<stop stop-color="#4F52FF"/>
<stop offset="1" stop-color="#4042E2"/>
</linearGradient>
<linearGradient id="paint26_linear_602_1756" x1="54.9776" y1="9.38138" x2="65.0702" y2="27.9255" gradientUnits="userSpaceOnUse">
<stop stop-color="#FEBBBA"/>
<stop offset="1" stop-color="#FF928E"/>
</linearGradient>
<linearGradient id="paint27_linear_602_1756" x1="58.1575" y1="12.7905" x2="58.3985" y2="20.1834" gradientUnits="userSpaceOnUse">
<stop stop-color="#FEBBBA"/>
<stop offset="1" stop-color="#FF928E"/>
</linearGradient>
<linearGradient id="paint28_linear_602_1756" x1="60.1193" y1="15.9179" x2="55.7667" y2="12.8452" gradientUnits="userSpaceOnUse">
<stop stop-color="#09005D"/>
<stop offset="1" stop-color="#1A0F91"/>
</linearGradient>
<linearGradient id="paint29_linear_602_1756" x1="60.7992" y1="20.3757" x2="59.9934" y2="15.3139" gradientUnits="userSpaceOnUse">
<stop stop-color="#FEBBBA"/>
<stop offset="1" stop-color="#FF928E"/>
</linearGradient>
<linearGradient id="paint30_linear_602_1756" x1="30.2115" y1="30.1151" x2="44.5857" y2="13.7968" gradientUnits="userSpaceOnUse">
<stop stop-color="#E1473D"/>
<stop offset="1" stop-color="#E9605A"/>
</linearGradient>
<linearGradient id="paint31_linear_602_1756" x1="52.7383" y1="1.86907" x2="10.0713" y2="64.8122" gradientUnits="userSpaceOnUse">
<stop stop-color="#FE7062"/>
<stop offset="1" stop-color="#FF928E"/>
</linearGradient>
<linearGradient id="paint32_linear_602_1756" x1="41.7366" y1="-0.183295" x2="42.0575" y2="-14.3034" gradientUnits="userSpaceOnUse">
<stop stop-color="#FEBBBA"/>
<stop offset="1" stop-color="#FF928E"/>
</linearGradient>
<linearGradient id="paint33_linear_602_1756" x1="53.4879" y1="6.17043" x2="23.274" y2="34.7524" gradientUnits="userSpaceOnUse">
<stop stop-color="#FE7062"/>
<stop offset="1" stop-color="#FF928E"/>
</linearGradient>
<linearGradient id="paint34_linear_602_1756" x1="49.3592" y1="24.7124" x2="49.3592" y2="46.5533" gradientUnits="userSpaceOnUse">
<stop stop-color="#FEBBBA"/>
<stop offset="1" stop-color="#FF928E"/>
</linearGradient>
<linearGradient id="paint35_linear_602_1756" x1="44.8727" y1="24.7124" x2="44.8727" y2="46.5533" gradientUnits="userSpaceOnUse">
<stop stop-color="#FEBBBA"/>
<stop offset="1" stop-color="#FF928E"/>
</linearGradient>
<clipPath id="clip0_602_1756">
<rect width="100" height="99.5815" fill="white" transform="translate(0 0.209229)"/>
</clipPath>
</defs>
</svg>
