<svg width="100" height="102" viewBox="0 0 100 102" fill="none" xmlns="http://www.w3.org/2000/svg">
<path d="M88.2066 86.997C86.1969 89.1129 84.2952 90.4772 82.7927 91.5555C65.131 104.228 44.2328 100.534 39.7913 99.632C33.2327 98.3 20.5549 95.7249 11.389 84.9463C-2.47828 68.6386 -0.318897 42.9467 10.4375 25.9871C12.4048 22.8848 22.7979 5.66716 43.9212 2.90583C56.7049 1.2346 71.6067 4.60505 82.3978 13.646C105.05 32.6239 103.437 70.9627 88.2066 86.997Z" fill="#EBEDFE"/>
<g opacity="0.3">
<path d="M31.9382 23.203C32.1428 23.1413 32.365 23.2429 32.4497 23.4442C32.6346 23.8846 32.8033 24.3394 32.9508 24.796C33.0226 25.0182 32.9005 25.2565 32.6784 25.3283C32.6758 25.329 32.673 25.3297 32.6705 25.3308C32.4504 25.3972 32.2171 25.2755 32.1461 25.0562C32.0061 24.6223 31.8456 24.1901 31.6701 23.7719C31.5796 23.5566 31.6809 23.3089 31.8962 23.2185C31.9102 23.2127 31.9242 23.2077 31.9382 23.2034V23.203ZM32.977 26.7364C32.9928 26.7318 33.0093 26.7278 33.0258 26.7249C33.2555 26.684 33.4752 26.8373 33.5161 27.0674C33.5998 27.5397 33.6644 28.02 33.7074 28.4952C33.7286 28.7278 33.5581 28.9328 33.3248 28.9547C33.0922 28.9759 32.8865 28.8043 32.8657 28.572C32.8248 28.1201 32.7634 27.6639 32.6837 27.2149C32.6461 27.0017 32.7749 26.7978 32.9774 26.7364H32.977ZM33.2121 30.4105C33.2573 30.3969 33.3054 30.3908 33.355 30.393C33.5883 30.4044 33.7681 30.6026 33.7566 30.8359C33.7333 31.314 33.6888 31.7968 33.6245 32.2713C33.5929 32.5028 33.3801 32.6643 33.1489 32.6335C32.9178 32.6022 32.7555 32.389 32.7868 32.1579C32.8478 31.7074 32.8901 31.2487 32.9124 30.7946C32.9214 30.6112 33.0459 30.4608 33.2125 30.4105H33.2121ZM32.6195 34.0459C32.6938 34.0233 32.7756 34.0211 32.856 34.0437C33.0807 34.1069 33.2117 34.3406 33.1486 34.5653C33.0186 35.0262 32.8675 35.487 32.6988 35.9354C32.6166 36.1536 32.3729 36.2641 32.1543 36.1823C31.9357 36.1001 31.8255 35.8564 31.9074 35.6378C32.0674 35.2124 32.2114 34.7745 32.3345 34.3363C32.3751 34.192 32.486 34.0864 32.6195 34.0459ZM31.2311 37.458C31.3356 37.4264 31.4519 37.435 31.5552 37.4914C31.7605 37.603 31.8363 37.8596 31.7247 38.0646C31.4964 38.4842 31.2469 38.9002 30.9831 39.3004C30.8546 39.4953 30.5926 39.5495 30.3977 39.421C30.2027 39.2925 30.1489 39.0305 30.2774 38.8352C30.5283 38.4548 30.7652 38.0596 30.9824 37.6608C31.0376 37.5592 31.1288 37.4892 31.2315 37.458H31.2311ZM29.1227 40.4774C29.258 40.4365 29.4106 40.4641 29.5243 40.5642C29.6999 40.7186 29.7167 40.9856 29.5628 41.1608C29.2469 41.5201 28.9116 41.8704 28.566 42.2017C28.3973 42.3633 28.1299 42.3579 27.9683 42.1892C27.8068 42.0208 27.8122 41.7531 27.9809 41.5915C28.309 41.2767 28.6277 40.944 28.9278 40.6023C28.982 40.5409 29.0498 40.4989 29.1227 40.4767V40.4774ZM14.5842 45.9204C14.6402 45.9035 14.7005 45.8981 14.7622 45.9064C15.2123 45.9667 15.6714 46.0083 16.1262 46.0295C16.3595 46.0406 16.5397 46.2384 16.5286 46.4713C16.5178 46.7046 16.3196 46.8848 16.0863 46.8737C15.6075 46.8511 15.124 46.8077 14.6499 46.7441C14.4183 46.7133 14.2561 46.5004 14.287 46.2689C14.3096 46.0991 14.4302 45.9667 14.5838 45.92L14.5842 45.9204ZM26.3991 42.953C26.567 42.9024 26.7555 42.9602 26.8639 43.1102C27.0006 43.2997 26.9579 43.5639 26.7688 43.7003C26.3807 43.9806 25.9759 44.2473 25.5652 44.4928C25.3646 44.6117 25.1054 44.5478 24.9852 44.3475C24.8653 44.1472 24.9303 43.8877 25.1309 43.7674C25.5207 43.5341 25.9052 43.2807 26.2738 43.0147C26.3129 42.9864 26.3553 42.9659 26.3991 42.9526V42.953ZM18.2662 45.9947C18.2927 45.9868 18.3207 45.981 18.3498 45.9781C18.8024 45.9361 19.259 45.8741 19.7073 45.7936C19.937 45.7524 20.1571 45.9053 20.198 46.135C20.2393 46.3647 20.0867 46.5855 19.8566 46.6257C19.385 46.71 18.9044 46.7757 18.4281 46.8199C18.1955 46.8414 17.9894 46.6705 17.9679 46.4379C17.9489 46.2344 18.0777 46.051 18.2662 45.9943V45.9947ZM23.1912 44.7581C23.3954 44.6964 23.6176 44.7976 23.7023 44.9982C23.7931 45.2132 23.6923 45.4613 23.4773 45.5524C23.0369 45.7384 22.5824 45.9078 22.1269 46.056C22.1241 46.0571 22.1212 46.0578 22.1183 46.0589C21.8987 46.1253 21.6653 46.004 21.5943 45.785C21.5221 45.5629 21.6435 45.3245 21.8656 45.2524C22.2985 45.1117 22.73 44.9505 23.1485 44.7739C23.1625 44.7682 23.1768 44.7628 23.1912 44.7585V44.7581Z" fill="#7D97F4"/>
<path d="M11.6894 45.2617C11.7691 45.2377 11.8567 45.2366 11.9418 45.2646C12.1489 45.3321 12.3614 45.3963 12.5724 45.4556C12.7971 45.5187 12.9285 45.7521 12.8653 45.9767C12.8022 46.2014 12.5688 46.3328 12.3441 46.2693C12.122 46.2068 11.8991 46.1393 11.6808 46.0686C11.459 45.9965 11.3373 45.7578 11.4095 45.536C11.454 45.3989 11.5617 45.3005 11.6898 45.2617H11.6894Z" fill="#7D97F4"/>
</g>
<g opacity="0.3">
<path d="M1.96174 36.807C2.15701 36.7481 2.37165 36.8378 2.4639 37.027C2.55902 37.223 2.65988 37.4204 2.76397 37.6135C2.87453 37.8192 2.79736 38.0755 2.59204 38.186C2.38565 38.2969 2.13009 38.2194 2.01953 38.0141C1.91041 37.8109 1.80381 37.6031 1.70366 37.3967C1.60173 37.1867 1.68931 36.9337 1.89929 36.8317C1.91975 36.8217 1.94092 36.8134 1.9621 36.8073L1.96174 36.807Z" fill="#7D97F4"/>
<path d="M11.989 13.8438C12.1753 13.7874 12.363 13.7343 12.5525 13.684C12.7783 13.6241 13.0098 13.7583 13.0698 13.9841C13.1297 14.2099 12.9944 14.4425 12.7697 14.5013C12.3325 14.6176 11.9007 14.7512 11.4822 14.9005C11.2618 14.9787 11.0206 14.8642 10.942 14.6442C10.8634 14.4242 10.9782 14.1823 11.1983 14.104C11.4574 14.0118 11.7234 13.9242 11.989 13.8438ZM14.7439 13.2598C14.7665 13.253 14.7902 13.2479 14.8142 13.2451C15.2823 13.1866 15.7579 13.1474 16.2281 13.1288C16.4614 13.1194 16.6581 13.3011 16.6674 13.534C16.6768 13.7673 16.4948 13.9647 16.2618 13.9733C15.8153 13.9913 15.3634 14.0286 14.9187 14.0839C14.6872 14.113 14.4757 13.9482 14.447 13.7167C14.4212 13.5092 14.5504 13.3183 14.7439 13.2598ZM9.15948 14.9945C9.35043 14.9367 9.56113 15.0211 9.65625 15.2042C9.76393 15.4113 9.68317 15.6665 9.47606 15.7745C9.07979 15.9805 8.68675 16.2063 8.30843 16.4457C8.11101 16.5703 7.85006 16.5118 7.72515 16.3144C7.60024 16.1169 7.65911 15.8556 7.85652 15.7311C8.25531 15.4787 8.66881 15.2411 9.08625 15.024C9.10994 15.0118 9.13471 15.0017 9.15948 14.9942V14.9945ZM18.3685 13.2099C18.4198 13.1944 18.4751 13.1887 18.5318 13.1941C19.0009 13.24 19.4736 13.3064 19.9367 13.3915C20.1664 13.4339 20.3182 13.6543 20.2759 13.8836C20.2335 14.1133 20.0135 14.2652 19.7838 14.2228C19.3441 14.1421 18.895 14.0789 18.4496 14.0354C18.2173 14.0128 18.0472 13.8061 18.0698 13.5735C18.087 13.398 18.2094 13.2576 18.3685 13.2095V13.2099ZM6.15048 17.0107C6.30698 16.9633 6.48358 17.0096 6.59593 17.1428C6.74668 17.3212 6.72407 17.5879 6.54567 17.7386C6.20468 18.0265 5.87122 18.3334 5.55428 18.6503C5.38917 18.8155 5.1214 18.8155 4.95629 18.6503C4.79117 18.4852 4.79117 18.2178 4.95629 18.0527C5.28974 17.7193 5.64079 17.3962 6.00008 17.0929C6.04567 17.0545 6.09664 17.0272 6.15048 17.0111V17.0107ZM3.65692 19.6385C3.78219 19.6008 3.9229 19.6213 4.03489 19.7063C4.22082 19.8474 4.25743 20.1127 4.11601 20.2986C3.84537 20.6554 3.58657 21.0276 3.3468 21.4049C3.22189 21.6023 2.96058 21.6604 2.76316 21.5351C2.5661 21.4099 2.50759 21.1489 2.63286 20.9515C2.8852 20.5542 3.15728 20.1626 3.44228 19.7871C3.49827 19.7132 3.57401 19.6629 3.65656 19.6381L3.65692 19.6385ZM1.79546 22.7476C1.89058 22.7189 1.9961 22.7232 2.09374 22.7681C2.30587 22.8654 2.39919 23.1163 2.30192 23.3284C2.11527 23.7358 1.9437 24.1554 1.79187 24.5761C1.71254 24.7958 1.47062 24.9095 1.25058 24.8302C1.03091 24.7509 0.917129 24.509 0.996455 24.2889C1.15618 23.8467 1.33673 23.4049 1.53307 22.9759C1.58584 22.8611 1.68311 22.781 1.79546 22.7473V22.7476ZM0.656539 26.1885C0.722584 26.1687 0.794013 26.1644 0.86616 26.1798C1.09445 26.2283 1.24018 26.4526 1.19172 26.6813C1.09875 27.1195 1.02338 27.5664 0.96774 28.0101C0.938666 28.2416 0.726891 28.406 0.495733 28.3769C0.263858 28.3478 0.099822 28.1364 0.128896 27.9049C0.187404 27.4376 0.266729 26.967 0.36472 26.5058C0.398102 26.3493 0.51368 26.2319 0.656539 26.1888V26.1885ZM0.30047 29.7965C0.337441 29.7854 0.376924 29.7793 0.417484 29.7786C0.650796 29.7753 0.842829 29.9623 0.8457 30.1957C0.851443 30.6425 0.876569 31.0948 0.920001 31.5406C0.942614 31.7728 0.772117 31.9796 0.540242 32.0022C0.308008 32.0248 0.100899 31.855 0.0782856 31.6224C0.0323413 31.1537 0.0061386 30.6774 3.66146e-05 30.2068C-0.00247597 30.014 0.124589 29.8496 0.300111 29.7965H0.30047ZM0.745197 33.3924C0.753453 33.3899 0.762067 33.3877 0.770323 33.3856C0.997532 33.3317 1.22546 33.4724 1.27894 33.6996C1.35468 34.0205 1.44154 34.3425 1.53666 34.6573C1.57112 34.7714 1.60665 34.8849 1.64362 34.9972C1.71613 35.2194 1.59481 35.4581 1.37262 35.5302C1.14936 35.6078 0.912104 35.4814 0.839598 35.2596C0.800833 35.1411 0.763503 35.022 0.72725 34.9021C0.627106 34.5708 0.535935 34.2319 0.45625 33.8945C0.404562 33.6759 0.532704 33.4566 0.744838 33.3927L0.745197 33.3924Z" fill="#7D97F4"/>
<path d="M21.9247 13.963C22.0051 13.9386 22.0934 13.9379 22.1792 13.9662C22.3963 14.038 22.6164 14.1159 22.8328 14.1974C23.0514 14.2796 23.1616 14.5237 23.0794 14.7419C22.9969 14.9605 22.7535 15.0707 22.5349 14.9885C22.3292 14.911 22.1203 14.837 21.9143 14.7688C21.6928 14.6956 21.5722 14.4565 21.6454 14.2347C21.6903 14.0987 21.7976 14.0011 21.9251 13.9626L21.9247 13.963Z" fill="#7D97F4"/>
</g>
<path d="M22.7963 18.8219C22.7263 18.7749 22.6344 18.7774 22.5669 18.828L20.6462 20.2752C19.5963 19.8764 18.4754 19.6424 17.3203 19.5986L16.1168 17.5182C16.0744 17.4453 15.9908 17.4069 15.9079 17.4231L13.0766 17.9748C12.9936 17.9909 12.9305 18.0577 12.9186 18.1413L12.5841 20.5211C11.5299 20.9949 10.5787 21.6327 9.75528 22.3966L7.43186 21.776C7.35038 21.7541 7.26423 21.7864 7.21721 21.8564L5.60521 24.2483C5.55819 24.3183 5.56034 24.4102 5.61131 24.4777L7.05856 26.3984C6.65978 27.4483 6.42575 28.5693 6.38232 29.7243L4.3019 30.9279C4.22903 30.9702 4.19063 31.0538 4.20678 31.1368L4.75847 33.9681C4.77462 34.051 4.84139 34.1142 4.92502 34.126L7.30479 34.4606C7.7786 35.5148 8.41643 36.466 9.18026 37.2894L8.55965 39.6128C8.53775 39.6943 8.57042 39.7804 8.64005 39.8274L11.032 41.4394C11.102 41.4865 11.1939 41.4839 11.2614 41.4333L13.1821 39.9861C14.232 40.3849 15.353 40.6189 16.508 40.6627L17.7116 42.7431C17.7539 42.816 17.8375 42.8544 17.9205 42.8382L20.7518 42.2865C20.8347 42.2704 20.8979 42.2036 20.9097 42.12L21.2442 39.7402C22.2985 39.2664 23.2496 38.6286 24.0731 37.8647L26.3965 38.4854C26.478 38.5072 26.5641 38.4749 26.6115 38.4049L28.2235 36.013C28.2705 35.943 28.268 35.8511 28.2174 35.7836L26.7701 33.8629C27.1689 32.813 27.4029 31.692 27.4464 30.537L29.5268 29.3334C29.5997 29.2915 29.6381 29.2075 29.6219 29.1245L29.0702 26.2932C29.0541 26.2103 28.9873 26.1471 28.9037 26.1353L26.5239 25.8008C26.0501 24.7465 25.4123 23.7954 24.6484 22.9719L25.2687 20.6485C25.2906 20.567 25.2583 20.4809 25.1883 20.4335L22.7963 18.8215V18.8219Z" fill="#91B3FA"/>
<path d="M16.078 27.3547C17.4312 26.9458 18.9194 27.5808 19.5386 28.897C20.2191 30.3439 19.5957 32.0744 18.1491 32.7549C17.4481 33.0848 16.661 33.1218 15.9323 32.859C15.2037 32.5966 14.6207 32.0661 14.2912 31.3651C13.6107 29.9182 14.2342 28.1878 15.6807 27.5072C15.811 27.4458 15.9442 27.3952 16.078 27.3547ZM17.5529 32.261C17.6574 32.2294 17.76 32.1903 17.8609 32.1429C18.97 31.6214 19.4481 30.294 18.9262 29.1849C18.4043 28.0758 17.0777 27.5973 15.9682 28.1196C14.8591 28.6411 14.381 29.9685 14.9029 31.0776C15.1556 31.6149 15.6024 32.0216 16.1613 32.223C16.6154 32.3866 17.0992 32.3985 17.5533 32.2614L17.5529 32.261Z" fill="#BDD0FB"/>
<path d="M14.8098 23.3629C15.042 23.2925 15.2792 23.2337 15.5208 23.1866C15.5969 23.1719 15.673 23.1583 15.7495 23.1457C16.1263 23.0847 16.5079 23.0538 16.8877 23.0535C16.8927 23.0535 16.8981 23.0535 16.9031 23.0535C16.9178 23.0535 16.9325 23.0535 16.9472 23.0535C16.976 23.0535 17.0043 23.0542 17.033 23.0545C17.108 23.056 17.1709 23.1062 17.1917 23.1744C17.1967 23.1909 17.1992 23.2089 17.1989 23.2268C17.1971 23.3202 17.1195 23.3941 17.0266 23.3923C16.5459 23.3826 16.0614 23.425 15.5858 23.5176C13.2236 23.9774 11.3855 25.6174 10.5631 27.7061C10.1055 28.8676 9.96262 30.1684 10.2185 31.4821C10.2634 31.7125 10.3194 31.939 10.3865 32.1605C10.8374 33.6523 11.7796 34.9326 13.089 35.8152C14.5933 36.8289 16.4024 37.1964 18.1827 36.8493C21.8597 36.1325 24.266 32.5604 23.5503 28.8848C23.5062 28.6583 23.4509 28.4347 23.3845 28.215C23.097 27.2635 22.6045 26.3855 21.939 25.6457C21.9218 25.6267 21.9099 25.6048 21.9028 25.5815C21.8845 25.5208 21.9013 25.4519 21.9516 25.4067C22.0212 25.3446 22.1278 25.3496 22.1903 25.4192C22.8888 26.196 23.406 27.1177 23.7079 28.1167C23.7775 28.3471 23.8357 28.5819 23.8823 28.8195C24.6339 32.6785 22.1052 36.4294 18.2477 37.1806C16.3783 37.545 14.4792 37.1591 12.9002 36.0948C11.5254 35.1684 10.5362 33.8242 10.0628 32.2581C9.99241 32.0255 9.93355 31.7879 9.88652 31.546C9.52256 29.6766 9.90806 27.7775 10.9723 26.1981C11.8991 24.823 13.2441 23.8338 14.8101 23.3607L14.8098 23.3629Z" fill="#BDD0FB"/>
<g opacity="0.3">
<path d="M42.5276 8.36632C42.6356 8.33365 42.7566 8.37421 42.8216 8.47364C42.9429 8.65921 43.0602 8.85089 43.1701 9.04364C43.2415 9.16891 43.1981 9.32828 43.0728 9.39971C42.9475 9.47185 42.7882 9.4277 42.7167 9.30243C42.6119 9.11902 42.4999 8.93596 42.3844 8.759C42.3054 8.63839 42.3395 8.47651 42.4601 8.39754C42.4816 8.38355 42.5043 8.37314 42.5276 8.36632Z" fill="#7D97F4"/>
<path d="M43.467 10.1415C43.5937 10.1031 43.7311 10.1663 43.7832 10.2912C43.93 10.6433 44.0606 11.0073 44.1708 11.3727C44.1942 11.4495 44.2164 11.5271 44.2383 11.6049C44.2771 11.7439 44.187 11.8849 44.0571 11.9269C43.9181 11.9657 43.7742 11.8846 43.7354 11.7457C43.7146 11.6714 43.6934 11.5971 43.6712 11.5238C43.566 11.1757 43.4415 10.8286 43.3015 10.4926C43.2458 10.3594 43.309 10.2065 43.4418 10.1509C43.4504 10.1476 43.4587 10.1444 43.467 10.1419V10.1415ZM44.196 12.7528C44.2078 12.7492 44.22 12.7464 44.2326 12.7446C44.3751 12.723 44.5082 12.821 44.5301 12.9639C44.5994 13.4212 44.6411 13.8871 44.654 14.3483C44.6579 14.4926 44.5434 14.6125 44.4002 14.6165C44.2559 14.6204 44.136 14.507 44.1321 14.3627C44.1199 13.923 44.0804 13.4786 44.014 13.0421C43.9942 12.9122 44.0739 12.7902 44.1963 12.7532L44.196 12.7528ZM44.2695 15.4628C44.3011 15.4531 44.3352 15.4496 44.3704 15.4528C44.514 15.4668 44.6188 15.5946 44.6048 15.7381C44.5599 16.1979 44.486 16.6599 44.3844 17.1115C44.3528 17.2525 44.2136 17.3405 44.0721 17.3089C43.9314 17.2773 43.8431 17.1377 43.8747 16.9969C43.9716 16.5666 44.0423 16.1262 44.0851 15.6875C44.0958 15.5791 44.1712 15.4926 44.2695 15.4628ZM43.6748 18.1082C43.7265 18.0924 43.7835 18.0928 43.8381 18.1125C43.9738 18.1614 44.0445 18.311 43.9957 18.4467C43.8392 18.8825 43.6543 19.3118 43.4461 19.7238C43.3808 19.8523 43.2236 19.9036 43.0955 19.8387C42.9666 19.7737 42.9153 19.6165 42.9802 19.4876C43.1787 19.0953 43.3553 18.6854 43.5043 18.2701C43.5334 18.189 43.5983 18.1316 43.6748 18.1082ZM42.4522 20.5282C42.5244 20.5063 42.6059 20.516 42.6733 20.5612C42.7929 20.6416 42.8248 20.8035 42.7448 20.9234C42.4874 21.3071 42.2038 21.679 41.902 22.0279C41.8076 22.1373 41.6428 22.1492 41.5337 22.0548C41.4246 21.9604 41.4127 21.7953 41.5068 21.6865C41.7947 21.3534 42.0653 20.9988 42.3108 20.6327C42.346 20.5806 42.3962 20.5451 42.4522 20.5282ZM40.6794 22.5778C40.7731 22.5494 40.879 22.5752 40.949 22.6528C41.0455 22.7597 41.0373 22.9249 40.9303 23.0214C40.5872 23.3312 40.2218 23.6226 39.8438 23.8868C39.725 23.9694 39.5628 23.9407 39.4802 23.8226C39.3977 23.7045 39.4264 23.5415 39.5445 23.459C39.9048 23.2066 40.2534 22.9292 40.5804 22.6337C40.6098 22.6068 40.6439 22.5885 40.6798 22.5778H40.6794ZM38.4601 24.1313C38.5771 24.0957 38.7067 24.147 38.7663 24.259C38.8338 24.3865 38.7849 24.5444 38.6575 24.6119C38.2505 24.8272 37.8241 25.02 37.3912 25.1847C37.2551 25.2339 37.1055 25.1679 37.0541 25.0333C37.0028 24.8987 37.0706 24.7479 37.2056 24.6966C37.6191 24.5397 38.0254 24.3559 38.4134 24.1506C38.4289 24.1427 38.4443 24.1363 38.4601 24.1316V24.1313ZM34.5889 25.3351C34.6033 25.3308 34.6184 25.3276 34.6342 25.3258C35.0121 25.2813 35.3944 25.2149 35.7702 25.1291C35.8273 25.1165 35.8829 25.1033 35.9385 25.0896C36.0785 25.0552 36.2199 25.1406 36.2544 25.2809C36.2892 25.4213 36.2038 25.567 36.0635 25.5972C36.0042 25.6115 35.945 25.6259 35.8851 25.6392C35.4924 25.7289 35.0914 25.7982 34.6952 25.8448C34.552 25.8617 34.422 25.7594 34.4051 25.6162C34.3901 25.4888 34.4698 25.3717 34.5886 25.3359L34.5889 25.3351Z" fill="#7D97F4"/>
</g>
<g opacity="0.3">
<path d="M29.9704 3.89315C30.1068 3.85187 30.2514 3.92797 30.2949 4.06436C30.3383 4.20184 30.2622 4.34864 30.1247 4.39208C29.7109 4.52309 29.3013 4.6803 28.9076 4.85942C28.7766 4.91756 28.6215 4.86157 28.5616 4.7302C28.5016 4.59882 28.5598 4.44412 28.6908 4.38418C29.1036 4.19645 29.5328 4.03134 29.9668 3.89422C29.9679 3.89422 29.969 3.89351 29.9704 3.89315ZM31.2658 3.56759C31.2748 3.56472 31.2838 3.56256 31.2935 3.56077C31.74 3.47642 32.1965 3.41863 32.6499 3.38848C32.7938 3.37915 32.918 3.4879 32.9277 3.63184C32.9374 3.77577 32.8276 3.89997 32.6847 3.91002C32.2522 3.93873 31.8168 3.99401 31.3904 4.07441C31.2486 4.10133 31.1122 4.00801 31.0856 3.86623C31.0605 3.73378 31.1402 3.606 31.2662 3.56795L31.2658 3.56759ZM27.5443 4.99868C27.6552 4.9653 27.7787 5.00873 27.8422 5.11211C27.9176 5.23487 27.8792 5.39567 27.7561 5.47105C27.386 5.69862 27.0267 5.94988 26.6879 6.21944C26.5745 6.30882 26.4108 6.29051 26.321 6.17744C26.2313 6.06474 26.25 5.90034 26.363 5.81061C26.718 5.52848 27.0949 5.26466 27.4829 5.02632C27.5027 5.01412 27.5231 5.00515 27.5443 4.99868ZM33.9277 3.39278C33.9561 3.38417 33.9866 3.38022 34.0178 3.38202C34.4719 3.4075 34.9292 3.4617 35.3764 3.54246C35.5182 3.56795 35.6126 3.70399 35.5871 3.84577C35.5613 3.98719 35.4256 4.08159 35.2838 4.05611C34.8574 3.97893 34.4216 3.92761 33.9884 3.9032C33.8444 3.89494 33.7342 3.77183 33.7425 3.62789C33.749 3.51554 33.8258 3.42365 33.9277 3.39278ZM25.4578 6.65807C25.5465 6.6315 25.6462 6.65268 25.7166 6.72196C25.8196 6.82318 25.8207 6.98865 25.7195 7.09131C25.4154 7.4 25.1272 7.73058 24.8627 8.07409C24.7747 8.18859 24.6107 8.20976 24.4966 8.12147C24.3824 8.03352 24.3609 7.86949 24.4492 7.75535C24.7266 7.39533 25.0289 7.04859 25.3476 6.72483C25.3795 6.69252 25.4176 6.67027 25.4582 6.65807H25.4578ZM23.83 8.76935C23.8978 8.74889 23.9732 8.75571 24.0389 8.79484C24.1627 8.86842 24.2037 9.02887 24.1301 9.1527C23.9083 9.52636 23.7072 9.91653 23.5328 10.3124C23.4747 10.4445 23.3203 10.5041 23.1886 10.446C23.0565 10.3878 22.9969 10.2338 23.0551 10.1017C23.2381 9.68645 23.4488 9.27761 23.681 8.88601C23.7159 8.8275 23.7697 8.78766 23.83 8.76935ZM22.755 11.2101C22.8027 11.1958 22.8548 11.1947 22.9061 11.2101C23.0443 11.2518 23.1222 11.3975 23.0805 11.5357C22.9545 11.9514 22.853 12.3781 22.779 12.8046C22.7543 12.9463 22.6189 13.0418 22.4772 13.0171C22.335 12.9923 22.2399 12.8573 22.2647 12.7152C22.3426 12.2683 22.4488 11.8203 22.5809 11.3842C22.6075 11.2974 22.6749 11.2346 22.7557 11.2101H22.755Z" fill="#7D97F4"/>
<path d="M36.565 3.86986C36.6131 3.85514 36.6662 3.85442 36.7179 3.87058C36.9314 3.93698 37.1436 4.00985 37.3493 4.08738C37.4842 4.13835 37.5524 4.2891 37.5014 4.42406C37.4501 4.55867 37.3001 4.62686 37.1648 4.57625C36.9688 4.50231 36.766 4.43268 36.5625 4.36915C36.4246 4.32643 36.3478 4.17998 36.3909 4.04215C36.4178 3.95636 36.4849 3.89391 36.565 3.86986Z" fill="#7D97F4"/>
</g>
<path d="M37.3321 7.16183C37.2855 7.13025 37.2237 7.13204 37.1789 7.16578L35.8935 8.1342C35.1911 7.86751 34.4409 7.71065 33.6681 7.68158L32.8626 6.28961C32.8343 6.24079 32.7783 6.21531 32.723 6.22608L30.8285 6.59507C30.7732 6.60583 30.7309 6.6507 30.723 6.70634L30.499 8.29896C29.7937 8.61626 29.1573 9.04304 28.6059 9.55381L27.0514 9.13852C26.9968 9.12416 26.939 9.1457 26.9074 9.19236L25.8288 10.7929C25.7972 10.8395 25.799 10.9013 25.8328 10.9465L26.8012 12.2319C26.5345 12.9343 26.3776 13.6845 26.3486 14.4573L24.9566 15.2624C24.9078 15.2908 24.8823 15.3468 24.8931 15.402L25.2621 17.2965C25.2728 17.3518 25.3177 17.3945 25.3733 17.402L26.9659 17.626C27.2829 18.3313 27.71 18.9677 28.2208 19.5187L27.8055 21.0736C27.7912 21.1282 27.8127 21.186 27.8594 21.2172L29.4602 22.2958C29.5069 22.3274 29.5686 22.3256 29.6135 22.2919L30.8989 21.3235C31.6013 21.5902 32.3515 21.747 33.1243 21.7761L33.9298 23.1681C33.9581 23.2169 34.0141 23.2424 34.0694 23.2316L35.9639 22.8626C36.0191 22.8518 36.0615 22.807 36.0694 22.7513L36.2934 21.1587C36.9987 20.8418 37.6351 20.4146 38.1864 19.9039L39.741 20.3192C39.7956 20.3339 39.8533 20.312 39.8849 20.2653L40.9635 18.6648C40.9951 18.6181 40.9933 18.5564 40.9596 18.5112L39.9912 17.2258C40.2579 16.5234 40.4147 15.7732 40.4438 15.0004L41.8358 14.1953C41.8846 14.1669 41.9101 14.1109 41.8993 14.0556L41.5303 12.1612C41.5195 12.1059 41.4747 12.0635 41.419 12.0556L39.8264 11.8316C39.5095 11.1263 39.0827 10.4899 38.5716 9.9386L38.9869 8.38403C39.0016 8.32947 38.9797 8.27168 38.933 8.24009L37.3325 7.16147L37.3321 7.16183Z" fill="#91B3FA"/>
<path d="M32.8293 12.837C33.2324 12.7153 33.6624 12.7257 34.0658 12.8711C34.5623 13.0498 34.9592 13.4113 35.1836 13.8887C35.647 14.874 35.2227 16.0527 34.2371 16.5165C33.2496 16.9788 32.0727 16.5552 31.6089 15.5699C31.3842 15.0925 31.3591 14.5563 31.5378 14.0599C31.7166 13.5635 32.078 13.1665 32.5554 12.9418C32.6448 12.8998 32.736 12.865 32.8286 12.837H32.8293ZM33.8157 16.1202C33.8828 16.0997 33.9496 16.0746 34.0149 16.0437C34.7396 15.7024 35.0519 14.8355 34.7109 14.1105C34.5458 13.7594 34.2536 13.4935 33.8885 13.3621C33.5231 13.2307 33.129 13.2494 32.7776 13.4141C32.4266 13.5793 32.1606 13.8714 32.0292 14.2365C31.8978 14.6019 31.9162 14.996 32.0816 15.3474C32.3917 16.0068 33.1376 16.3248 33.8157 16.1202Z" fill="#BDD0FB"/>
<path d="M31.9499 10.0574C32.1082 10.0097 32.2701 9.96946 32.4355 9.93716C32.7643 9.87291 33.0996 9.8424 33.4337 9.84599C33.4488 9.84599 33.4639 9.8467 33.4786 9.8467C33.5945 9.84886 33.6915 9.92639 33.7234 10.0319C33.7313 10.0574 33.7349 10.085 33.7345 10.113C33.7317 10.2573 33.6121 10.3711 33.4682 10.3686C33.1566 10.3625 32.8429 10.3898 32.5357 10.4497C32.5188 10.453 32.5019 10.4565 32.4851 10.4601C31.7596 10.6087 31.0985 10.9325 30.5468 11.3973C30.2474 11.6497 29.98 11.944 29.7524 12.2753C29.7507 12.2778 29.7489 12.2807 29.7471 12.2832C29.7413 12.2914 29.7359 12.2997 29.7302 12.308C29.0741 13.2818 28.8361 14.453 29.0608 15.6055C29.0898 15.7549 29.1261 15.9013 29.1695 16.0449C29.4613 17.0104 30.0712 17.8396 30.9194 18.411C31.8932 19.0672 33.0644 19.3048 34.217 19.0804C35.3688 18.8557 36.3659 18.196 37.0224 17.2222C37.6786 16.2484 37.9165 15.0772 37.6919 13.9246C37.6635 13.7778 37.6272 13.6332 37.5845 13.491C37.3982 12.8751 37.0795 12.3065 36.6488 11.8277C36.6222 11.7983 36.6035 11.7645 36.5931 11.7286C36.5648 11.6349 36.5906 11.5287 36.6685 11.4591C36.7758 11.3629 36.9406 11.3711 37.0375 11.4788C37.5192 12.0147 37.8763 12.6504 38.0845 13.3396C38.1326 13.4986 38.1728 13.6604 38.2048 13.8245C38.456 15.1142 38.1901 16.4243 37.4557 17.514C36.7213 18.6034 35.6078 19.3425 34.3175 19.593C33.0278 19.8443 31.7176 19.5783 30.6283 18.8439C29.6796 18.2046 28.9972 17.2771 28.671 16.1971C28.6225 16.0366 28.5816 15.8726 28.5493 15.706C28.0629 13.2093 29.5669 10.7782 31.9513 10.0578L31.9499 10.0574Z" fill="#BDD0FB"/>
<mask id="mask0_602_1824" style="mask-type:luminance" maskUnits="userSpaceOnUse" x="2" y="30" width="97" height="72">
<path d="M98.6003 30.5979H2.31055V101.113H98.6003V30.5979Z" fill="white"/>
</mask>
<g mask="url(#mask0_602_1824)">
<path d="M90.6697 148.776C82.9697 140.336 64.0155 121.959 43.1966 114.33C41.4643 113.695 40.0548 112.4 39.2569 110.736L36.1423 104.244C36.1423 104.244 20.9617 100.687 11.6084 110.48C11.6084 110.48 12.1784 119.796 23.9258 123.202C34.8921 126.381 67.3874 139.289 86.5541 153.752C86.9938 154.084 87.6036 154.1 88.0387 153.762C89.5624 152.58 90.5171 151.105 90.9231 150.065C91.0954 149.624 90.9881 149.125 90.669 148.775L90.6697 148.776Z" fill="url(#paint0_linear_602_1824)"/>
<path d="M9.95801 110.356C9.95801 110.356 13.0549 111.711 18.364 109.257C23.6731 106.803 38.109 106.558 38.109 106.558C38.109 106.558 33.4324 89.0554 43.8248 76.5331C43.8248 76.5331 52.1952 92.2005 58.0776 94.5386L60.7125 94.6596V83.4825C60.7125 83.4825 58.4781 69.6845 44.3445 59.3808L39.9439 55.4145C39.9439 55.4145 24.47 52.2946 13.9469 70.7534C3.42422 89.2123 9.95801 110.356 9.95801 110.356V110.356Z" fill="url(#paint1_linear_602_1824)"/>
<path d="M61.6025 62.0925C61.7497 61.3169 61.8053 59.5024 59.9338 57.291C57.4302 54.3323 54.2181 55.8409 54.2181 55.8409C51.372 57.4346 50.1699 62.6385 50.1699 62.6385L53.1789 61.0326C53.6348 62.3564 58.0785 63.7839 58.0785 63.7839L58.1032 63.7745C58.1463 66.6529 58.0767 75.0478 56.035 80.8867C55.2353 83.1742 53.6086 87.424 58.9794 94.7069L61.9385 94.586C61.9385 94.586 68.5692 83.33 61.6022 62.0929L61.6025 62.0925Z" fill="url(#paint2_linear_602_1824)"/>
<path d="M46.5598 45.0297L38.3196 56.6651C37.7841 57.4214 37.857 58.4472 38.4905 59.1235C39.6007 60.3087 41.4729 61.9785 43.4913 62.3597C44.118 62.4781 44.7554 62.215 45.1036 61.6806L49.4859 54.9537C49.4859 54.9537 50.3251 44.3865 46.5598 45.0297Z" fill="url(#paint3_linear_602_1824)"/>
<path d="M52.0318 37.4669C52.1692 37.65 56.6269 52.1049 56.6269 52.1049L48.3192 54.4749L42.0586 41.4023C42.0586 41.4023 49.7327 34.4034 52.0318 37.4669Z" fill="url(#paint4_linear_602_1824)"/>
<path d="M45.3559 43.5484L47.9998 50.3959C48.0576 50.5452 48.137 50.683 48.2364 50.8083C48.6804 51.3654 49.9711 52.6777 51.4004 51.2731C52.4834 50.2092 53.5042 49.2315 54.4769 48.7426C55.3337 48.3119 56.3718 48.7814 56.6449 49.701C57.0545 51.079 57.6995 53.4451 58.0362 55.7003C58.1578 56.5155 57.6237 57.2857 56.8172 57.4545C55.1262 57.8084 52.175 58.3245 49.5896 58.2642C49.0164 58.2509 48.502 57.9128 48.2475 57.3988C47.2906 55.4645 44.8875 50.6633 43.9833 49.3844C43.152 48.2085 41.2747 48.2153 40.3174 48.3054C39.8731 48.3474 39.4348 48.1988 39.1092 47.893C38.3461 47.1766 37.3235 45.7322 38.7797 43.9382C39.2862 43.3144 39.2438 42.4271 38.6864 41.8481C37.8806 41.0114 37.213 39.6758 38.4858 37.9981C39.8343 36.2206 41.6574 36.3168 42.886 36.6696C43.4851 36.8416 44.0967 36.5792 44.4901 36.0957C44.605 35.955 44.7676 35.847 44.9977 35.81C45.7486 35.689 46.3257 35.1111 46.3469 34.3513C46.3785 33.2278 46.8638 31.9216 48.7177 31.2848C52.3409 30.0404 54.7235 33.5063 55.0261 36.1352C55.3287 38.7644 51.324 39.8901 48.9467 39.7813C47.2992 39.7059 46.0842 41.2171 45.4934 42.1517C45.2288 42.5699 45.1775 43.0864 45.3555 43.5484H45.3559Z" fill="url(#paint5_linear_602_1824)"/>
<path d="M45.013 51.9737C45.013 51.9737 44.2894 47.4151 42.3791 47.2464C40.4692 47.0777 38.6619 48.6958 40.6292 51.2091C43.0761 54.3351 45.013 51.9737 45.013 51.9737Z" fill="url(#paint6_linear_602_1824)"/>
<path d="M24.3391 57.1049C24.3391 57.1049 7.72911 67.6986 4.09268 79.9981C0.456259 92.2975 8.59487 94.7172 16.3437 95.8069L16.927 86.4152C16.927 86.4152 11.4987 86.4152 14.9614 81.2817C18.4241 76.1481 27.7296 72.7256 27.7296 72.7256C27.7296 72.7256 51.307 50.4799 24.3394 57.1052L24.3391 57.1049Z" fill="url(#paint7_linear_602_1824)"/>
<path d="M16.9267 86.6288C16.8316 86.6288 14.5882 86.6123 13.8319 85.1898C13.3158 84.2189 13.636 82.8635 14.7842 81.1618C18.2458 76.0296 27.2732 72.6653 27.6558 72.5246C27.7667 72.484 27.8898 72.5407 27.9304 72.6516C27.971 72.7626 27.9142 72.8853 27.8037 72.9262C27.7111 72.9603 18.5229 76.3846 15.1388 81.4012C14.0868 82.9611 13.7738 84.1679 14.2092 84.9881C14.8441 86.1844 16.9063 86.2013 16.9271 86.2013C17.0452 86.2013 17.1406 86.2971 17.1406 86.4156C17.1406 86.5337 17.0448 86.6291 16.9267 86.6291V86.6288Z" fill="url(#paint8_linear_602_1824)"/>
<path d="M16.3431 95.8066C16.3431 95.8066 13.9166 91.7958 17.1123 87.0039L38.5636 90.5556C38.5636 90.5556 48.8318 88.8184 49.3229 88.8535C49.8139 88.8887 56.5153 93.0165 56.5153 93.0165C56.5153 93.0165 56.2903 93.495 54.6955 93.4067C53.1007 93.3184 54.1478 93.5994 54.1478 93.5994L54.09 94.4049C54.09 94.4049 52.9798 94.6594 52.0892 93.7121C51.1987 92.7649 48.7234 92.3062 48.7234 92.3062C48.7234 92.3062 43.4621 96.1939 38.2937 94.3127L16.3431 95.8062V95.8066Z" fill="url(#paint9_linear_602_1824)"/>
<path d="M47.5541 163.474C47.3862 163.474 47.2157 163.44 47.0513 163.368C46.4048 163.083 46.1062 162.315 46.3844 161.653L73.1053 98.0252C73.3835 97.3633 74.1319 97.0579 74.7791 97.3421C75.4255 97.6271 75.7241 98.3946 75.446 99.0568L48.725 162.685C48.5175 163.179 48.0477 163.474 47.5541 163.474Z" fill="url(#paint10_linear_602_1824)"/>
<path d="M77.6561 163.475C77.1622 163.475 76.6923 163.179 76.4852 162.685L49.7642 99.0569C49.4861 98.3947 49.7847 97.6273 50.4311 97.3423C51.0772 97.0573 51.8267 97.3631 52.1049 98.0253L78.8258 161.653C79.104 162.315 78.8054 163.083 78.1589 163.368C77.9949 163.44 77.824 163.475 77.6561 163.475Z" fill="url(#paint11_linear_602_1824)"/>
<path d="M97.4221 96.1253C97.4609 95.7308 97.4081 95.323 97.2778 95.0129C97.1479 94.7032 96.954 94.5237 96.7498 94.5237H27.5109C27.2421 94.5237 26.9919 94.7929 26.8469 95.238C26.7022 95.6831 26.6825 96.2426 26.7952 96.7222L27.5454 99.9142C27.7173 100.645 28.0895 101.113 28.4991 101.113H96.2738C96.655 101.113 96.9824 100.582 97.0549 99.8464L97.4214 96.1249L97.4221 96.1253Z" fill="url(#paint12_linear_602_1824)"/>
</g>
<path d="M67.4733 19.2728C58.4086 23.6002 52.4534 32.6064 59.4922 32.1857C72.707 31.3964 63.788 38.7568 70.7378 38.54C77.688 38.3236 88.4458 36.8412 95.485 29.5471C102.524 22.2531 95.6817 20.5097 92.8288 20.7919C83.435 21.7215 95.8662 5.71743 67.4729 19.2725L67.4733 19.2728Z" fill="#BDD0FB"/>
<path d="M64.4025 42.1244C64.4216 43.151 65.1768 44.8355 66.8728 44.8043C68.5688 44.7731 70.5634 43.0376 70.5444 42.011C70.5253 40.9844 69.1352 40.1779 67.4392 40.2091C65.7432 40.2404 64.3835 41.0979 64.4025 42.1241V42.1244Z" fill="#BDD0FB"/>
<path d="M61.8565 46.2613C61.8655 46.7584 62.3027 47.1533 62.8328 47.1436C63.363 47.1339 64.4115 46.6055 64.4021 46.1084C64.3932 45.6112 63.7356 45.1145 63.2054 45.1242C62.6753 45.1339 61.8472 45.7642 61.8565 46.2613Z" fill="#BDD0FB"/>
<path d="M81.422 27.426C81.408 27.2537 81.2322 27.1047 80.9346 26.9852C81.2584 26.8068 81.4375 26.6155 81.422 26.4278C81.3761 25.8599 79.5785 25.5419 77.4066 25.7171C75.2346 25.8922 73.511 26.4945 73.5566 27.062C73.5706 27.2343 73.7465 27.3833 74.044 27.5028C73.7203 27.6812 73.5412 27.8725 73.5566 28.0602C73.5706 28.2325 73.7465 28.3815 74.044 28.501C73.7203 28.6794 73.5412 28.8707 73.5566 29.0584C73.5706 29.2307 73.7465 29.3797 74.044 29.4992C73.7203 29.6776 73.5412 29.8689 73.5566 30.0567C73.5767 30.3076 73.9403 30.51 74.5268 30.6424C74.5193 30.828 74.5236 31.0315 74.5415 31.2559C74.6266 32.3018 75.8032 33.122 77.3596 33.122C78.9159 33.122 80.263 32.0035 80.2781 30.9544C80.2817 30.697 80.2709 30.4709 80.2476 30.2695C80.9924 30.0208 81.4457 29.7171 81.422 29.4224C81.408 29.2501 81.2322 29.1012 80.9346 28.9816C81.2584 28.8032 81.4375 28.6119 81.422 28.4242C81.408 28.2519 81.2322 28.1029 80.9346 27.9834C81.2584 27.805 81.4375 27.6137 81.422 27.426Z" fill="url(#paint13_linear_602_1824)"/>
<path d="M76.4019 30.8677C75.7568 30.8677 75.1667 30.8203 74.6789 30.727C74.6506 30.7216 74.6323 30.6944 74.6377 30.666C74.643 30.6376 74.6703 30.6193 74.6987 30.6247C75.4618 30.7708 76.4808 30.8031 77.5684 30.7152C78.4582 30.6434 79.2906 30.4998 79.9755 30.2999C80.0031 30.292 80.0322 30.3078 80.0401 30.3354C80.048 30.3631 80.0322 30.3921 80.0045 30.4C79.3132 30.6018 78.4737 30.7468 77.5767 30.8189C77.1725 30.8516 76.778 30.8677 76.4019 30.8677Z" fill="url(#paint14_linear_602_1824)"/>
<path d="M76.4119 29.8689C75.5738 29.8689 74.8247 29.7899 74.2967 29.6395C74.269 29.6316 74.2529 29.6029 74.2608 29.5749C74.2687 29.5473 74.2974 29.5311 74.3254 29.539C75.0781 29.7533 76.2902 29.8197 77.5681 29.7167C78.8319 29.6148 80.0103 29.3585 80.721 29.0308C80.7472 29.0186 80.7781 29.03 80.7903 29.0562C80.8025 29.0824 80.791 29.1133 80.7648 29.1255C80.0437 29.4579 78.852 29.7178 77.5767 29.8208C77.1786 29.8527 76.7867 29.8685 76.4126 29.8685L76.4119 29.8689Z" fill="url(#paint15_linear_602_1824)"/>
<path d="M76.4015 28.8713C75.4966 28.8713 74.7047 28.7787 74.1717 28.6028C74.1444 28.5938 74.1294 28.5644 74.1383 28.5371C74.1473 28.5098 74.1767 28.4948 74.2044 28.5037C74.946 28.7482 76.2037 28.8286 77.568 28.7187C78.8318 28.6168 80.0102 28.3605 80.7209 28.0328C80.7472 28.021 80.778 28.0321 80.7902 28.0583C80.8024 28.0845 80.7909 28.1154 80.7647 28.1276C80.0436 28.4599 78.8519 28.7202 77.5766 28.8228C77.1725 28.8555 76.7773 28.8713 76.4018 28.8713H76.4015Z" fill="url(#paint16_linear_602_1824)"/>
<path d="M76.4084 27.8728C75.6905 27.8728 75.0376 27.8147 74.5301 27.702C74.5021 27.6959 74.4841 27.6679 74.4906 27.6399C74.4967 27.6119 74.5247 27.594 74.5527 27.6004C75.3158 27.7698 76.4149 27.814 77.5678 27.721C78.8201 27.6202 79.9928 27.3664 80.7045 27.0423C80.7308 27.0304 80.7616 27.0419 80.7735 27.0681C80.7853 27.0943 80.7738 27.1252 80.7476 27.137C80.0254 27.4658 78.8399 27.7228 77.576 27.8247C77.1765 27.8571 76.7835 27.8728 76.408 27.8728H76.4084Z" fill="url(#paint17_linear_602_1824)"/>
<path d="M72.099 22.3876C71.8352 21.4533 71.3872 20.58 70.7838 19.8194C69.4909 18.1898 67.3814 14.8757 67.1219 10.3527C66.744 3.77367 72.5789 0.479675 77.9034 0.926915C83.2279 1.37415 88.4818 5.33865 87.9067 11.4593C87.5528 15.2253 85.4448 18.0818 83.8755 19.7225C82.8791 20.7641 82.168 22.0401 81.7832 23.4296C81.3123 25.1303 80.1913 27.2495 77.5273 27.3787C74.08 27.5459 72.6482 24.3323 72.099 22.3883V22.3876Z" fill="url(#paint18_linear_602_1824)"/>
<path d="M78.4074 26.0663L80.2703 13.9488C80.3088 13.6986 80.4319 13.5303 80.5457 13.5734C80.6591 13.6164 80.7201 13.8541 80.6813 14.1046C80.6803 14.1114 80.6788 14.1197 80.6777 14.1261L78.5557 26.1309C78.5399 26.221 78.4939 26.2781 78.4534 26.2583C78.4139 26.2389 78.3942 26.1539 78.4074 26.0667V26.0663Z" fill="url(#paint19_linear_602_1824)"/>
<path d="M76.4741 26.1625L74.6112 14.045C74.5728 13.7948 74.4496 13.6265 74.3359 13.6696C74.2221 13.7126 74.1614 13.9503 74.2002 14.2004C74.2013 14.2073 74.2027 14.2155 74.2038 14.222L76.3258 26.2267C76.3416 26.3168 76.3876 26.3739 76.4281 26.3542C76.4676 26.3348 76.4874 26.2497 76.4741 26.1625Z" fill="url(#paint20_linear_602_1824)"/>
<path opacity="0.79" d="M80.2575 12.9083C80.2102 12.8322 80.1007 12.8039 80.0131 12.8448L78.9758 13.3294L78.6158 12.3035C78.5967 12.25 78.5526 12.2027 78.4898 12.1764C78.3706 12.1273 78.2277 12.1714 78.171 12.2748L78.1692 12.278L77.316 13.8337L76.5242 11.6194L76.5228 11.6158C76.5034 11.5616 76.4625 11.5131 76.4029 11.4808C76.2701 11.4083 76.0949 11.4428 76.0113 11.558L74.8185 13.1998C74.7701 13.2669 74.7866 13.3574 74.8605 13.4069C74.9395 13.46 75.0529 13.4478 75.1143 13.3793L76.1646 12.2077L77.11 14.3143L77.1107 14.3157C77.1258 14.3495 77.1545 14.3789 77.194 14.3976C77.2827 14.4392 77.3936 14.4105 77.4413 14.3337L78.3537 12.8696L78.6972 13.6101L78.7001 13.6165C78.7026 13.6219 78.7055 13.6269 78.7087 13.6323C78.7561 13.7084 78.8652 13.7368 78.9532 13.6958L80.1847 13.1205C80.2726 13.0795 80.3053 12.9844 80.2579 12.9083H80.2575Z" fill="white"/>
<path opacity="0.79" d="M83.9158 18.1051C83.8781 18.1051 83.8405 18.0936 83.8078 18.0692C83.727 18.0097 83.7105 17.8959 83.7701 17.8151C84.0885 17.3862 84.3803 16.9425 84.6377 16.4971C84.6876 16.4102 84.7988 16.3804 84.8857 16.4307C84.9726 16.4809 85.0024 16.5918 84.9521 16.6787C84.6879 17.1364 84.3882 17.5915 84.0616 18.0315C84.026 18.0796 83.9711 18.1048 83.9158 18.1048V18.1051Z" fill="white"/>
<path opacity="0.79" d="M85.449 15.4752C85.4249 15.4752 85.4002 15.4701 85.3768 15.4601C85.2849 15.4203 85.2426 15.3133 85.2828 15.2214C87.258 10.6726 85.5534 6.83763 85.5358 6.79923C85.4942 6.70806 85.5344 6.60037 85.6256 6.55874C85.7164 6.5171 85.8244 6.55694 85.8661 6.64811C85.8844 6.6876 87.6582 10.6629 85.6159 15.3661C85.5861 15.4343 85.5193 15.4752 85.4493 15.4752H85.449Z" fill="white"/>
<path d="M84.0773 59.8825C82.6068 56.3778 77.2797 45.7528 67.8565 49.0343C67.7179 49.0827 67.7337 49.2844 67.8784 49.3114C69.9563 49.6965 77.6555 51.6412 83.83 60.0214C83.9305 60.1578 84.143 60.0387 84.0773 59.8825Z" fill="#91B3FA"/>
<path d="M83.9964 60.1015C81.8779 58.1047 75.5699 50.3796 67.1926 53.9101C67.1007 53.9489 67.119 54.0853 67.2184 54.0957C69.2888 54.3146 79.5681 55.6165 83.9562 60.2709C84.0725 60.3944 84.1199 60.2178 83.9964 60.1015Z" fill="#91B3FA"/>
<path d="M83.7972 59.2246C83.5959 56.5831 82.4157 46.61 75.9928 44.5529C75.9458 44.5378 75.9059 44.5913 75.9343 44.6315C76.7082 45.723 82.3389 53.787 83.6971 59.2407C83.7122 59.3014 83.8023 59.2874 83.7972 59.2249V59.2246Z" fill="#91B3FA"/>
<path d="M84.4368 62.2515C84.4932 62.282 84.5484 62.2092 84.5029 62.1639C83.3682 61.0336 78.6704 56.88 72.7063 58.9252C65.9492 61.2422 77.7803 58.6399 84.4368 62.2515Z" fill="#91B3FA"/>
<path d="M84.2804 60.1819C84.2667 60.3793 83.986 60.403 83.9419 60.2099C83.2294 57.0771 81.7193 48.4381 86.1142 46.2407C91.316 43.6398 84.9868 49.9377 84.28 60.1819H84.2804Z" fill="#91B3FA"/>
<path d="M83.9773 60.1599C84.7157 58.236 87.5617 52.2628 93.4849 55.4904C93.5847 55.545 93.5524 55.6968 93.4386 55.704C92.1059 55.7876 87.6751 56.3627 84.1679 60.2737C84.0839 60.3673 83.9317 60.2776 83.977 60.1599H83.9773Z" fill="#91B3FA"/>
<path d="M84.1374 60.6426C84.4098 59.4545 85.8266 57.0723 93.0366 59.2542C93.0797 59.2672 93.0685 59.3321 93.0237 59.3275C91.6069 59.1803 86.8197 58.8551 84.473 60.8472C84.3222 60.9754 84.0932 60.835 84.1374 60.6423V60.6426Z" fill="#91B3FA"/>
<path d="M86.2123 93.157L86.2148 92.9136V92.6523L86.2109 92.129L86.2041 91.0816L86.1736 88.9872C86.1549 87.5909 86.1273 86.195 86.0978 84.7994C86.0343 82.0083 85.9543 79.2186 85.8268 76.4314C85.7019 73.6446 85.5296 70.8603 85.2615 68.0868C85.124 66.7006 84.9582 65.3172 84.7349 63.9443C84.5156 62.5713 84.2331 61.2048 83.7744 59.8933L83.899 59.8423C84.1721 60.4898 84.4112 61.1539 84.5914 61.8326L84.7321 62.3405C84.7762 62.5103 84.8143 62.6815 84.8555 62.8524L84.9776 63.3649L85.0856 63.88C85.3642 65.2555 85.5795 66.6421 85.7482 68.0329C85.9212 69.4235 86.0494 70.8183 86.1635 72.2139C86.2701 73.6098 86.3502 75.0072 86.4198 76.4045C86.4805 77.8026 86.5257 79.2007 86.5584 80.5991C86.5803 81.9975 86.6018 83.396 86.5943 84.7947C86.5928 86.1932 86.5716 87.5916 86.5365 88.9893L86.4622 91.0859L86.4162 92.134L86.385 92.6581L86.3674 92.9204C86.3599 93.0087 86.3577 93.0902 86.3405 93.2001L86.2131 93.1577L86.2123 93.157Z" fill="#91B3FA"/>
<path d="M88.6499 68.4653C89.6349 66.1174 93.2035 59 99.5162 61.1982C99.6091 61.2305 99.5984 61.3658 99.5014 61.3837C98.1095 61.6418 92.9519 62.9444 88.8154 68.5582C88.7479 68.6498 88.6058 68.5697 88.6499 68.4649V68.4653Z" fill="#91B3FA"/>
<path d="M88.7036 68.612C90.1228 67.2742 94.3483 62.0994 99.9603 64.4644C100.022 64.4903 100.009 64.5818 99.9431 64.5886C98.5561 64.7351 91.6702 65.6073 88.7309 68.7254C88.653 68.808 88.6214 68.6899 88.7039 68.612H88.7036Z" fill="#91B3FA"/>
<path d="M88.837 68.0248C88.972 66.2552 89.7624 59.5743 94.0654 58.1963C94.0966 58.1863 94.1235 58.2222 94.1045 58.2491C93.5862 58.9802 89.8141 64.3823 88.9042 68.0356C88.8941 68.0765 88.8338 68.0668 88.837 68.0248Z" fill="#91B3FA"/>
<path d="M88.409 70.0524C88.3713 70.0729 88.3343 70.024 88.3648 69.9935C89.125 69.2365 92.2719 66.454 96.2672 67.8241C100.793 69.3761 92.8681 67.6331 88.409 70.0524Z" fill="#91B3FA"/>
<path d="M88.5127 68.6663C88.5216 68.7988 88.7097 68.8142 88.7392 68.685C89.2166 66.5862 90.2281 60.7991 87.284 59.327C83.7994 57.5847 88.0392 61.8037 88.5127 68.6663Z" fill="#91B3FA"/>
<path d="M88.7166 68.6515C88.222 67.3629 86.3153 63.3614 82.3475 65.5233C82.2808 65.5599 82.3023 65.6615 82.3784 65.6665C83.2711 65.7225 86.2392 66.108 88.5888 68.7276C88.6451 68.7904 88.7471 68.7301 88.7166 68.6515Z" fill="#91B3FA"/>
<path d="M88.6097 68.975C88.4274 68.1792 87.478 66.583 82.6481 68.0449C82.619 68.0536 82.6269 68.0973 82.6567 68.0941C83.6057 67.9954 86.8129 67.7775 88.3847 69.1124C88.4855 69.1982 88.6392 69.1042 88.6094 68.975H88.6097Z" fill="#91B3FA"/>
<path d="M87.6787 93.1993C87.6647 93.111 87.6639 93.0518 87.6582 92.9854L87.6456 92.7891L87.6234 92.3971C87.6087 92.1358 87.5993 91.8745 87.5893 91.6132L87.5372 90.0453C87.5028 89.0001 87.5003 87.9541 87.4934 86.9086C87.4913 85.863 87.4895 84.8166 87.5096 83.7707C87.5315 82.7247 87.5566 81.6788 87.6018 80.6332C87.6485 79.5876 87.7041 78.542 87.7777 77.4975C87.8581 76.4533 87.9511 75.4092 88.0803 74.3683L88.1808 73.5879L88.2996 72.8097C88.3836 72.2914 88.4719 71.7738 88.5846 71.2602C88.636 71.0025 88.6941 70.7462 88.7594 70.491C88.7921 70.3636 88.8219 70.2358 88.8567 70.1087L88.9665 69.7293C89.1087 69.2228 89.2903 68.725 89.5039 68.2437L89.6284 68.2946C89.4698 68.7889 89.3262 69.286 89.2217 69.795L89.141 70.1755C89.1159 70.3025 89.0954 70.431 89.0728 70.5588L89.0032 70.9418L88.9425 71.3266C88.9023 71.5832 88.8621 71.8395 88.8301 72.0976C88.7964 72.3553 88.7558 72.6116 88.7286 72.8707C88.6665 73.3869 88.6119 73.9045 88.5577 74.4217C88.3585 76.4939 88.2138 78.5736 88.1112 80.6569C88.0096 82.7402 87.9403 84.826 87.8865 86.9129C87.8588 87.9563 87.8513 89.0001 87.8291 90.0443L87.81 91.6103L87.8054 92.3932L87.8036 92.7844L87.8057 93.157L87.6783 93.1993H87.6787Z" fill="#91B3FA"/>
<path d="M81.6443 72.8076C80.3859 70.7534 76.0797 64.6198 71.1665 67.7239C71.094 67.7695 71.1281 67.8955 71.2128 67.8966C72.4321 67.9127 77.0129 68.3007 81.5219 72.9224C81.5955 72.9978 81.7007 72.8991 81.6443 72.8076Z" fill="#91B3FA"/>
<path d="M81.6256 72.9552C80.1862 71.9247 75.6819 67.7315 71.3893 70.8784C71.3423 70.9128 71.3692 70.9972 71.4266 70.9929C72.6212 70.9049 78.5785 70.6045 81.6238 73.0668C81.7045 73.1322 81.7096 73.0155 81.6256 72.9552Z" fill="#91B3FA"/>
<path d="M81.4056 72.4224C80.9688 70.7749 79.0814 64.6004 75.2067 64.002C75.1783 63.9977 75.1625 64.0358 75.1834 64.058C75.7534 64.6632 79.9171 69.1449 81.351 72.4436C81.3672 72.4806 81.416 72.4616 81.4056 72.4224Z" fill="#91B3FA"/>
<path d="M82.1369 74.2656C82.1724 74.2788 82.1947 74.2264 82.1635 74.2027C81.3849 73.6123 78.2266 71.5003 75.1132 73.445C71.5859 75.6482 77.9402 72.7103 82.1369 74.2656Z" fill="#91B3FA"/>
<path d="M81.7962 72.9748C81.8127 73.1012 81.6573 73.1468 81.6088 73.0294C80.8234 71.127 78.9135 65.8319 81.1231 63.9626C83.7387 61.75 80.9401 66.4227 81.7962 72.9748Z" fill="#91B3FA"/>
<path d="M81.6223 72.9939C81.8032 71.6974 82.6769 67.6108 86.4131 69.0032C86.4763 69.0265 86.4763 69.1263 86.4131 69.1431C85.6715 69.3416 83.243 70.1895 81.7437 73.0448C81.7078 73.1134 81.6109 73.0732 81.622 72.9939H81.6223Z" fill="#91B3FA"/>
<path d="M81.7715 73.2817C81.7798 72.501 82.2869 70.8402 86.6211 71.4317C86.647 71.4353 86.6488 71.4776 86.6226 71.4794C85.8053 71.5412 83.0655 71.8588 81.9858 73.3746C81.9165 73.4719 81.7701 73.4084 81.7715 73.2817Z" fill="#91B3FA"/>
<path d="M86.8954 93.6056L86.773 92.9613L86.6427 92.3008L86.375 90.981L85.8222 88.3453C85.6337 87.4677 85.4396 86.5915 85.2396 85.7168C85.0447 84.841 84.8434 83.9666 84.6348 83.094C84.2159 81.3496 83.759 79.6155 83.264 77.8944L83.0756 77.2501L82.8796 76.6083C82.7486 76.1808 82.6151 75.7537 82.4672 75.3319C82.1703 74.4899 81.8627 73.6492 81.4492 72.8596L81.5644 72.7903C81.8092 73.1718 82.0293 73.5703 82.2213 73.9795C82.32 74.1833 82.418 74.3876 82.5031 74.5968C82.5924 74.8047 82.6786 75.0136 82.759 75.2243C83.0903 76.0645 83.3846 76.9181 83.6481 77.7799C84.1772 79.5032 84.6086 81.2519 85.0185 83.0036C85.2213 83.8801 85.4166 84.7577 85.6058 85.6371C85.787 86.518 85.9622 87.3999 86.1312 88.2829C86.2999 89.1659 86.4661 90.0496 86.6137 90.9362L86.834 92.2668L86.9378 92.9333L86.9862 93.2671L87.0096 93.4347C87.0164 93.4918 87.0257 93.5413 87.0297 93.6192L86.8958 93.606L86.8954 93.6056Z" fill="#91B3FA"/>
<path d="M83.7742 84.8701H89.5133C89.8895 84.8701 90.1677 85.4369 90.0833 86.0309C89.7161 88.6081 89.2761 91.2226 88.3755 93.8766C88.2093 94.367 87.8923 94.6742 87.547 94.6742H85.6745C85.3345 94.6742 85.0223 94.3716 84.8611 93.8863C84.1396 91.7147 83.4458 89.1261 83.103 86.1881C83.0233 85.5044 83.3446 84.8701 83.7742 84.8701Z" fill="url(#paint21_linear_602_1824)"/>
<defs>
<linearGradient id="paint0_linear_602_1824" x1="85.9586" y1="120.501" x2="32.2123" y2="135.604" gradientUnits="userSpaceOnUse">
<stop stop-color="#CB236D"/>
<stop offset="1" stop-color="#4C246D"/>
</linearGradient>
<linearGradient id="paint1_linear_602_1824" x1="14.0919" y1="101.925" x2="54.267" y2="66.3481" gradientUnits="userSpaceOnUse">
<stop stop-color="#4F52FF"/>
<stop offset="1" stop-color="#4042E2"/>
</linearGradient>
<linearGradient id="paint2_linear_602_1824" x1="50.1696" y1="75.0815" x2="64.7885" y2="75.0815" gradientUnits="userSpaceOnUse">
<stop stop-color="#FEBBBA"/>
<stop offset="1" stop-color="#FF928E"/>
</linearGradient>
<linearGradient id="paint3_linear_602_1824" x1="34.4152" y1="60.064" x2="51.4062" y2="50.2207" gradientUnits="userSpaceOnUse">
<stop stop-color="#FEBBBA"/>
<stop offset="1" stop-color="#FF928E"/>
</linearGradient>
<linearGradient id="paint4_linear_602_1824" x1="49.3653" y1="39.5868" x2="49.2618" y2="68.3642" gradientUnits="userSpaceOnUse">
<stop stop-color="#FEBBBA"/>
<stop offset="1" stop-color="#FF928E"/>
</linearGradient>
<linearGradient id="paint5_linear_602_1824" x1="42.0438" y1="51.9121" x2="58.6244" y2="39.4721" gradientUnits="userSpaceOnUse">
<stop stop-color="#09005D"/>
<stop offset="1" stop-color="#1A0F91"/>
</linearGradient>
<linearGradient id="paint6_linear_602_1824" x1="39.9458" y1="69.3816" x2="42.5094" y2="49.6062" gradientUnits="userSpaceOnUse">
<stop stop-color="#FEBBBA"/>
<stop offset="1" stop-color="#FF928E"/>
</linearGradient>
<linearGradient id="paint7_linear_602_1824" x1="3.9667" y1="90.4906" x2="44.1418" y2="54.9143" gradientUnits="userSpaceOnUse">
<stop stop-color="#4F52FF"/>
<stop offset="1" stop-color="#4042E2"/>
</linearGradient>
<linearGradient id="paint8_linear_602_1824" x1="24.6665" y1="-16.4395" x2="21.7624" y2="54.2297" gradientUnits="userSpaceOnUse">
<stop stop-color="#09005D"/>
<stop offset="1" stop-color="#1A0F91"/>
</linearGradient>
<linearGradient id="paint9_linear_602_1824" x1="35.6482" y1="97.1888" x2="36.3145" y2="87.9158" gradientUnits="userSpaceOnUse">
<stop stop-color="#FEBBBA"/>
<stop offset="1" stop-color="#FF928E"/>
</linearGradient>
<linearGradient id="paint10_linear_602_1824" x1="46.2803" y1="130.355" x2="75.5501" y2="130.355" gradientUnits="userSpaceOnUse">
<stop stop-color="#9CFFFB"/>
<stop offset="1" stop-color="#9BFFFA"/>
</linearGradient>
<linearGradient id="paint11_linear_602_1824" x1="49.6598" y1="130.355" x2="78.9299" y2="130.355" gradientUnits="userSpaceOnUse">
<stop stop-color="#9CFFFB"/>
<stop offset="1" stop-color="#9BFFFA"/>
</linearGradient>
<linearGradient id="paint12_linear_602_1824" x1="15.6497" y1="152.503" x2="99.1124" y2="53.8069" gradientUnits="userSpaceOnUse">
<stop stop-color="#09005D"/>
<stop offset="1" stop-color="#1A0F91"/>
</linearGradient>
<linearGradient id="paint13_linear_602_1824" x1="81.7882" y1="24.7576" x2="96.5837" y2="11.0877" gradientUnits="userSpaceOnUse">
<stop stop-color="#09005D"/>
<stop offset="1" stop-color="#1A0F91"/>
</linearGradient>
<linearGradient id="paint14_linear_602_1824" x1="73.33" y1="39.6833" x2="94.3859" y2="-8.47861" gradientUnits="userSpaceOnUse">
<stop stop-color="#4F52FF"/>
<stop offset="1" stop-color="#4042E2"/>
</linearGradient>
<linearGradient id="paint15_linear_602_1824" x1="73.0544" y1="39.5631" x2="94.1102" y2="-8.5984" gradientUnits="userSpaceOnUse">
<stop stop-color="#4F52FF"/>
<stop offset="1" stop-color="#4042E2"/>
</linearGradient>
<linearGradient id="paint16_linear_602_1824" x1="72.6297" y1="39.3771" x2="93.6856" y2="-8.78448" gradientUnits="userSpaceOnUse">
<stop stop-color="#4F52FF"/>
<stop offset="1" stop-color="#4042E2"/>
</linearGradient>
<linearGradient id="paint17_linear_602_1824" x1="72.4238" y1="39.2875" x2="93.4793" y2="-8.87406" gradientUnits="userSpaceOnUse">
<stop stop-color="#4F52FF"/>
<stop offset="1" stop-color="#4042E2"/>
</linearGradient>
<linearGradient id="paint18_linear_602_1824" x1="77.6583" y1="7.46537" x2="76.3876" y2="33.4204" gradientUnits="userSpaceOnUse">
<stop stop-color="#FF928E"/>
<stop offset="1" stop-color="#FE7062"/>
</linearGradient>
<linearGradient id="paint19_linear_602_1824" x1="101.884" y1="0.290787" x2="71.2096" y2="27.1532" gradientUnits="userSpaceOnUse">
<stop stop-color="#E1473D"/>
<stop offset="1" stop-color="#E9605A"/>
</linearGradient>
<linearGradient id="paint20_linear_602_1824" x1="100.154" y1="-1.68555" x2="69.4794" y2="25.1769" gradientUnits="userSpaceOnUse">
<stop stop-color="#E1473D"/>
<stop offset="1" stop-color="#E9605A"/>
</linearGradient>
<linearGradient id="paint21_linear_602_1824" x1="89.6293" y1="102.134" x2="87.4986" y2="90.9003" gradientUnits="userSpaceOnUse">
<stop stop-color="#4F52FF"/>
<stop offset="1" stop-color="#4042E2"/>
</linearGradient>
</defs>
</svg>
