<svg width="14" height="15" viewBox="0 0 14 15" fill="none" xmlns="http://www.w3.org/2000/svg">
<path d="M7 11.2478C7 10.5405 7.35 9.8773 7.84 9.43519V9.25835C7.84 7.46046 9.38 5.94256 11.2 5.94256C12.355 5.94256 13.391 6.55414 14 7.46046V2.25835C14 1.44046 13.37 0.784668 12.6 0.784668H1.4C0.623 0.784668 0 1.44046 0 2.25835V11.1005C0 11.9184 0.63 12.5741 1.4 12.5741H7V11.2478ZM1.4 2.25835L7 5.94256L12.6 2.25835V3.73204L7 7.41625L1.4 3.73204V2.25835ZM13.16 10.3636V9.25835C13.16 8.22677 12.18 7.41625 11.2 7.41625C10.22 7.41625 9.24 8.22677 9.24 9.25835V10.3636C8.82 10.3636 8.4 10.8057 8.4 11.2478V13.8268C8.4 14.3426 8.82 14.7847 9.24 14.7847H13.09C13.58 14.7847 14 14.3426 14 13.9005V11.3215C14 10.8057 13.58 10.3636 13.16 10.3636ZM12.25 10.3636H10.15V9.25835C10.15 8.66888 10.64 8.30046 11.2 8.30046C11.76 8.30046 12.25 8.66888 12.25 9.25835V10.3636Z" fill="#FB5607"/>
</svg>
