<svg width="13" height="17" viewBox="0 0 13 17" fill="none" xmlns="http://www.w3.org/2000/svg">
<path d="M6.4 0.784668C4.1944 0.784668 2.4 2.57907 2.4 4.78467V7.18467H1.6C1.17565 7.18467 0.768687 7.35324 0.468629 7.6533C0.168571 7.95336 0 8.36032 0 8.78467V15.1847C0 15.609 0.168571 16.016 0.468629 16.316C0.768687 16.6161 1.17565 16.7847 1.6 16.7847H11.2C11.6243 16.7847 12.0313 16.6161 12.3314 16.316C12.6314 16.016 12.8 15.609 12.8 15.1847V8.78467C12.8 8.36032 12.6314 7.95336 12.3314 7.6533C12.0313 7.35324 11.6243 7.18467 11.2 7.18467H10.4V4.78467C10.4 2.57907 8.6056 0.784668 6.4 0.784668ZM4 4.78467C4 3.46147 5.0768 2.38467 6.4 2.38467C7.7232 2.38467 8.8 3.46147 8.8 4.78467V7.18467H4V4.78467ZM7.2 13.3631V15.1847H5.6V13.3631C5.32031 13.2029 5.09573 12.9617 4.95586 12.6714C4.816 12.381 4.76743 12.055 4.81655 11.7365C4.86567 11.4179 5.01017 11.1218 5.23101 10.887C5.45185 10.6523 5.73865 10.4899 6.0536 10.4215C6.28755 10.3696 6.53016 10.3709 6.76353 10.4254C6.99689 10.4798 7.21505 10.586 7.40189 10.736C7.58872 10.8861 7.73947 11.0762 7.84299 11.2923C7.94652 11.5084 8.00017 11.745 8 11.9847C7.99954 12.2645 7.92535 12.5392 7.7849 12.7812C7.64446 13.0232 7.44271 13.2239 7.2 13.3631Z" fill="#FB5607"/>
</svg>
