<svg width="18" height="19" viewBox="0 0 18 19" fill="none" xmlns="http://www.w3.org/2000/svg">
<path d="M7.69765 15.7646C9.40555 15.7642 11.0642 15.1925 12.4096 14.1405L16.6394 18.3701L18 17.0096L13.7701 12.78C14.8228 11.4346 15.3949 9.77561 15.3953 8.06736C15.3953 3.82329 11.9419 0.370117 7.69765 0.370117C3.45336 0.370117 0 3.82329 0 8.06736C0 12.3114 3.45336 15.7646 7.69765 15.7646ZM7.69765 2.29443C10.8816 2.29443 13.4709 4.88359 13.4709 8.06736C13.4709 11.2511 10.8816 13.8403 7.69765 13.8403C4.51371 13.8403 1.92441 11.2511 1.92441 8.06736C1.92441 4.88359 4.51371 2.29443 7.69765 2.29443Z" fill="#1D1D1B"/>
</svg>
