<?xml version="1.0" encoding="utf-8"?>
<!-- Generator: Adobe Illustrator 24.2.3, SVG Export Plug-In . SVG Version: 6.00 Build 0)  -->
<svg version="1.1" id="Calque_1" xmlns="http://www.w3.org/2000/svg" xmlns:xlink="http://www.w3.org/1999/xlink" x="0px" y="0px"
	 viewBox="0 0 1265.9 938.2" style="enable-background:new 0 0 1265.9 938.2;" xml:space="preserve">
<style type="text/css">
	.st0{fill:url(#SVGID_1_);}
	.st1{opacity:0.3;}
	.st2{fill:#91B3FA;}
	.st3{fill:#BDD0FB;}
	.st4{fill:url(#SVGID_2_);}
	.st5{fill:url(#SVGID_3_);}
	.st6{fill:url(#SVGID_4_);}
	.st7{fill:url(#SVGID_5_);}
	.st8{fill:url(#SVGID_6_);}
	.st9{fill:#7D97F4;}
	.st10{opacity:0.56;fill:#FFFFFF;enable-background:new    ;}
	.st11{fill:url(#SVGID_7_);}
	.st12{fill:url(#SVGID_8_);}
	.st13{fill:url(#SVGID_9_);}
	.st14{fill:url(#SVGID_10_);}
	.st15{fill:url(#SVGID_11_);}
	.st16{fill:url(#SVGID_12_);}
	.st17{fill:url(#SVGID_13_);}
	.st18{fill:url(#SVGID_14_);}
	.st19{fill:url(#SVGID_15_);}
	.st20{fill:url(#SVGID_16_);}
	.st21{fill:url(#SVGID_17_);}
	.st22{fill:url(#SVGID_18_);}
	.st23{fill:url(#SVGID_19_);}
	.st24{fill:url(#SVGID_20_);}
	.st25{fill:url(#SVGID_21_);}
	.st26{fill:url(#SVGID_22_);}
	.st27{fill:url(#SVGID_23_);}
	.st28{fill:url(#SVGID_24_);}
	.st29{fill:url(#SVGID_25_);}
	.st30{fill:url(#SVGID_26_);}
	.st31{opacity:0.47;fill:#FFFFFF;enable-background:new    ;}
</style>
<g id="Illustration">
	<g>
		
			<linearGradient id="SVGID_1_" gradientUnits="userSpaceOnUse" x1="802.0217" y1="-86.2573" x2="160.1259" y2="606.5828" gradientTransform="matrix(-1 0 0 -1 947.8368 938.2403)">
			<stop  offset="0" style="stop-color:#DAE3FE"/>
			<stop  offset="1" style="stop-color:#E9EFFD"/>
		</linearGradient>
		<path class="st0" d="M234.5,629.4c88.4,205.8,321.6,294.2,504.4,279.1c49.9-4.1,150.3-12.4,228.7-86.3
			c150.6-141.9,127.4-438.4-16.8-613c-18.6-22.5-147-173.1-347.2-171.1c-146.6,1.5-249.5,84-262,94.3c-15.8,13-50.7,43.8-82.1,92.8
			C185.8,340.2,179.3,500.8,234.5,629.4z"/>
		<g>
			<g>
				<g class="st1">
					<path class="st2" d="M409.9,113.3c-1.2,1.3-3.2,1.5-4.5,0.3c-2.6-2.3-5.3-4.5-8.1-6.5c-1.4-1-1.7-3-0.7-4.4c0,0,0,0,0-0.1
						c1-1.4,3.1-1.7,4.5-0.7c2.9,2.2,5.8,4.5,8.6,6.9c1.3,1.1,1.5,2.9,0.5,4.3C410,113.2,409.9,113.3,409.9,113.3z M382.9,98.1
						c-3.1-1.6-6.2-3.2-9.4-4.6c-1.6-0.7-2.4-2.6-1.7-4.2c0.7-1.6,2.6-2.4,4.2-1.7c3.3,1.4,6.7,3.1,9.9,4.8c1.6,0.8,2.1,2.8,1.3,4.4
						c-0.1,0.1-0.1,0.2-0.2,0.3C386.1,98.4,384.3,98.9,382.9,98.1z M357.5,87.9c-3.3-0.9-6.8-1.7-10.2-2.3c-1.7-0.3-2.9-2-2.6-3.8
						c0.3-1.7,2-2.9,3.8-2.6c3.6,0.7,7.2,1.5,10.7,2.5c1.7,0.5,2.7,2.2,2.2,4c-0.1,0.4-0.3,0.7-0.5,1
						C360.2,87.7,358.9,88.3,357.5,87.9z M330.5,83.6c-3.5-0.2-7-0.2-10.4,0c-1.8,0.1-3.3-1.3-3.3-3.1c-0.1-1.8,1.3-3.3,3.1-3.3
						c3.6-0.1,7.3-0.1,11,0c1.8,0.1,3.2,1.6,3.1,3.4c0,0.6-0.2,1.2-0.6,1.7C332.7,83.1,331.7,83.7,330.5,83.6z M303.3,85.4
						c-3.4,0.6-6.8,1.4-10.2,2.3c-1.7,0.5-3.5-0.6-3.9-2.3c-0.5-1.7,0.6-3.5,2.3-3.9c3.5-1,7.1-1.8,10.7-2.4
						c1.7-0.3,3.4,0.8,3.7,2.6c0.2,0.9-0.1,1.7-0.5,2.4C304.8,84.8,304.1,85.3,303.3,85.4z M277.1,93.3c-3.2,1.4-6.4,2.9-9.4,4.5
						c-1.6,0.8-3.5,0.2-4.4-1.3c-0.8-1.6-0.2-3.5,1.3-4.4c3.2-1.7,6.6-3.3,9.9-4.7c1.6-0.7,3.5,0.1,4.2,1.7c0.5,1.1,0.3,2.2-0.3,3.1
						C278.1,92.6,277.6,93,277.1,93.3z M201.1,185.6c-1.7-0.3-2.9-2-2.6-3.8c0.7-3.6,1.5-7.2,2.5-10.7c0.5-1.7,2.3-2.7,4-2.2
						c1.7,0.5,2.7,2.3,2.2,4c-0.9,3.3-1.7,6.8-2.4,10.2c-0.1,0.5-0.3,0.9-0.5,1.3C203.6,185.3,202.4,185.8,201.1,185.6z
						 M253.3,106.7c-2.8,2-5.6,4.2-8.2,6.5c-1.3,1.2-3.4,1-4.5-0.3c-1.2-1.3-1-3.4,0.3-4.5c2.8-2.4,5.7-4.7,8.6-6.8
						c1.4-1,3.5-0.7,4.5,0.7c0.8,1.1,0.8,2.6,0,3.7C253.8,106.2,253.6,106.5,253.3,106.7z M208.7,158.6c-1.6-0.7-2.4-2.6-1.7-4.2
						c1.5-3.3,3.1-6.7,4.8-9.9c0.8-1.6,2.8-2.1,4.4-1.3c1.6,0.8,2.1,2.8,1.3,4.4c-1.7,3-3.2,6.2-4.6,9.4c-0.1,0.2-0.2,0.4-0.3,0.6
						C211.8,158.7,210.1,159.2,208.7,158.6z M233.1,125.1c-2.3,2.6-4.5,5.3-6.5,8.1c-1.1,1.4-3.1,1.7-4.5,0.7c-1.4-1-1.7-3-0.7-4.4
						c0,0,0,0,0-0.1c2.2-2.9,4.5-5.8,6.9-8.6c1.2-1.3,3.2-1.5,4.5-0.3c1.2,1.1,1.5,2.9,0.5,4.3C233.3,124.9,233.2,125,233.1,125.1z"
						/>
					<path class="st2" d="M202.2,206.8c0.4-0.5,0.6-1.2,0.6-1.8c0-1.7,0.1-3.3,0.1-5c0.1-1.8-1.3-3.3-3.1-3.4
						c-1.8-0.1-3.3,1.3-3.4,3.1c-0.1,1.8-0.1,3.5-0.1,5.3c0,1.8,1.4,3.2,3.2,3.2C200.6,208.1,201.6,207.6,202.2,206.8z"/>
				</g>
				<g class="st1">
					<path class="st2" d="M240.1,297.3c0.9-1.3,0.8-3-0.4-4.2c-1.2-1.2-2.4-2.4-3.5-3.6c-1.2-1.3-3.3-1.3-4.6-0.1
						c-1.3,1.2-1.3,3.3-0.1,4.6c1.2,1.3,2.5,2.5,3.7,3.8c1.3,1.2,3.3,1.2,4.6-0.1C239.9,297.6,240,297.5,240.1,297.3z"/>
					<path class="st2" d="M426.3,284.8c-1.1,1.4-3.1,1.7-4.5,0.6c-1.4-1.1-1.7-3.1-0.6-4.5c2.1-2.7,4.1-5.5,6-8.4
						c1-1.5,3-1.9,4.5-0.9c1.5,1,1.9,3,0.9,4.5c-0.8,1.2-1.7,2.5-2.5,3.7C428.9,281.4,427.6,283.1,426.3,284.8z M436.9,262.2
						c-1.6-0.8-2.3-2.7-1.5-4.3c1.5-3.1,2.8-6.3,4-9.4c0.6-1.7,2.5-2.5,4.1-1.9c1.7,0.6,2.5,2.5,1.9,4.1c-1.3,3.4-2.7,6.7-4.2,9.9
						c-0.1,0.2-0.2,0.3-0.3,0.5C440,262.4,438.3,262.9,436.9,262.2z M414.6,297.8c-2.6,2.5-5.3,4.9-8.1,7.2
						c-1.4,1.1-3.4,0.9-4.5-0.4c-1.1-1.4-0.9-3.4,0.4-4.5c2.6-2.2,5.2-4.5,7.6-6.8c1.3-1.2,3.3-1.2,4.6,0.1c1.1,1.1,1.2,2.9,0.3,4.1
						C414.9,297.6,414.8,297.7,414.6,297.8z M446.6,236.4c-1.7-0.4-2.8-2.1-2.4-3.8c0.7-3.3,1.4-6.7,1.8-10.1c0.2-1.8,1.9-3,3.6-2.7
						c1.8,0.2,3,1.9,2.7,3.6c-0.5,3.6-1.1,7.1-1.9,10.6c-0.1,0.4-0.3,0.8-0.5,1.1C449.2,236.1,447.9,236.7,446.6,236.4z
						 M392.3,315.2c-3.1,1.9-6.2,3.6-9.4,5.3c-1.6,0.8-3.5,0.2-4.3-1.4c-0.8-1.6-0.2-3.5,1.4-4.3c3-1.5,6.1-3.2,9-5
						c1.5-0.9,3.5-0.5,4.4,1.1c0.7,1.1,0.6,2.5-0.1,3.5C393,314.7,392.7,315,392.3,315.2z M366.7,327.3c-3.4,1.2-6.9,2.2-10.4,3.1
						c-1.7,0.4-3.5-0.6-3.9-2.3c-0.4-1.7,0.6-3.5,2.3-3.9c3.3-0.8,6.6-1.8,9.8-2.9c1.7-0.6,3.5,0.3,4.1,2c0.3,1,0.2,2.1-0.4,2.9
						C367.9,326.6,367.4,327,366.7,327.3z M339.1,333.5c-3.6,0.4-7.2,0.6-10.8,0.7c-1.8,0-3.3-1.4-3.3-3.1c0-1.8,1.4-3.3,3.1-3.3
						c3.4-0.1,6.8-0.3,10.2-0.7c1.8-0.2,3.4,1.1,3.6,2.8c0.1,0.8-0.1,1.6-0.6,2.2C340.8,332.8,340,333.4,339.1,333.5z M310.8,333.5
						c-3.6-0.4-7.2-0.9-10.7-1.6c-1.7-0.3-2.9-2-2.5-3.8c0.3-1.7,2-2.9,3.8-2.5c3.3,0.7,6.8,1.2,10.1,1.6c1.8,0.2,3,1.8,2.8,3.6
						c-0.1,0.6-0.3,1.1-0.6,1.5C313.1,333.1,312,333.6,310.8,333.5z M283.1,327.3c-3.4-1.2-6.8-2.5-10.1-3.9
						c-1.6-0.7-2.4-2.6-1.6-4.2c0.7-1.6,2.6-2.4,4.2-1.6c3.1,1.4,6.3,2.6,9.5,3.8c1.7,0.6,2.6,2.4,2,4.1c-0.1,0.3-0.2,0.6-0.4,0.8
						C286,327.2,284.5,327.7,283.1,327.3z M257.5,315.2c-2.2-1.4-4.5-2.9-6.6-4.4c-0.8-0.5-1.6-1.1-2.3-1.7
						c-1.4-1.1-1.8-3.1-0.7-4.5c1.1-1.4,3.1-1.7,4.5-0.7c0.7,0.5,1.5,1.1,2.2,1.6c2,1.4,4.2,2.8,6.3,4.2c1.5,0.9,2,2.9,1.1,4.4
						c0,0.1-0.1,0.1-0.1,0.2C260.9,315.6,259,316.1,257.5,315.2z"/>
					<path class="st2" d="M453,207.6c0.4-0.5,0.6-1.2,0.6-1.8c0-1.7,0-3.5-0.1-5.3c-0.1-1.8-1.6-3.2-3.3-3.1
						c-1.8,0.1-3.2,1.6-3.1,3.3c0.1,1.7,0.1,3.4,0.1,5c0,1.8,1.4,3.2,3.2,3.2C451.4,208.9,452.4,208.4,453,207.6z"/>
				</g>
				<g>
					<path class="st2" d="M414,168.5c-0.2-0.6-0.7-1.1-1.4-1.1l-18.3-1.1c-4.1-7.5-9.5-14.4-16-20.3l3.3-18c0.1-0.6-0.2-1.3-0.7-1.6
						l-19.2-10.8c-0.6-0.3-1.3-0.2-1.7,0.2L346.3,128c-8.5-2.4-17.1-3.4-25.7-3.1l-10.4-15.1c-0.4-0.5-1-0.8-1.6-0.6l-21.1,5.9
						c-0.6,0.2-1.1,0.7-1.1,1.4l-1.1,18.3c-7.5,4.1-14.4,9.5-20.3,16l-18-3.3c-0.6-0.1-1.3,0.2-1.6,0.7l-10.8,19.2
						c-0.3,0.6-0.2,1.3,0.2,1.7l12.2,13.7c-2.4,8.5-3.4,17.1-3.1,25.7L228.9,219c-0.5,0.4-0.8,1-0.6,1.6l5.9,21.1
						c0.2,0.6,0.7,1.1,1.4,1.1l18.3,1.1c4.1,7.5,9.5,14.4,16,20.3l-3.3,18c-0.1,0.6,0.2,1.3,0.7,1.6l19.2,10.8
						c0.6,0.3,1.3,0.2,1.7-0.2l13.7-12.2c8.5,2.4,17.1,3.4,25.7,3.1l10.4,15.1c0.4,0.5,1,0.8,1.6,0.6l21.1-5.9
						c0.6-0.2,1.1-0.7,1.1-1.4l1.1-18.3c7.5-4.1,14.4-9.5,20.3-16l18,3.3c0.6,0.1,1.3-0.2,1.6-0.7l10.8-19.2
						c0.3-0.6,0.2-1.3-0.2-1.7l-12.2-13.7c2.4-8.5,3.4-17.1,3.1-25.7l15.1-10.4c0.5-0.4,0.8-1,0.6-1.6L414,168.5z"/>
					<g>
						<path class="st3" d="M340.1,220.3c-8.4,8.8-22.4,9.2-31.2,0.8c-4.3-4.1-6.7-9.5-6.9-15.4c-0.2-5.9,2-11.5,6.1-15.8
							c8.4-8.8,22.4-9.2,31.2-0.8c8,7.6,9.1,19.9,2.9,28.7C341.5,218.7,340.9,219.5,340.1,220.3z M307.2,205.6
							c0.1,4.5,2,8.7,5.3,11.8c6.8,6.4,17.5,6.1,23.9-0.6c6.4-6.8,6.1-17.5-0.6-23.9c-6.8-6.4-17.5-6.1-23.9,0.6
							c-0.6,0.6-1.1,1.3-1.6,1.9C308.1,198.4,307.1,201.9,307.2,205.6z"/>
					</g>
					<g>
						<path class="st3" d="M368,236.5c1.1-1.5,2.1-3.1,3-4.7l0,0c0.3-0.5,0.6-1,0.8-1.6c1.3-2.6,2.5-5.3,3.4-8c0,0,0-0.1,0-0.1
							c0-0.1,0.1-0.2,0.1-0.3c0.1-0.2,0.1-0.4,0.2-0.6c0.2-0.5,0-1.1-0.5-1.4c-0.1-0.1-0.2-0.1-0.4-0.2c-0.7-0.2-1.4,0.2-1.6,0.9
							c-1.1,3.5-2.5,6.9-4.3,10.1c-9,16-25.2,25.4-42.3,26.3c-9.5,0.5-19.2-1.5-28.1-6.5c-1.6-0.9-3.1-1.8-4.5-2.8
							c-9.7-6.8-16.7-16.7-20-28.3c-3.7-13.3-2.1-27.3,4.7-39.3c14-24.9,45.5-33.7,70.4-19.8c1.5,0.9,3,1.8,4.4,2.8
							c6.2,4.4,11.4,10,15.1,16.6c0.1,0.2,0.2,0.3,0.4,0.4c0.4,0.3,0.9,0.3,1.4,0.1c0.6-0.4,0.8-1.1,0.5-1.8
							c-3.9-6.9-9.4-12.8-15.9-17.4c-1.5-1.1-3.1-2-4.7-2.9c-26.1-14.7-59.3-5.3-73.9,20.8c-7.1,12.6-8.8,27.3-4.9,41.3
							c3.4,12.2,10.8,22.5,21,29.7c1.5,1.1,3.1,2.1,4.7,3c12.6,7.1,27.3,8.9,41.3,4.9C350.5,254.1,360.8,246.7,368,236.5z"/>
					</g>
				</g>
			</g>
			<g>
				<g class="st1">
					<path class="st2" d="M542.7,72c0.5-0.7,0.5-1.7-0.1-2.4c-1.1-1.3-2.2-2.6-3.3-3.9c-0.7-0.8-2-0.9-2.8-0.1
						c-0.8,0.7-0.9,2-0.1,2.8c1.1,1.2,2.1,2.4,3.1,3.7c0.7,0.9,1.9,1,2.8,0.3C542.4,72.3,542.6,72.1,542.7,72z"/>
					<path class="st2" d="M531.9,61.1c-0.7,0.8-2,0.9-2.8,0.2c-2.1-1.8-4.3-3.5-6.6-5.1c-0.5-0.3-1-0.7-1.5-1
						c-0.9-0.6-1.2-1.8-0.5-2.8c0.6-0.8,1.8-1.2,2.8-0.5c0.5,0.3,1,0.7,1.5,1c2.4,1.7,4.7,3.5,6.9,5.4c0.8,0.7,0.9,1.8,0.3,2.6
						C532,61,532,61,531.9,61.1z M512.4,50c-3-1.5-6.1-2.9-9.3-4c-1-0.4-1.6-1.5-1.2-2.5c0.4-1,1.5-1.6,2.5-1.2
						c3.3,1.2,6.6,2.6,9.7,4.2c1,0.5,1.4,1.7,0.9,2.7c0,0.1-0.1,0.2-0.1,0.2C514.4,50.2,513.3,50.5,512.4,50z M493.4,43.2
						c-3.3-0.7-6.6-1.3-10-1.6c-1.1-0.1-1.9-1.1-1.8-2.2c0.1-1.1,1.1-1.9,2.2-1.8c3.5,0.3,7,0.9,10.5,1.7c1.1,0.2,1.7,1.3,1.5,2.4
						c-0.1,0.3-0.2,0.5-0.3,0.7C495.1,43,494.3,43.4,493.4,43.2z M473.4,41.2c-3.4,0.1-6.7,0.4-10.1,0.9c-1.1,0.2-2.1-0.6-2.3-1.7
						c-0.2-1.1,0.6-2.1,1.7-2.3c3.5-0.5,7-0.8,10.5-0.9c1.1,0,2,0.8,2,1.9c0,0.4-0.1,0.9-0.4,1.2C474.6,40.9,474,41.2,473.4,41.2z
						 M453.5,44.2c-3.2,0.9-6.4,2-9.5,3.3c-1,0.4-2.2-0.1-2.6-1.1c-0.4-1,0.1-2.2,1.1-2.6c3.2-1.3,6.6-2.5,10-3.5
						c1.1-0.3,2.2,0.3,2.4,1.4c0.2,0.6,0,1.2-0.3,1.7C454.3,43.8,453.9,44.1,453.5,44.2z M434.8,51.9c-2.9,1.7-5.8,3.5-8.4,5.5
						c-0.9,0.7-2.1,0.5-2.8-0.4c-0.7-0.9-0.5-2.1,0.4-2.8c2.8-2.1,5.8-4,8.9-5.8c1-0.5,2.2-0.2,2.7,0.7c0.4,0.7,0.3,1.5-0.1,2.1
						C435.3,51.6,435.1,51.8,434.8,51.9z M418.7,64c-2.4,2.3-4.7,4.8-6.8,7.4c-0.7,0.9-1.9,1-2.8,0.3c-0.9-0.7-1-1.9-0.3-2.8
						c2.2-2.7,4.6-5.4,7.2-7.8c0.8-0.8,2.1-0.7,2.8,0.1c0.7,0.7,0.7,1.8,0.2,2.5C418.9,63.8,418.8,63.9,418.7,64z M398.5,89.5
						c-1-0.5-1.4-1.6-1-2.6c1.3-2.8,2.7-5.5,4.3-8.1c0.2-0.4,0.5-0.8,0.7-1.2c0.6-0.9,1.8-1.2,2.7-0.6c0.9,0.6,1.2,1.8,0.6,2.7
						c-0.2,0.4-0.5,0.7-0.7,1.1c-1.5,2.5-2.9,5.1-4.1,7.7c-0.1,0.1-0.1,0.2-0.2,0.3C400.5,89.6,399.4,89.9,398.5,89.5z"/>
				</g>
				<g class="st1">
					<path class="st2" d="M545,173.5c-2,2.8-4.2,5.5-6.6,8.1c-0.7,0.8-2,0.9-2.8,0.1c-0.8-0.7-0.8-2-0.1-2.8c2.2-2.4,4.4-5,6.3-7.7
						c0.6-0.9,1.9-1.1,2.8-0.4C545.4,171.3,545.6,172.6,545,173.5C545,173.4,545,173.5,545,173.5z M547.9,165.4
						c-1-0.5-1.3-1.7-0.8-2.7c1.6-2.9,3-5.9,4.3-9c0.4-1,1.6-1.5,2.6-1.1c1,0.4,1.5,1.6,1.1,2.6c-1.3,3.2-2.8,6.4-4.5,9.4
						c0,0.1-0.1,0.1-0.1,0.2C549.9,165.7,548.8,165.9,547.9,165.4z M530.9,188.7c-2.6,2.2-5.5,4.3-8.3,6.2c-0.9,0.6-2.2,0.3-2.8-0.6
						c-0.6-0.9-0.3-2.1,0.6-2.8c2.8-1.8,5.4-3.8,8-5.9c0.8-0.7,2.1-0.6,2.8,0.2c0.6,0.7,0.6,1.7,0.1,2.4
						C531.1,188.5,531,188.6,530.9,188.7z M555.9,146.8c-1.1-0.3-1.7-1.4-1.4-2.4c0.9-3.2,1.5-6.5,2-9.7c0.2-1.1,1.2-1.8,2.2-1.7
						c1.1,0.2,1.8,1.2,1.7,2.2c-0.5,3.4-1.2,6.9-2.1,10.2c-0.1,0.2-0.2,0.4-0.3,0.6C557.6,146.7,556.8,147,555.9,146.8z
						 M513.5,200.1c-3.1,1.5-6.3,2.9-9.6,4c-1,0.4-2.2-0.2-2.5-1.2c-0.4-1,0.2-2.2,1.2-2.5c3.1-1.1,6.2-2.4,9.2-3.8
						c1-0.5,2.2-0.1,2.7,0.9c0.3,0.7,0.2,1.4-0.2,2C514,199.7,513.8,200,513.5,200.1z M493.9,207c-3.4,0.7-6.8,1.3-10.3,1.6
						c-1.1,0.1-2.1-0.7-2.2-1.8c-0.1-1.1,0.7-2.1,1.8-2.2c3.3-0.3,6.6-0.8,9.8-1.5c1.1-0.2,2.1,0.4,2.4,1.5c0.1,0.6,0,1.1-0.3,1.6
						C494.8,206.6,494.4,206.9,493.9,207z M473.2,209c-3.5-0.1-7-0.4-10.4-0.9c-1.1-0.2-1.8-1.2-1.7-2.3c0.2-1.1,1.2-1.8,2.3-1.7
						c3.3,0.5,6.6,0.8,9.9,0.9c1.1,0,2,0.9,1.9,2c0,0.4-0.1,0.8-0.4,1.1C474.5,208.7,473.9,209,473.2,209z"/>
					<path class="st2" d="M560.9,125.8c0.2-0.3,0.4-0.7,0.4-1.1c0-1.7,0-3.4-0.1-5.1c0-1.1-1-2-2.1-1.9c-1.1,0-1.9,1-1.9,2.1
						c0.1,1.6,0.1,3.2,0.1,4.8c0,1.1,0.9,2,2,2C559.9,126.7,560.6,126.3,560.9,125.8z"/>
				</g>
				<g>
					<path class="st2" d="M535,98.3c-0.1-0.4-0.5-0.7-0.9-0.7l-12.2-0.7c-2.8-5-6.3-9.6-10.7-13.6l2.2-12c0.1-0.4-0.1-0.8-0.5-1.1
						L500,62.9c-0.4-0.2-0.8-0.2-1.2,0.1l-9.1,8.1c-5.7-1.6-11.5-2.3-17.2-2l-7-10.1c-0.2-0.4-0.7-0.5-1.1-0.4l-14.2,4
						c-0.4,0.1-0.7,0.5-0.7,0.9l-0.7,12.2c-5,2.8-9.6,6.3-13.6,10.7l-12-2.2c-0.4-0.1-0.8,0.1-1.1,0.5L415,97.6
						c-0.2,0.4-0.2,0.8,0.1,1.2l8.1,9.1c-1.6,5.7-2.3,11.5-2,17.2l-10.1,7c-0.4,0.2-0.5,0.7-0.4,1.1l4,14.2c0.1,0.4,0.5,0.7,0.9,0.7
						l12.2,0.7c2.8,5,6.3,9.6,10.7,13.6l-2.2,12c-0.1,0.4,0.1,0.8,0.5,1.1l12.8,7.2c0.4,0.2,0.8,0.2,1.2-0.1l9.1-8.1
						c5.7,1.6,11.5,2.3,17.2,2l7,10.1c0.2,0.4,0.7,0.5,1.1,0.4l14.2-4c0.4-0.1,0.7-0.5,0.7-0.9l0.7-12.2c5-2.8,9.6-6.3,13.6-10.7
						l12,2.2c0.4,0.1,0.8-0.1,1.1-0.5l7.2-12.8c0.2-0.4,0.2-0.8-0.1-1.2l-8.1-9.1c1.6-5.7,2.3-11.5,2-17.2l10.1-7
						c0.4-0.2,0.5-0.7,0.4-1.1L535,98.3z"/>
					<g>
						<path class="st3" d="M485.8,133.1c-2.8,2.9-6.5,4.6-10.5,4.7c-4,0.1-7.8-1.4-10.7-4.1c-6-5.7-6.3-15.2-0.6-21.3
							c5.7-6,15.2-6.3,21.3-0.6c2.9,2.8,4.6,6.5,4.7,10.5c0.1,3.3-0.9,6.4-2.7,9C486.7,132,486.3,132.6,485.8,133.1z M467.2,130.8
							c2.1,2,5,3.1,7.9,3c3-0.1,5.7-1.3,7.7-3.4l0,0c2-2.1,3.1-5,3-7.9c-0.1-3-1.3-5.7-3.4-7.7c-4.4-4.2-11.4-4-15.6,0.4
							c-0.4,0.4-0.7,0.8-1,1.3C462.7,120.8,463.2,127,467.2,130.8z"/>
					</g>
					<g>
						<path class="st3" d="M505.2,144.4c0.7-1,1.4-2.1,2-3.2c1.2-2.2,2.3-4.6,3-7c0-0.1,0.1-0.2,0.1-0.3c0.3-0.8-0.1-1.7-0.8-2.2
							c-0.2-0.1-0.4-0.2-0.6-0.3c-1-0.3-2.2,0.3-2.5,1.3c-0.7,2.3-1.6,4.5-2.8,6.5l0,0c-0.1,0.1-0.1,0.2-0.2,0.3
							c-2.8,4.9-6.7,8.9-11.4,11.8c-2.5,1.6-5.3,2.8-8.2,3.6c0,0,0,0-0.1,0c-0.1,0-0.1,0-0.2,0.1c-8.6,2.4-17.6,1.3-25.4-3
							c-1-0.6-2-1.2-2.9-1.8c-6.3-4.4-10.8-10.8-12.9-18.3c-2.4-8.6-1.3-17.6,3-25.4c4.4-7.8,11.5-13.4,20.1-15.8
							c8.6-2.4,17.6-1.3,25.4,3c1,0.6,2,1.2,2.9,1.8c4,2.8,7.4,6.5,9.8,10.7c0.2,0.3,0.4,0.5,0.6,0.6c0.6,0.4,1.4,0.5,2.1,0.1
							c1-0.5,1.3-1.8,0.7-2.7c-2.7-4.8-6.5-8.9-11-12c-1-0.7-2.1-1.4-3.2-2c-8.7-4.9-18.8-6.1-28.5-3.4c-9.6,2.7-17.6,9-22.5,17.7
							c-4.9,8.7-6.1,18.8-3.4,28.5c2.4,8.4,7.4,15.5,14.5,20.5c1,0.7,2.1,1.4,3.3,2.1C473.1,165,494.3,159.9,505.2,144.4z"/>
					</g>
				</g>
			</g>
		</g>
		<g>
			
				<linearGradient id="SVGID_2_" gradientUnits="userSpaceOnUse" x1="764.6562" y1="431.2247" x2="805.6453" y2="431.2247" gradientTransform="matrix(1 0 0 -1 0 938.2403)">
				<stop  offset="0" style="stop-color:#FE7062"/>
				<stop  offset="1" style="stop-color:#FF928E"/>
			</linearGradient>
			<path class="st4" d="M805.6,103.5v790.6c0,5.2-2.1,9.9-5.7,12.8c-2.7,2.2-6.2,3.6-10,3.5l-8.7-0.3c-8.8-0.3-16.6-8.3-16.6-17.5
				V104.9L805.6,103.5z"/>
			<g>
				
					<linearGradient id="SVGID_3_" gradientUnits="userSpaceOnUse" x1="205.8226" y1="934.4473" x2="115.2509" y2="782.838" gradientTransform="matrix(-1 0 0 -1 947.8368 938.2403)">
					<stop  offset="0" style="stop-color:#E1473D"/>
					<stop  offset="1" style="stop-color:#E9605A"/>
				</linearGradient>
				<path class="st5" d="M822.1,75.2c0,13.3-6.8,25.3-17,32.3c-5.7,4-12.6,6.3-19.9,6.6c-3.6,0.1-7.1-0.3-10.4-1.2
					c-2.5-0.7-4.9-1.6-7.1-2.8c-0.6-0.3-1.1-0.6-1.7-1c-10.4-6.3-17.4-17.9-17.4-31.4c0-20.7,16.4-38.1,36.6-38.9
					C805.6,38,822.1,54.3,822.1,75.2z"/>
				
					<linearGradient id="SVGID_4_" gradientUnits="userSpaceOnUse" x1="204.8773" y1="919.9346" x2="134.4602" y2="802.0626" gradientTransform="matrix(-1 0 0 -1 947.8368 938.2403)">
					<stop  offset="0" style="stop-color:#FE7062"/>
					<stop  offset="1" style="stop-color:#FF928E"/>
				</linearGradient>
				<path class="st6" d="M805.2,73.8c0,10.4-5.3,19.7-13.2,25.1c-4.5,3.1-9.8,4.9-15.5,5.1c-2.8,0.1-5.6-0.2-8.1-1
					c-1.9-0.5-3.8-1.3-5.5-2.2c-0.4-0.2-0.9-0.5-1.3-0.7c-8.1-4.9-13.5-13.9-13.5-24.4c0-16.1,12.7-29.6,28.5-30.2
					C792.4,44.9,805.2,57.6,805.2,73.8z"/>
			</g>
			<g>
				
					<linearGradient id="SVGID_5_" gradientUnits="userSpaceOnUse" x1="1023.0665" y1="971.2308" x2="1023.0665" y2="697.8834" gradientTransform="matrix(0.946 0.1287 0.1364 -0.9906 -375.5544 841.1783)">
					<stop  offset="0" style="stop-color:#E1473D"/>
					<stop  offset="1" style="stop-color:#E9605A"/>
				</linearGradient>
				<path class="st7" d="M509.4,131.8l3.1,1.6l59.6-36.6l292,43.2l40.8,4.7l-2.4,7.6c-0.3,0.8-46.8,34.7-46.8,34.7l36.2,47.5
					l-1.7,4.9c-0.2,0.6-0.8,0.9-1.4,0.8l-37.6-5.8l-292.2-45.3c-0.8-0.1-1.6-0.5-2.2-1.1l-47-49.2c-0.6-0.6-0.9-1.5-0.9-2.5
					L509.4,131.8z"/>
				
					<linearGradient id="SVGID_6_" gradientUnits="userSpaceOnUse" x1="129.1935" y1="896.7543" x2="110.8306" y2="667.0157" gradientTransform="matrix(-0.9434 -0.1461 0.1531 -0.9882 695.6011 997.9762)">
					<stop  offset="0" style="stop-color:#FE7062"/>
					<stop  offset="1" style="stop-color:#FF928E"/>
				</linearGradient>
				<path class="st8" d="M575.4,93.6L905,144.7c0.3,0,0.4,0.5,0.1,0.6l-46.4,34c-0.6,0.5-0.8,1.4-0.4,2l33.2,52.5
					c0.2,0.3,0,0.6-0.3,0.6l-329.8-51.1c-0.9-0.1-1.8-0.6-2.5-1.3l-49.1-49.8c-0.2-0.2-0.2-0.6,0.1-0.7l62.6-37.3
					C573.4,93.7,574.4,93.5,575.4,93.6z"/>
			</g>
			<g>
				<path class="st9" d="M538,440l3.3,0.8l47.9-48.3l285.6-26.2l38.1-4.8c0.8-0.1,1.5,0.5,1.4,1.3l-0.3,6.2
					c-0.1,0.9-36.3,43.6-36.3,43.6l45,36.6l-0.5,5c-0.1,0.6-0.5,1.1-1.1,1.1l-36.8,3.1l-286.2,24.2c-0.8,0.1-1.6-0.1-2.3-0.6
					l-55.6-35.8c-0.7-0.5-1.2-1.2-1.4-2.1L538,440z"/>
				<path class="st2" d="M591.7,388.7l321.8-27.2c0.7-0.1,1.1,0.7,0.6,1.2l-35.4,42.1c-0.5,0.6-0.4,1.5,0.1,2l43.4,42.1
					c0.2,0.2,0.1,0.6-0.2,0.6l-323,27.3c-0.9,0.1-1.8-0.1-2.6-0.6l-57.8-35.8c-0.2-0.2-0.3-0.5-0.1-0.7l50.5-49.6
					C589.7,389.2,590.7,388.8,591.7,388.7z"/>
				<g>
					<path class="st10" d="M782.8,409l-179.4,14c-0.7,0.1-1.2-0.4-1.3-1.1l-0.6-8.3c-0.1-0.7,0.4-1.2,1.1-1.3l179.4-14
						c0.7-0.1,1.2,0.4,1.3,1.1l0.6,8.3C784,408.4,783.5,409,782.8,409z"/>
					<path class="st10" d="M782.9,437.4l-178,13.9c-0.7,0.1-1.2-0.4-1.3-1.1l-0.6-7.7c-0.1-0.7,0.4-1.2,1.1-1.3l178-13.9
						c0.7-0.1,1.2,0.4,1.3,1.1l0.6,7.7C784.1,436.7,783.6,437.3,782.9,437.4z"/>
				</g>
			</g>
			<g>
				
					<linearGradient id="SVGID_7_" gradientUnits="userSpaceOnUse" x1="843.0196" y1="1180.7542" x2="845.1297" y2="942.2914" gradientTransform="matrix(1 0 0 -1 0 938.2403)">
					<stop  offset="0" style="stop-color:#4F52FF"/>
					<stop  offset="1" style="stop-color:#4042E2"/>
				</linearGradient>
				<path class="st11" d="M1057.6,278.7l-3.5,1.4L994,241.1l-312.9,24l-43.6,2.5l1.8,6.8c0.3,0.8,46.7,36.6,46.7,36.6l-42.2,43.7
					l1.4,4.8c0.2,0.6,0.7,0.9,1.4,0.9l40.3-3.3l313.2-26c0.9-0.1,1.7-0.4,2.4-1l53.9-44.7c0.7-0.6,1.1-1.4,1.1-2.3L1057.6,278.7z"/>
				
					<linearGradient id="SVGID_8_" gradientUnits="userSpaceOnUse" x1="1060.8647" y1="829.1849" x2="1451.2666" y2="1130.9554" gradientTransform="matrix(1 0 0 -1 0 938.2403)">
					<stop  offset="0" style="stop-color:#4F52FF"/>
					<stop  offset="1" style="stop-color:#4042E2"/>
				</linearGradient>
				<path class="st12" d="M990.8,237.8l-352.5,29.3c-0.6,0-0.8,0.8-0.3,1.1l45.8,35.2c0.6,0.5,0.7,1.4,0.2,2L644.4,354
					c-0.2,0.2,0,0.6,0.3,0.6l353.5-29.4c1-0.1,2-0.5,2.7-1.1l56.2-45.1c0.2-0.2,0.2-0.5,0-0.7l-63.2-39.8
					C993,238,991.9,237.7,990.8,237.8z"/>
				<g>
					<path class="st10" d="M985.9,272.2l-175.2,13.7c-0.7,0.1-1.2-0.4-1.3-1.1l-0.7-8.6c-0.1-0.7,0.4-1.2,1.1-1.3L985,261.2
						c0.7-0.1,1.2,0.4,1.3,1.1l0.7,8.6C987,271.5,986.5,272.1,985.9,272.2z"/>
					<path class="st10" d="M986.1,301.3l-173.8,13.6c-0.7,0.1-1.2-0.4-1.3-1.1l-0.6-8c-0.1-0.7,0.4-1.2,1.1-1.3l173.8-13.6
						c0.7-0.1,1.2,0.4,1.3,1.1l0.6,8C987.3,300.7,986.8,301.3,986.1,301.3z"/>
				</g>
			</g>
			<g>
				
					<linearGradient id="SVGID_9_" gradientUnits="userSpaceOnUse" x1="793.0162" y1="801.1481" x2="756.605" y2="633.315" gradientTransform="matrix(1 0 0 -1 0 938.2403)">
					<stop  offset="0" style="stop-color:#E1473D"/>
					<stop  offset="1" style="stop-color:#E9605A"/>
				</linearGradient>
				<circle class="st13" cx="785.1" cy="173.7" r="12.5"/>
				
					<linearGradient id="SVGID_10_" gradientUnits="userSpaceOnUse" x1="785.3016" y1="795.1938" x2="786.1123" y2="758.261" gradientTransform="matrix(1 0 0 -1 0 938.2403)">
					<stop  offset="0" style="stop-color:#E1473D"/>
					<stop  offset="1" style="stop-color:#E9605A"/>
				</linearGradient>
				<circle class="st14" cx="785.9" cy="171.7" r="7.7"/>
			</g>
			<g>
				
					<linearGradient id="SVGID_11_" gradientUnits="userSpaceOnUse" x1="790.7415" y1="672.6703" x2="755.6707" y2="511.0164" gradientTransform="matrix(1 0 0 -1 0 938.2403)">
					<stop  offset="0" style="stop-color:#E1473D"/>
					<stop  offset="1" style="stop-color:#E9605A"/>
				</linearGradient>
				<circle class="st15" cx="783.1" cy="300.8" r="12.1"/>
				
					<linearGradient id="SVGID_12_" gradientUnits="userSpaceOnUse" x1="783.311" y1="666.9352" x2="784.0919" y2="631.3621" gradientTransform="matrix(1 0 0 -1 0 938.2403)">
					<stop  offset="0" style="stop-color:#E1473D"/>
					<stop  offset="1" style="stop-color:#E9605A"/>
				</linearGradient>
				<circle class="st16" cx="783.9" cy="298.9" r="7.4"/>
			</g>
			<g>
				
					<linearGradient id="SVGID_13_" gradientUnits="userSpaceOnUse" x1="791.7794" y1="560.0132" x2="755.3464" y2="392.0804" gradientTransform="matrix(1 0 0 -1 0 938.2403)">
					<stop  offset="0" style="stop-color:#E1473D"/>
					<stop  offset="1" style="stop-color:#E9605A"/>
				</linearGradient>
				<circle class="st17" cx="783.8" cy="414.8" r="12.5"/>
				
					<linearGradient id="SVGID_14_" gradientUnits="userSpaceOnUse" x1="784.0602" y1="554.0554" x2="784.8713" y2="517.1006" gradientTransform="matrix(1 0 0 -1 0 938.2403)">
					<stop  offset="0" style="stop-color:#E1473D"/>
					<stop  offset="1" style="stop-color:#E9605A"/>
				</linearGradient>
				<circle class="st18" cx="784.7" cy="412.9" r="7.7"/>
			</g>
			<g>
				<path class="st10" d="M747.6,153.9l-160.3-25.3c-0.7-0.1-1.1-0.7-1-1.4l1.2-7.7c0.1-0.7,0.7-1.1,1.4-1l160.3,25.3
					c0.7,0.1,1.1,0.7,1,1.4l-1.2,7.7C748.9,153.6,748.3,154,747.6,153.9z"/>
				<path class="st10" d="M741.5,180.2l-159.1-25.1c-0.7-0.1-1.1-0.7-1-1.4l1.1-7.2c0.1-0.7,0.7-1.1,1.4-1l159.1,25.1
					c0.7,0.1,1.1,0.7,1,1.4l-1.1,7.2C742.8,179.9,742.2,180.3,741.5,180.2z"/>
			</g>
		</g>
		<g>
			<g>
				
					<linearGradient id="SVGID_15_" gradientUnits="userSpaceOnUse" x1="532.5131" y1="441.5406" x2="305.0487" y2="-434.1963" gradientTransform="matrix(-1 0 0 -1 947.8368 938.2403)">
					<stop  offset="0" style="stop-color:#4F52FF"/>
					<stop  offset="1" style="stop-color:#4042E2"/>
				</linearGradient>
				<path class="st19" d="M516.3,510.4c-99.3-2.6-209,24.1-209,24.1c-26.1,144.2-14.6,307.4-10.2,356.8c0.8,9.3,7.8,16.8,16.9,18.4
					c51.3,9.4,105.4,3.7,132.6-0.4c10.6-1.6,19-9.6,21.3-20.1c18-83.7,69.3-268.3,69.3-268.3c48.6-5.6,88.6-19.2,121.7-37.4
					c-24.8-29.3-36.3-66.5-41.2-88.4C582.5,505.7,546.9,511.2,516.3,510.4z"/>
				
					<linearGradient id="SVGID_16_" gradientUnits="userSpaceOnUse" x1="11564.2412" y1="519.177" x2="11756.2363" y2="519.177" gradientTransform="matrix(1 9.500000e-03 9.500000e-03 -1 -10951.2344 877.8727)">
					<stop  offset="0" style="stop-color:#FEBBBA"/>
					<stop  offset="1" style="stop-color:#FF928E"/>
				</linearGradient>
				<path class="st20" d="M810.9,367c-9.6-11.9-18.7-11.4-18.7-11.4c-15.2,61.6-95.6,115.8-174.5,139.5
					c4.9,21.9,16.4,59.1,41.2,88.4C790.2,511.4,810.9,367,810.9,367z"/>
			</g>
			<g>
				
					<linearGradient id="SVGID_17_" gradientUnits="userSpaceOnUse" x1="-1920.8611" y1="550.4583" x2="-1792.03" y2="257.3387" gradientTransform="matrix(-1 -9.500000e-03 9.500000e-03 -1 -1158.6353 971.8349)">
					<stop  offset="0" style="stop-color:#FEBBBA"/>
					<stop  offset="1" style="stop-color:#FF928E"/>
				</linearGradient>
				<path class="st21" d="M808.5,370c1,3.3-10.9,8.1-17.7-5.3c-0.2-6.4-3.8-33.6,0.1-38.8c20.5-27.4,60.1-61.6,60.1-61.6
					c6.6,6.6,1,13,1,13l-19.2,19.6c3.9,7.2,8.7,13.4,10.9,22.1c1.7,6.6,0.5,13.6-2.8,19.6c-3.4,6-8,13.8-12.4,19.8
					C820.2,370,808.5,370,808.5,370z"/>
				
					<linearGradient id="SVGID_18_" gradientUnits="userSpaceOnUse" x1="11755.3164" y1="647.1451" x2="11809.0732" y2="729.7961" gradientTransform="matrix(1 9.500000e-03 9.500000e-03 -1 -10951.2344 877.8727)">
					<stop  offset="0" style="stop-color:#FEBBBA"/>
					<stop  offset="1" style="stop-color:#FF928E"/>
				</linearGradient>
				<path class="st22" d="M824.3,309.7l-17.5,14.5l-5.6,14.6l15.3,17.3c0,0,5.5-29,9.4-35.2C829.9,314.7,827.9,311.6,824.3,309.7z"
					/>
			</g>
			
				<linearGradient id="SVGID_19_" gradientUnits="userSpaceOnUse" x1="705.6984" y1="396.344" x2="483.2406" y2="-460.1168" gradientTransform="matrix(-1 0 0 -1 947.8368 938.2403)">
				<stop  offset="0" style="stop-color:#4F52FF"/>
				<stop  offset="1" style="stop-color:#4042E2"/>
			</linearGradient>
			<path class="st23" d="M344.4,631l-37.2-96.5c0,0-93.3,62.1-109.3,141.8c17.5,1.5,49.3,6.3,80.4,22.4
				C285.5,661,344.4,631,344.4,631z"/>
			
				<linearGradient id="SVGID_20_" gradientUnits="userSpaceOnUse" x1="11144.1162" y1="245.4167" x2="11387.0811" y2="245.4167" gradientTransform="matrix(1 9.500000e-03 9.500000e-03 -1 -10951.2344 877.8727)">
				<stop  offset="0" style="stop-color:#FEBBBA"/>
				<stop  offset="1" style="stop-color:#FF928E"/>
			</linearGradient>
			<path class="st24" d="M424.6,722.2c0,0-104.7,57.8-139.3,7.3c-7.2-10.5-8.8-20.9-6.9-30.8c-31.1-16.1-62.9-20.9-80.4-22.4
				c-4.8,24-2.6,49.7,11.3,75.7c60.5,113.1,228.9-4,228.9-4L424.6,722.2z"/>
			
				<linearGradient id="SVGID_21_" gradientUnits="userSpaceOnUse" x1="11330.6875" y1="505.156" x2="11426.752" y2="505.156" gradientTransform="matrix(1 9.500000e-03 9.500000e-03 -1 -10951.2344 877.8727)">
				<stop  offset="0" style="stop-color:#FEBBBA"/>
				<stop  offset="1" style="stop-color:#FF928E"/>
			</linearGradient>
			<path class="st25" d="M416.5,428.9l-32.5,91c-0.5,1.5,0.1,3.2,1.5,4c8.6,4.8,39.5,18.9,77.1-4.4c3.9-2.4,6.6-6.4,7.2-11l11-79
				L416.5,428.9z"/>
			<g>
				
					<linearGradient id="SVGID_22_" gradientUnits="userSpaceOnUse" x1="3804.9663" y1="-4349.9072" x2="3769.0686" y2="-4231.5078" gradientTransform="matrix(0.7523 -0.6588 -0.6588 -0.7523 -5224.4492 -345.3465)">
					<stop  offset="0" style="stop-color:#FEBBBA"/>
					<stop  offset="1" style="stop-color:#FF928E"/>
				</linearGradient>
				<path class="st26" d="M486.1,344.9c0,0,34.1,65.6,29.4,92c-4.7,26.3-47.7,24-85,2.2l-25.6-70.7L486.1,344.9z"/>
				
					<linearGradient id="SVGID_23_" gradientUnits="userSpaceOnUse" x1="3772.5823" y1="-4143.6133" x2="3802.6101" y2="-4314.8838" gradientTransform="matrix(0.7523 -0.6588 -0.6588 -0.7523 -5224.4492 -345.3465)">
					<stop  offset="0" style="stop-color:#09005D"/>
					<stop  offset="1" style="stop-color:#1A0F91"/>
				</linearGradient>
				<path class="st27" d="M432.4,404.5c1.5-0.7,2.1-2.5,1.2-3.9c-2.7-4.3-7.9-13-9.5-20.6c0,0-6.2-4.1,16-9.1
					c22.2-5.1,55.2-13,62.3-31.7c6.9-18.3-10.4-64.6-39-28.1c-1.1,1.4-3.2,1.4-4.3,0c-4.6-6.1-16.7-18.7-33.7-11.3
					c-15.9,7-17.8,18.6-17.7,24.4c0,1.7-1.5,3-3.2,2.7c-8-1.6-27.2-3.1-36.4,16.5c-7.6,16.2-2.8,25.4,1.5,30
					c1.4,1.5,0.8,3.9-1.2,4.4c-5.3,1.6-12.1,6-11.6,18.3c0.8,17.1,19.9,15.8,25.3,15c0.9-0.1,1.8,0.2,2.4,0.9
					c4.6,5.2,25.4,27.3,48.1,30.1c2,0.2,3.5-1.7,2.9-3.6L426,410c-0.4-1.3,0.2-2.8,1.5-3.3L432.4,404.5z"/>
				
					<linearGradient id="SVGID_24_" gradientUnits="userSpaceOnUse" x1="3768.271" y1="-4349.3545" x2="3735.9731" y2="-4242.8281" gradientTransform="matrix(0.7523 -0.6588 -0.6588 -0.7523 -5224.4492 -345.3465)">
					<stop  offset="0" style="stop-color:#FEBBBA"/>
					<stop  offset="1" style="stop-color:#FF928E"/>
				</linearGradient>
				<path class="st28" d="M436.3,408.6c0,0-24.5-17.2-26.5-2.9c-1.9,14.3,22,20.9,34,15.7L436.3,408.6z"/>
			</g>
			<g>
				<g>
					
						<linearGradient id="SVGID_25_" gradientUnits="userSpaceOnUse" x1="11176.6865" y1="354.2956" x2="11310.7529" y2="-204.3204" gradientTransform="matrix(1 0 0 -1 -10673.3584 938.2403)">
						<stop  offset="0" style="stop-color:#09005D"/>
						<stop  offset="1" style="stop-color:#1A0F91"/>
					</linearGradient>
					<path class="st29" d="M403.2,813.6l57-199.1c0.6-2.3,2.6-3.9,4.9-4.2c10.3-1.2,40.3-4.6,74.8-7.5c41.6-3.5,90-6.4,118.9-3.9
						c4.1,0.3,6.6,4.7,4.8,8.4c-16.4,33.2-84,168.4-117.8,212.7c-1.1,1.5-2.9,2.3-4.7,2.3L408.7,821
						C404.9,821,402.1,817.3,403.2,813.6z"/>
					
						<linearGradient id="SVGID_26_" gradientUnits="userSpaceOnUse" x1="11084.8193" y1="206.512" x2="11160.7783" y2="206.512" gradientTransform="matrix(1 0 0 -1 -10673.3584 938.2403)">
						<stop  offset="0" style="stop-color:#FEBBBA"/>
						<stop  offset="1" style="stop-color:#FF928E"/>
					</linearGradient>
					<path class="st30" d="M417,765.5c0,0-7.9-32.7-4.7-44.2c3.2-11.6,9.4-26.5,30.1-23.2c20.7,3.3,45.1,12,45.1,12
						s-1.2,15.1-17,10.2l9.8,7.5c0,0-1.4,12.1-14.7,5.6l9.1,10c0,0-5.7,9.9-15.5,3.6C449.4,740.7,444.7,769.4,417,765.5z"/>
				</g>
				<path class="st2" d="M536.1,662.2c0,9.2,7.5,16.7,16.7,16.7c9.2,0,16.7-7.5,16.7-16.7c0-9.2-7.5-16.7-16.7-16.7
					C543.6,645.5,536.1,653,536.1,662.2z"/>
				<path class="st3" d="M466.7,673.3l11.6-39.4c1.4-4.8,5.3-8.5,10.1-9.5c36.4-7.6,136-9.2,137-9.2l-0.1-4.4
					c-4.1,0.1-101,1.6-137.8,9.3c-6.4,1.3-11.6,6.2-13.5,12.6L462.4,672L466.7,673.3z"/>
			</g>
		</g>
		<g>
			<path class="st2" d="M801.3,909.3c-1.2-0.2-2.2-0.9-2.9-1.8c-9.9-14.3-81.6-125.7,21.6-222.1c98-91.5,141.6-109.6,149.1-165
				c0.9-6.5,9.7-7.7,12.4-1.8c20.2,44.4,50.5,147.5-62.8,210.9C793.7,799.4,801.2,880.8,806.4,904C807,907,804.4,909.8,801.3,909.3
				L801.3,909.3z"/>
			<path class="st2" d="M816.5,911.8c-2.8-0.5-4.9-2.7-5.3-5.5c-2.3-19-7.3-90.1,45.5-107.2c58.1-18.8,102.8,36.1,146.3-4.4
				c2.3-2.1,6-0.1,5.3,3c-4.5,21.8-22.8,71.9-97.6,79.7c-80.1,8.4-89.3,17.2-88.1,28.6C823.1,909.5,820,912.4,816.5,911.8
				L816.5,911.8z"/>
			<path class="st31" d="M964,576.7c-1.2,4-2.7,7.7-4.5,11.5c-1.7,3.7-3.6,7.3-5.7,10.9c-2.1,3.5-4.3,7-6.6,10.3
				c-2.4,3.3-4.8,6.6-7.5,9.8c-10.4,12.6-22.8,23.6-36.4,32.9c-6.7,4.6-13.9,8.8-21,12.6c-7,3.8-13.8,8-20.3,12.7
				c-13,9.3-25,20.1-35.5,32.2C816,721.6,807,735,799.8,749.3c-7.2,14.3-12.3,29.6-15.1,45.4c-2.8,15.8-3.2,32-1.4,47.9
				c1.8,16,6,31.7,11.7,46.7c0.2,0.4-0.1,0.9-0.5,1.1c-0.4,0.2-0.9,0-1.1-0.5c-6.2-15-10.8-30.8-13-47c-1.1-8.1-1.6-16.3-1.6-24.5
				c0.1-8.2,0.8-16.4,2.2-24.4c2.6-16.2,7.7-31.9,14.9-46.7c7.2-14.8,16.4-28.5,27.1-40.9c10.7-12.4,22.9-23.5,36.2-33.1
				c6.7-4.8,13.6-9.2,20.8-13.1l5.3-2.9c1.8-0.9,3.5-2,5.2-3l2.6-1.5l2.5-1.6l2.5-1.6l2.5-1.7c6.6-4.5,13-9.3,19.1-14.5
				c6-5.2,11.8-10.8,17-16.9c5.3-6,10.2-12.4,14.6-19.1c4.4-6.7,8.3-13.8,11.2-21.2l0,0c0.2-0.4,0.6-0.6,1-0.4
				C963.9,576,964.1,576.4,964,576.7z"/>
			<path class="st31" d="M814.1,898.9c0.1-0.7,0.1-1.3,0.1-2l0-1.9c0-1.3,0-2.6,0.1-3.9c0.1-2.6,0.2-5.2,0.5-7.8
				c0.4-5.2,1-10.3,1.9-15.5c1.8-10.2,4.5-20.4,9-29.9c2.2-4.7,5-9.2,8.3-13.3c3.3-4.1,7.3-7.7,11.8-10.5c4.5-2.7,9.6-4.6,14.8-5.5
				c2.6-0.5,5.2-0.7,7.9-0.7c2.6-0.1,5.3,0.1,7.9,0.4c2.6,0.3,5.2,0.8,7.7,1.2l7.7,1.4c5.1,0.9,10.2,1.9,15.3,2.9
				c10.2,2,20.3,4.2,30.5,6.1c5.1,0.9,10.2,1.8,15.3,2.3c5.1,0.5,10.3,0.7,15.3,0.1c5.1-0.5,10-2,14.5-4.4c4.5-2.4,8.4-5.7,12-9.4
				c0.3-0.3,0.7-0.3,1,0c0.3,0.3,0.3,0.7,0,1c-3.5,3.8-7.6,7.3-12.2,9.9c-4.6,2.6-9.8,4.1-15,4.8c-5.2,0.6-10.5,0.4-15.7-0.1
				c-5.2-0.5-10.3-1.3-15.4-2.2c-10.2-1.9-20.3-4-30.5-6c-10.1-2-20.4-3.9-30.5-5.4c-2.5-0.3-5.1-0.5-7.6-0.5
				c-2.5,0-5.1,0.2-7.6,0.6c-5,0.8-9.8,2.6-14.2,5.2c-4.3,2.6-8.2,6.1-11.4,10c-3.2,3.9-5.9,8.3-8.2,13c-4.5,9.2-7.3,19.3-9.1,29.4
				c-0.9,5.1-1.6,10.2-2.1,15.3c-0.2,2.6-0.4,5.2-0.5,7.7c-0.1,1.3-0.1,2.6-0.1,3.9l0,1.9c0,0.6,0,1.3,0.1,1.9
				c0.1,0.3-0.1,0.6-0.4,0.7c-0.3,0.1-0.6-0.1-0.7-0.4C814.1,899,814.1,898.9,814.1,898.9z"/>
		</g>
	</g>
</g>
</svg>
