<?xml version="1.0" encoding="utf-8"?>
<!-- Generator: Adobe Illustrator 24.2.3, SVG Export Plug-In . SVG Version: 6.00 Build 0)  -->
<svg version="1.1" id="Calque_1" xmlns="http://www.w3.org/2000/svg" xmlns:xlink="http://www.w3.org/1999/xlink" x="0px" y="0px"
	 viewBox="0 0 716.3 716.3" style="enable-background:new 0 0 716.3 716.3;" xml:space="preserve">
<style type="text/css">
	.st0{fill:url(#SVGID_1_);}
	.st1{fill:#91B3FA;}
	.st2{opacity:0.47;fill:#FFFFFF;enable-background:new    ;}
	.st3{fill:url(#SVGID_2_);}
	.st4{fill:url(#SVGID_3_);}
	.st5{fill:url(#SVGID_4_);}
	.st6{fill:url(#SVGID_5_);}
	.st7{opacity:0.63;fill:#FFFFFF;enable-background:new    ;}
	.st8{opacity:0.3;}
	.st9{fill:#BDD0FB;}
	.st10{opacity:0.85;fill:#FFFFFF;enable-background:new    ;}
	.st11{fill:url(#SVGID_6_);}
	.st12{fill:url(#SVGID_7_);}
	.st13{fill:url(#SVGID_8_);}
	.st14{fill:url(#SVGID_9_);}
	.st15{fill:url(#SVGID_10_);}
	.st16{fill:url(#SVGID_11_);}
	.st17{fill:url(#SVGID_12_);}
	.st18{fill:url(#SVGID_13_);}
	.st19{fill:url(#SVGID_14_);}
	.st20{fill:url(#SVGID_15_);}
	.st21{fill:url(#SVGID_16_);}
	.st22{fill:url(#SVGID_17_);}
	.st23{fill:url(#SVGID_18_);}
	.st24{fill:url(#SVGID_19_);}
	.st25{fill:url(#SVGID_20_);}
	.st26{fill:url(#SVGID_21_);}
	.st27{fill:url(#SVGID_22_);}
	.st28{fill:url(#SVGID_23_);}
	.st29{fill:url(#SVGID_24_);}
	.st30{fill:url(#SVGID_25_);}
	.st31{fill:url(#SVGID_26_);}
	.st32{fill:url(#SVGID_27_);}
</style>
<g id="Illustration">
	<g>
		
			<linearGradient id="SVGID_1_" gradientUnits="userSpaceOnUse" x1="668.296" y1="-45.5059" x2="219.6546" y2="511.6784" gradientTransform="matrix(1 0 0 -1 0 716.2958)">
			<stop  offset="0" style="stop-color:#DAE3FE"/>
			<stop  offset="1" style="stop-color:#E9EFFD"/>
		</linearGradient>
		<path class="st0" d="M544.9,542.1c-10.3,10.8-20.1,17.8-27.8,23.4c-90.6,65-197.7,46-220.5,41.4C263,600,198,586.8,151,531.6
			c-71.1-83.6-60-215.3-4.9-302.3c10.1-15.9,63.4-104.2,171.7-118.3c65.5-8.6,142,8.7,197.3,55.1C631.2,263.3,623,459.9,544.9,542.1
			z"/>
		<g>
			<path class="st1" d="M444.3,596c-0.9-0.1-1.7-0.6-2.2-1.3c-7.6-10.3-63.2-90.9,10.7-164.6c70.2-70,102-84.3,106.3-125.4
				c0.5-4.8,7-6,9.1-1.6c16,32.3,40.8,107.8-41.4,157.3C436,515,443.5,574.9,447.9,591.9C448.4,594.2,446.6,596.3,444.3,596
				L444.3,596z"/>
			<path class="st1" d="M455.5,597.5c-2.1-0.3-3.7-1.9-4-3.9c-2.2-14-7.5-66.4,31.1-80.3c42.5-15.3,76.8,24.3,108-6.7
				c1.6-1.6,4.4-0.2,4,2.1c-2.8,16.2-15.2,53.6-70.2,61.2c-59,8.1-65.6,14.8-64.4,23.2C460.4,595.6,458.1,597.8,455.5,597.5
				L455.5,597.5z"/>
			<path class="st2" d="M557.1,346.6c-0.7,3-1.7,5.9-2.8,8.8c-1.1,2.8-2.4,5.6-3.8,8.3c-2.8,5.4-6.1,10.6-9.8,15.5
				c-7.4,9.8-16.3,18.3-26.1,25.6c-4.9,3.6-10.2,6.9-15.3,9.9c-5,2.9-9.9,6.2-14.6,9.8c-9.3,7.1-17.8,15.3-25.2,24.4
				c-14.9,18.1-25.4,39.9-28.9,63.1c-1.8,11.6-1.8,23.4-0.2,35.1c1.6,11.7,4.9,23.1,9.3,34.2c0.2,0.6,0,1.3-0.6,1.5
				c-0.6,0.2-1.2,0-1.5-0.6c-5.1-10.9-9-22.5-11.1-34.5c-1.1-6-1.7-12.1-1.9-18.2c-0.1-6.1,0.1-12.2,0.9-18.3
				c1.5-12.1,4.9-24,9.8-35.2c4.9-11.2,11.5-21.7,19.1-31.2c7.6-9.6,16.5-18.1,26.2-25.6c4.9-3.7,9.9-7.2,15.2-10.3
				c5.2-3,10.1-6,14.9-9.4c9.5-6.8,18.3-14.6,25.9-23.6c3.8-4.4,7.3-9.2,10.5-14.1c3.1-5,6-10.2,8.1-15.6l0-0.1
				c0.2-0.5,0.8-0.8,1.4-0.6C556.9,345.5,557.2,346.1,557.1,346.6z"/>
			<path class="st2" d="M453.1,588c0.2-0.5,0.1-1,0.1-1.5l0-1.4l0-2.9c0-1.9,0-3.8,0.1-5.8c0.2-3.8,0.5-7.7,1-11.5
				c1-7.6,2.8-15.2,5.9-22.4c3-7.1,7.7-13.9,14.4-18.4c3.3-2.2,7.1-3.7,11-4.5c3.9-0.8,7.9-0.9,11.8-0.6c15.3,1.8,30.4,4.7,45.5,7.1
				c7.5,1.1,15.1,2.1,22.5,1.1c1.8-0.3,3.6-0.7,5.4-1.2c1.7-0.6,3.4-1.3,5-2.2c3.2-1.8,6-4.3,8.5-7.1l0,0c0.3-0.4,0.9-0.4,1.3-0.1
				c0.4,0.3,0.4,0.9,0.1,1.3c-2.6,2.9-5.5,5.7-8.9,7.7c-1.7,1-3.5,1.9-5.4,2.5c-1.9,0.7-3.8,1.1-5.8,1.4c-7.9,1.2-15.6,0.2-23.2-0.9
				c-7.6-1.1-15.1-2.5-22.7-3.7c-7.5-1.2-15.1-2.4-22.6-3.3c-3.7-0.4-7.4-0.3-11,0.5c-3.6,0.7-7.1,2.1-10.2,4.1
				c-6.2,4-10.8,10.3-13.8,17.1c-3.1,6.9-5,14.3-6.1,21.8c-0.6,3.8-1,7.5-1.2,11.4c-0.1,1.9-0.2,3.8-0.2,5.7l0,2.9l0,1.4
				c0,0.5,0,1,0.2,1.4c0.2,0.4,0.1,1-0.4,1.2c-0.4,0.2-1,0.1-1.2-0.4C453,588.5,453,588.2,453.1,588L453.1,588z"/>
		</g>
		<g>
			<g>
				
					<linearGradient id="SVGID_2_" gradientUnits="userSpaceOnUse" x1="991.8464" y1="958.5308" x2="54.2811" y2="159.3863" gradientTransform="matrix(1 0 0 -1 0 716.2958)">
					<stop  offset="0" style="stop-color:#E1473D"/>
					<stop  offset="1" style="stop-color:#E9605A"/>
				</linearGradient>
				<path class="st3" d="M372.9,109.1c-23.1-0.2-46.4,3.5-67.1,12c-48,19.9-88.8,72.7-72.8,126.5c5.2,17.5,2.5,36.8,19.9,44.4
					c9.4,4.1,35.1,6.6,44.9,3.3c26-8.6,43-32.2,28.9-58.4c-4.5-8.4-10.4-16-14.3-24.7c-3.9-8.7-5.7-19-1.7-27.6
					c7.8-17,33.8-22.4,50.6-21.9c19.9,0.6,37.9,10.4,48.6,27.3c13.3,21,16.7,46.6,14.7,70.9c-2.1,26.1-13.1,46-29.6,66
					c-14.2,17.2-29.8,33.8-39.3,54c-8.7,18.6-11.5,39.2-11.9,59.5c-0.1,3.9-19.7,41.1-19.6,52.4c0,1.6,22.2,6.9,23.8,6.9
					c8.4,0.1,32,0.4,40.8,0.5c1.8,0,3.3-1.4,3.3-3.2c0.6-55.2,17.6-107.8,60.5-144.8c15.6-13.5,32.5-24.5,44.6-41.5
					c17.3-24.3,25.9-48.1,23.4-78.1c-2.3-27.3-11.3-54.7-29.1-75.9c-19.2-22.8-47.2-37-76.3-43.2
					C401.7,110.8,387.3,109.2,372.9,109.1z"/>
				
					<linearGradient id="SVGID_3_" gradientUnits="userSpaceOnUse" x1="1128.5925" y1="798.0992" x2="191.026" y2="-1.0467" gradientTransform="matrix(1 0 0 -1 0 716.2958)">
					<stop  offset="0" style="stop-color:#E1473D"/>
					<stop  offset="1" style="stop-color:#E9605A"/>
				</linearGradient>
				<path class="st4" d="M415.5,562.2c0,25.4-14.1,47.8-39.4,47.8c-5.5,0-24.1,0.1-29-1.7c-17.7-6.4-17.7-20-17.7-39.9
					c0-25.4,8.6-50.3,33.9-50.3C388.7,518.1,415.5,536.8,415.5,562.2z"/>
			</g>
			<g>
				
					<linearGradient id="SVGID_4_" gradientUnits="userSpaceOnUse" x1="116.5885" y1="197.841" x2="930.4982" y2="1059.7369" gradientTransform="matrix(1 0 0 -1 0 716.2958)">
					<stop  offset="0" style="stop-color:#FF928E"/>
					<stop  offset="1" style="stop-color:#FE7062"/>
				</linearGradient>
				<path class="st5" d="M350.9,103.3c-23.1-0.2-46.4,3.5-67.1,12c-48,19.9-88.8,72.7-72.8,126.5c5.2,17.5,17.2,39.5,34.6,47.1
					c9.4,4.1,20.4,3.8,30.2,0.6c26-8.6,43-32.2,28.9-58.4c-4.5-8.4-10.4-16-14.3-24.7s-5.7-19-1.7-27.6c7.8-17,33.8-22.4,50.6-21.9
					c19.9,0.6,37.9,10.4,48.6,27.3c13.3,21,16.7,46.6,14.7,70.9c-2.1,26.1-13.1,46-29.6,66c-14.2,17.2-29.8,33.8-39.3,54
					c-8.7,18.6-11.5,39.2-11.9,59.5c-0.1,3.9,1.3,45.1,1.3,56.4c0,1.6,1.3,2.9,2.9,2.9c8.4,0.1,32,0.4,40.8,0.5
					c1.8,0,3.3-1.4,3.3-3.2c0.6-55.2,17.6-107.8,60.5-144.8c15.6-13.5,32.5-24.5,44.6-41.5c17.3-24.3,25.9-48.1,23.4-78.1
					c-2.3-27.3-11.3-54.7-29.1-75.9c-19.2-22.8-47.2-37-76.3-43.2C379.7,105,365.4,103.4,350.9,103.3z"/>
				
					<linearGradient id="SVGID_5_" gradientUnits="userSpaceOnUse" x1="447.5606" y1="257.7697" x2="263.028" y2="53.8612" gradientTransform="matrix(1 0 0 -1 0 716.2958)">
					<stop  offset="0" style="stop-color:#FF928E"/>
					<stop  offset="1" style="stop-color:#FE7062"/>
				</linearGradient>
				<circle class="st6" cx="353.3" cy="562.7" r="45.9"/>
			</g>
			<path class="st7" d="M226.2,236.6c-0.3,0-0.5-0.2-0.6-0.5c-3.2-14.5-3.7-37.3,12.3-63.2c15.6-25.3,37.6-42.2,65.2-50.3
				c29.5-8.6,64.6-6.8,104.3,5.5c0.3,0.1,0.5,0.4,0.4,0.7c-0.1,0.3-0.4,0.5-0.7,0.4c-76.2-23.6-135.9-7.9-168.1,44.3
				c-15.8,25.6-15.4,48-12.2,62.3c0.1,0.3-0.1,0.6-0.4,0.7C226.3,236.6,226.3,236.6,226.2,236.6z"/>
			<path class="st7" d="M235.9,260c-0.2,0-0.4-0.1-0.5-0.2c-0.1-0.2-3.5-4.8-6.5-12.8c-0.1-0.3,0-0.6,0.3-0.8c0.3-0.1,0.6,0,0.8,0.3
				c3,7.9,6.3,12.5,6.4,12.5c0.2,0.3,0.1,0.6-0.1,0.8C236.1,260,236,260,235.9,260z"/>
			<path class="st7" d="M368.7,532.9c-0.1,0-0.2,0-0.3-0.1c-4.7-2.4-9.8-3.6-15.1-3.6c-0.3,0-0.6-0.3-0.6-0.6s0.3-0.6,0.6-0.6
				c5.5,0,10.8,1.3,15.6,3.7c0.3,0.1,0.4,0.5,0.3,0.8C369.1,532.8,368.9,532.9,368.7,532.9z"/>
			<path class="st7" d="M334.3,591.5c-0.1,0-0.2,0-0.3-0.1c-9.6-6.5-15.3-17.2-15.3-28.7c0-12.8,7-24.5,18.2-30.5
				c0.3-0.2,0.6,0,0.8,0.2c0.2,0.3,0,0.6-0.2,0.8c-10.9,5.8-17.6,17.1-17.6,29.5c0,11.1,5.5,21.5,14.7,27.7c0.3,0.2,0.3,0.5,0.2,0.8
				C334.7,591.4,334.5,591.5,334.3,591.5z"/>
		</g>
		<g>
			<g>
				<g class="st8">
					<path class="st1" d="M200.5,189.2c-0.5,0.6-1.4,0.7-2,0.2c-1.2-0.9-2.4-1.8-3.6-2.7c-0.6-0.4-0.8-1.3-0.4-1.9c0,0,0,0,0,0
						c0.4-0.6,1.3-0.8,1.9-0.4c1.3,0.9,2.6,1.8,3.8,2.8c0.6,0.5,0.7,1.2,0.3,1.8C200.6,189.2,200.5,189.2,200.5,189.2z M188.6,183.1
						c-1.3-0.7-2.7-1.3-4.1-1.8c-0.7-0.3-1.1-1.1-0.8-1.8c0.3-0.7,1.1-1.1,1.8-0.8c1.5,0.6,2.9,1.2,4.3,1.9c0.7,0.3,1,1.2,0.6,1.9
						c0,0.1-0.1,0.1-0.1,0.1C190,183.2,189.3,183.4,188.6,183.1z M177.5,179.1c-1.5-0.3-2.9-0.6-4.4-0.9c-0.8-0.1-1.3-0.8-1.2-1.6
						c0.1-0.8,0.8-1.3,1.6-1.2c1.6,0.2,3.1,0.5,4.7,0.9c0.7,0.2,1.2,0.9,1,1.7c0,0.2-0.1,0.3-0.2,0.4
						C178.7,179,178.1,179.2,177.5,179.1z M165.8,177.7c-1.5,0-3,0-4.5,0.2c-0.8,0.1-1.4-0.5-1.5-1.3c-0.1-0.8,0.5-1.4,1.3-1.5
						c1.6-0.1,3.2-0.2,4.7-0.2c0.8,0,1.4,0.6,1.4,1.4c0,0.3-0.1,0.5-0.2,0.7C166.7,177.4,166.3,177.7,165.8,177.7z M154.1,178.9
						c-1.5,0.3-2.9,0.7-4.4,1.1c-0.7,0.2-1.5-0.2-1.7-0.9c-0.2-0.7,0.2-1.5,0.9-1.7c1.5-0.5,3-0.9,4.6-1.2c0.7-0.2,1.5,0.3,1.7,1.1
						c0.1,0.4,0,0.8-0.2,1.1C154.7,178.6,154.4,178.8,154.1,178.9z M142.9,182.7c-1.4,0.6-2.7,1.3-4,2.1c-0.7,0.4-1.5,0.2-1.9-0.5
						c-0.4-0.7-0.2-1.5,0.5-1.9c1.4-0.8,2.8-1.5,4.2-2.2c0.7-0.3,1.5,0,1.8,0.7c0.2,0.5,0.2,1-0.1,1.3
						C143.3,182.4,143.1,182.5,142.9,182.7z M111.6,223.7c-0.8-0.1-1.3-0.8-1.2-1.6c0.2-1.6,0.5-3.1,0.9-4.7c0.2-0.7,0.9-1.2,1.7-1
						c0.7,0.2,1.2,0.9,1,1.7c-0.4,1.5-0.6,2.9-0.9,4.4c0,0.2-0.1,0.4-0.2,0.5C112.6,223.5,112.1,223.8,111.6,223.7z M132.8,188.8
						c-1.2,0.9-2.3,1.9-3.4,2.9c-0.6,0.5-1.4,0.5-2-0.1c-0.5-0.6-0.5-1.4,0.1-2c1.2-1.1,2.4-2.1,3.6-3.1c0.6-0.5,1.5-0.4,2,0.2
						c0.4,0.5,0.4,1.1,0.1,1.6C133.1,188.6,133,188.7,132.8,188.8z M114.4,211.9c-0.7-0.3-1.1-1.1-0.8-1.8c0.6-1.5,1.2-2.9,1.9-4.3
						c0.3-0.7,1.2-1,1.9-0.6c0.7,0.3,1,1.2,0.6,1.9c-0.7,1.3-1.3,2.7-1.8,4.1c0,0.1-0.1,0.2-0.1,0.2
						C115.7,211.9,115,212.2,114.4,211.9z M124.4,197.1c-0.9,1.2-1.8,2.4-2.7,3.6c-0.4,0.6-1.3,0.8-1.9,0.4
						c-0.6-0.4-0.8-1.3-0.4-1.9c0,0,0,0,0,0c0.9-1.3,1.8-2.6,2.8-3.8c0.5-0.6,1.4-0.7,2-0.2c0.6,0.5,0.7,1.2,0.3,1.8
						C124.5,197,124.4,197,124.4,197.1z"/>
					<path class="st1" d="M112.4,232.8c0.1-0.2,0.2-0.5,0.2-0.8c0-0.7,0-1.4,0-2.2c0-0.8-0.6-1.4-1.4-1.4c-0.8,0-1.4,0.6-1.4,1.4
						c0,0.8,0,1.5,0,2.3c0,0.8,0.7,1.4,1.4,1.3C111.7,233.4,112.1,233.2,112.4,232.8z"/>
				</g>
				<g class="st8">
					<path class="st1" d="M130.1,271.3c0.4-0.6,0.3-1.3-0.2-1.8c-0.5-0.5-1.1-1-1.6-1.5c-0.5-0.5-1.4-0.5-2,0c-0.5,0.6-0.5,1.4,0,2
						c0.5,0.5,1.1,1.1,1.7,1.6c0.6,0.5,1.4,0.5,2-0.1C130,271.4,130.1,271.4,130.1,271.3z"/>
					<path class="st1" d="M210.3,263c-0.4,0.6-1.3,0.8-1.9,0.3c-0.6-0.4-0.8-1.3-0.3-1.9c0.9-1.2,1.7-2.4,2.4-3.7
						c0.4-0.7,1.3-0.9,1.9-0.5c0.7,0.4,0.9,1.3,0.5,1.9c-0.3,0.6-0.7,1.1-1,1.6C211.3,261.5,210.8,262.2,210.3,263z M214.5,253.1
						c-0.7-0.3-1-1.1-0.7-1.8c0.6-1.4,1.1-2.7,1.6-4.1c0.2-0.7,1-1.1,1.8-0.9c0.7,0.2,1.1,1,0.9,1.8c-0.5,1.5-1.1,2.9-1.7,4.4
						c0,0.1-0.1,0.1-0.1,0.2C215.8,253.1,215.1,253.3,214.5,253.1z M205.4,268.8c-1.1,1.1-2.2,2.2-3.4,3.2c-0.6,0.5-1.5,0.5-2-0.1
						c-0.5-0.6-0.5-1.5,0.1-2c1.1-1,2.2-2,3.2-3.1c0.5-0.6,1.4-0.6,2,0c0.5,0.5,0.6,1.2,0.2,1.8
						C205.6,268.7,205.5,268.7,205.4,268.8z M218.3,241.8c-0.8-0.1-1.3-0.9-1.1-1.6c0.3-1.4,0.5-2.9,0.6-4.4
						c0.1-0.8,0.8-1.3,1.5-1.2c0.8,0.1,1.3,0.8,1.2,1.5c-0.2,1.5-0.4,3.1-0.7,4.6c0,0.2-0.1,0.4-0.2,0.5
						C219.4,241.6,218.8,241.9,218.3,241.8z M196.1,276.6c-1.3,0.9-2.6,1.7-4,2.4c-0.7,0.4-1.5,0.1-1.9-0.5
						c-0.4-0.7-0.1-1.5,0.5-1.9c1.3-0.7,2.6-1.5,3.8-2.3c0.6-0.4,1.5-0.3,1.9,0.4c0.3,0.5,0.3,1.1,0,1.5
						C196.4,276.4,196.2,276.5,196.1,276.6z M185.2,282.2c-1.4,0.6-2.9,1.1-4.4,1.5c-0.7,0.2-1.5-0.2-1.7-0.9
						c-0.2-0.7,0.2-1.5,0.9-1.7c1.4-0.4,2.8-0.9,4.2-1.4c0.7-0.3,1.5,0.1,1.8,0.8c0.2,0.4,0.1,0.9-0.1,1.3
						C185.7,281.9,185.5,282.1,185.2,282.2z M173.4,285.3c-1.5,0.2-3.1,0.4-4.6,0.5c-0.8,0-1.4-0.5-1.5-1.3c0-0.8,0.5-1.4,1.3-1.5
						c1.5-0.1,2.9-0.2,4.4-0.5c0.8-0.1,1.5,0.4,1.6,1.2c0.1,0.3,0,0.7-0.2,1C174.2,285.1,173.8,285.3,173.4,285.3z M161.2,285.8
						c-1.5-0.1-3.1-0.3-4.6-0.5c-0.8-0.1-1.3-0.8-1.2-1.6c0.1-0.8,0.8-1.3,1.6-1.2c1.5,0.2,2.9,0.4,4.4,0.5c0.8,0.1,1.3,0.7,1.3,1.5
						c0,0.2-0.1,0.5-0.2,0.7C162.2,285.6,161.7,285.8,161.2,285.8z M149.2,283.5c-1.5-0.5-3-1-4.4-1.5c-0.7-0.3-1.1-1.1-0.8-1.8
						c0.3-0.7,1.1-1.1,1.8-0.8c1.4,0.5,2.8,1,4.2,1.5c0.7,0.2,1.1,1,0.9,1.7c0,0.1-0.1,0.2-0.2,0.4
						C150.4,283.5,149.8,283.7,149.2,283.5z M137.9,278.7c-1-0.6-2-1.2-2.9-1.8c-0.3-0.2-0.7-0.5-1-0.7c-0.6-0.4-0.8-1.3-0.4-1.9
						c0.4-0.6,1.3-0.8,1.9-0.4c0.3,0.2,0.6,0.4,1,0.6c0.9,0.6,1.8,1.2,2.8,1.7c0.7,0.4,0.9,1.2,0.5,1.9c0,0,0,0,0,0.1
						C139.4,278.9,138.6,279.1,137.9,278.7z"/>
					<path class="st1" d="M220.6,229.2c0.2-0.2,0.2-0.5,0.2-0.8c0-0.8-0.1-1.5-0.1-2.3c-0.1-0.8-0.7-1.3-1.5-1.3
						c-0.8,0.1-1.3,0.7-1.3,1.5c0.1,0.7,0.1,1.4,0.1,2.2c0,0.8,0.7,1.4,1.4,1.3C219.9,229.8,220.3,229.6,220.6,229.2z"/>
				</g>
				<g>
					<path class="st1" d="M203.1,213c-0.1-0.3-0.3-0.4-0.6-0.5l-7.9-0.2c-1.9-3.2-4.3-6.1-7.2-8.5l1.1-7.8c0-0.3-0.1-0.5-0.3-0.7
						l-8.4-4.3c-0.2-0.1-0.5-0.1-0.7,0.1l-5.7,5.5c-3.7-0.9-7.4-1.2-11.1-0.9l-4.7-6.3c-0.2-0.2-0.5-0.3-0.7-0.2l-9,2.9
						c-0.3,0.1-0.4,0.3-0.5,0.6l-0.2,7.9c-3.2,1.9-6.1,4.3-8.5,7.2l-7.8-1.1c-0.3,0-0.5,0.1-0.7,0.3l-4.3,8.4
						c-0.1,0.2-0.1,0.5,0.1,0.7l5.5,5.7c-0.9,3.7-1.2,7.4-0.9,11.1l-6.3,4.7c-0.2,0.2-0.3,0.5-0.2,0.7l2.9,9
						c0.1,0.3,0.3,0.4,0.6,0.5l7.9,0.2c1.9,3.2,4.3,6.1,7.2,8.5l-1.1,7.8c0,0.3,0.1,0.5,0.3,0.7l8.4,4.3c0.2,0.1,0.5,0.1,0.7-0.1
						l5.7-5.5c3.7,0.9,7.4,1.2,11.1,0.9l4.7,6.3c0.2,0.2,0.5,0.3,0.7,0.2l9-2.9c0.3-0.1,0.4-0.3,0.5-0.6l0.2-7.9
						c3.2-1.9,6.1-4.3,8.5-7.2l7.8,1.1c0.3,0,0.5-0.1,0.7-0.3l4.3-8.4c0.1-0.2,0.1-0.5-0.1-0.7l-5.5-5.7c0.9-3.7,1.2-7.4,0.9-11.1
						l6.3-4.7c0.2-0.2,0.3-0.5,0.2-0.7L203.1,213z"/>
					<g>
						<path class="st9" d="M172.1,236.5c-3.5,3.9-9.5,4.3-13.5,0.8c-1.9-1.7-3.1-4-3.2-6.6c-0.2-2.5,0.7-5,2.4-6.9
							c3.5-3.9,9.5-4.3,13.5-0.8c3.6,3.2,4.2,8.4,1.7,12.3C172.7,235.8,172.4,236.2,172.1,236.5z M157.6,230.7c0.1,1.9,1,3.7,2.5,5
							c3,2.7,7.7,2.4,10.3-0.6c2.7-3,2.4-7.7-0.6-10.3c-3-2.7-7.7-2.4-10.3,0.6c-0.2,0.3-0.5,0.6-0.7,0.9
							C157.9,227.5,157.5,229.1,157.6,230.7z"/>
					</g>
					<path class="st9" d="M184.4,243.1c0.4-0.7,0.8-1.4,1.2-2.1l0,0c0.1-0.2,0.2-0.5,0.3-0.7c0.5-1.1,1-2.3,1.3-3.5c0,0,0,0,0,0
						c0,0,0-0.1,0-0.1c0-0.1,0.1-0.2,0.1-0.3c0.1-0.2,0-0.5-0.2-0.6c0,0-0.1-0.1-0.2-0.1c-0.3-0.1-0.6,0.1-0.7,0.4
						c-0.4,1.5-1,3-1.7,4.4c-3.6,7-10.5,11.3-17.8,12c-4.1,0.4-8.3-0.4-12.2-2.4c-0.7-0.4-1.3-0.7-2-1.2c-4.3-2.8-7.5-6.9-9.1-11.9
						c-1.8-5.7-1.3-11.7,1.4-17c5.6-11,19.1-15.3,30.1-9.6c0.7,0.3,1.3,0.7,2,1.1c2.7,1.8,5.1,4.1,6.8,6.9c0,0.1,0.1,0.1,0.2,0.2
						c0.2,0.1,0.4,0.1,0.6,0c0.3-0.2,0.3-0.5,0.2-0.8c-1.8-2.9-4.2-5.4-7.1-7.3c-0.7-0.4-1.4-0.8-2.1-1.2
						c-11.5-5.9-25.7-1.4-31.6,10.1c-2.9,5.6-3.4,11.9-1.5,17.9c1.7,5.2,5,9.5,9.5,12.5c0.7,0.4,1.4,0.8,2.1,1.2
						c5.6,2.9,11.9,3.4,17.9,1.5C177.1,250.9,181.4,247.6,184.4,243.1z"/>
				</g>
			</g>
			<g>
				<g class="st8">
					<path class="st1" d="M257.2,169.3c0.2-0.3,0.2-0.7-0.1-1c-0.5-0.6-1-1.1-1.5-1.6c-0.3-0.3-0.9-0.3-1.2,0
						c-0.3,0.3-0.3,0.9,0,1.2c0.5,0.5,1,1,1.4,1.5c0.3,0.4,0.9,0.4,1.2,0.1C257.1,169.4,257.1,169.4,257.2,169.3z"/>
					<path class="st1" d="M252.4,164.8c-0.3,0.4-0.8,0.4-1.2,0.1c-0.9-0.8-1.9-1.5-2.9-2.1c-0.2-0.1-0.4-0.3-0.6-0.4
						c-0.4-0.3-0.5-0.8-0.3-1.2c0.3-0.4,0.8-0.5,1.2-0.3c0.2,0.1,0.4,0.3,0.7,0.4c1.1,0.7,2.1,1.4,3.1,2.2
						C252.6,163.9,252.7,164.4,252.4,164.8C252.4,164.7,252.4,164.8,252.4,164.8z M243.8,160.3c-1.3-0.6-2.7-1.1-4.1-1.6
						c-0.5-0.1-0.7-0.6-0.6-1.1c0.1-0.4,0.6-0.7,1.1-0.6c1.4,0.5,2.9,1,4.3,1.7c0.4,0.2,0.6,0.7,0.4,1.1c0,0,0,0.1-0.1,0.1
						C244.6,160.4,244.2,160.5,243.8,160.3z M235.5,157.7c-1.4-0.3-2.9-0.4-4.3-0.5c-0.5,0-0.8-0.4-0.8-0.9c0-0.5,0.4-0.8,0.9-0.8
						c1.5,0.1,3,0.3,4.5,0.6c0.5,0.1,0.8,0.5,0.7,1c0,0.1-0.1,0.2-0.1,0.3C236.2,157.6,235.8,157.7,235.5,157.7z M226.8,157.1
						c-1.4,0.1-2.9,0.3-4.3,0.5c-0.5,0.1-0.9-0.2-1-0.7c-0.1-0.5,0.2-0.9,0.7-1c1.5-0.3,3-0.5,4.5-0.6c0.5,0,0.9,0.3,0.9,0.8
						c0,0.2,0,0.4-0.1,0.5C227.3,157,227.1,157.1,226.8,157.1z M218.2,158.7c-1.4,0.4-2.7,1-4.1,1.6c-0.4,0.2-0.9,0-1.1-0.4
						c-0.2-0.4,0-0.9,0.4-1.1c1.4-0.6,2.8-1.2,4.3-1.6c0.5-0.1,0.9,0.1,1.1,0.6c0.1,0.3,0,0.5-0.1,0.7
						C218.6,158.5,218.4,158.7,218.2,158.7z M210.3,162.4c-1.2,0.8-2.4,1.6-3.6,2.5c-0.4,0.3-0.9,0.2-1.2-0.1
						c-0.3-0.4-0.2-0.9,0.1-1.2c1.2-1,2.4-1.8,3.7-2.6c0.4-0.2,0.9-0.1,1.2,0.3c0.2,0.3,0.2,0.7,0,0.9
						C210.5,162.2,210.4,162.3,210.3,162.4z M203.6,167.8c-1,1-2,2.2-2.8,3.3c-0.3,0.4-0.8,0.5-1.2,0.2c-0.4-0.3-0.4-0.8-0.2-1.2
						c0.9-1.2,1.9-2.4,3-3.5c0.3-0.3,0.9-0.3,1.2,0c0.3,0.3,0.3,0.7,0.1,1.1C203.6,167.7,203.6,167.8,203.6,167.8z M195.2,179.1
						c-0.4-0.2-0.6-0.7-0.5-1.1c0.5-1.2,1.1-2.4,1.7-3.6c0.1-0.2,0.2-0.4,0.3-0.5c0.2-0.4,0.8-0.6,1.2-0.3c0.4,0.2,0.6,0.8,0.3,1.2
						c-0.1,0.2-0.2,0.3-0.3,0.5c-0.6,1.1-1.2,2.3-1.7,3.4c0,0,0,0.1-0.1,0.1C196.1,179.1,195.6,179.3,195.2,179.1z"/>
				</g>
				<g class="st8">
					<path class="st1" d="M259.8,213.1c-0.8,1.2-1.7,2.4-2.7,3.6c-0.3,0.4-0.9,0.4-1.2,0.1c-0.4-0.3-0.4-0.9-0.1-1.2
						c0.9-1.1,1.8-2.2,2.6-3.4c0.3-0.4,0.8-0.5,1.2-0.2C259.9,212.1,260,212.7,259.8,213.1C259.8,213.1,259.8,213.1,259.8,213.1z
						 M260.9,209.6c-0.4-0.2-0.6-0.7-0.4-1.2c0.6-1.3,1.2-2.6,1.7-3.9c0.2-0.4,0.7-0.7,1.1-0.5c0.4,0.2,0.7,0.7,0.5,1.1
						c-0.5,1.4-1.1,2.8-1.8,4.1c0,0,0,0.1,0,0.1C261.7,209.6,261.3,209.8,260.9,209.6z M253.9,219.9c-1.1,1-2.3,2-3.5,2.8
						c-0.4,0.3-0.9,0.2-1.2-0.2c-0.3-0.4-0.2-0.9,0.2-1.2c1.2-0.8,2.3-1.7,3.3-2.7c0.4-0.3,0.9-0.3,1.2,0.1c0.3,0.3,0.3,0.7,0.1,1
						C254,219.8,254,219.8,253.9,219.9z M264.1,201.4c-0.5-0.1-0.8-0.6-0.6-1c0.3-1.4,0.6-2.8,0.7-4.2c0.1-0.5,0.5-0.8,0.9-0.8
						c0.5,0,0.8,0.5,0.8,0.9c-0.2,1.5-0.4,3-0.7,4.4c0,0.1-0.1,0.2-0.1,0.3C264.8,201.3,264.4,201.5,264.1,201.4z M246.6,225.1
						c-1.3,0.7-2.7,1.3-4.1,1.9c-0.4,0.2-0.9,0-1.1-0.5c-0.2-0.4,0-0.9,0.5-1.1c1.3-0.5,2.6-1.1,3.9-1.8c0.4-0.2,0.9-0.1,1.2,0.3
						c0.2,0.3,0.1,0.6,0,0.9C246.8,224.9,246.7,225,246.6,225.1z M238.2,228.3c-1.4,0.4-2.9,0.7-4.4,0.9c-0.5,0.1-0.9-0.3-1-0.7
						c-0.1-0.5,0.3-0.9,0.7-1c1.4-0.2,2.8-0.5,4.2-0.8c0.5-0.1,0.9,0.2,1,0.6c0.1,0.2,0,0.5-0.1,0.7
						C238.6,228.2,238.4,228.3,238.2,228.3z M229.3,229.5c-1.5,0-3-0.1-4.5-0.2c-0.5-0.1-0.8-0.5-0.8-0.9c0.1-0.5,0.5-0.8,0.9-0.8
						c1.4,0.2,2.9,0.2,4.3,0.2c0.5,0,0.9,0.4,0.9,0.8c0,0.2,0,0.3-0.1,0.5C229.9,229.4,229.6,229.5,229.3,229.5z"/>
					<path class="st1" d="M265.9,192.3c0.1-0.1,0.1-0.3,0.1-0.5c0-0.7,0-1.5-0.1-2.2c0-0.5-0.4-0.8-0.9-0.8c-0.5,0-0.8,0.5-0.8,0.9
						c0.1,0.7,0.1,1.4,0.1,2.1c0,0.5,0.4,0.9,0.9,0.8C265.5,192.7,265.7,192.5,265.9,192.3z"/>
				</g>
				<g>
					<path class="st1" d="M254.3,180.8c-0.1-0.2-0.2-0.3-0.4-0.3l-5.3-0.1c-1.3-2.1-2.9-4.1-4.8-5.7l0.8-5.2c0-0.2-0.1-0.4-0.2-0.4
						l-5.6-2.9c-0.2-0.1-0.4-0.1-0.5,0.1l-3.8,3.7c-2.5-0.6-5-0.8-7.4-0.6l-3.2-4.2c-0.1-0.1-0.3-0.2-0.5-0.2l-6,1.9
						c-0.2,0.1-0.3,0.2-0.3,0.4l-0.1,5.3c-2.1,1.3-4.1,2.9-5.7,4.8l-5.2-0.8c-0.2,0-0.4,0.1-0.4,0.2l-2.9,5.6
						c-0.1,0.2-0.1,0.4,0.1,0.5l3.7,3.8c-0.6,2.5-0.8,5-0.6,7.4l-4.2,3.2c-0.1,0.1-0.2,0.3-0.2,0.5l1.9,6c0.1,0.2,0.2,0.3,0.4,0.3
						l5.3,0.1c1.3,2.1,2.9,4.1,4.8,5.7l-0.8,5.2c0,0.2,0.1,0.4,0.2,0.4l5.6,2.9c0.2,0.1,0.4,0.1,0.5-0.1l3.8-3.7
						c2.5,0.6,5,0.8,7.4,0.6l3.2,4.2c0.1,0.1,0.3,0.2,0.5,0.2l6-1.9c0.2-0.1,0.3-0.2,0.3-0.4l0.1-5.3c2.1-1.3,4.1-2.9,5.7-4.8
						l5.2,0.8c0.2,0,0.4-0.1,0.4-0.2l2.9-5.6c0.1-0.2,0.1-0.4-0.1-0.5l-3.7-3.8c0.6-2.5,0.8-5,0.6-7.4l4.2-3.2
						c0.1-0.1,0.2-0.3,0.2-0.5L254.3,180.8z"/>
					<g>
						<path class="st9" d="M233.6,196.6c-1.1,1.3-2.7,2.1-4.5,2.2c-1.7,0.1-3.4-0.5-4.7-1.6c-2.7-2.4-2.9-6.5-0.6-9.2
							c2.4-2.7,6.5-2.9,9.2-0.6c1.3,1.1,2.1,2.7,2.2,4.5c0.1,1.4-0.3,2.8-1,3.9C234,196.1,233.8,196.4,233.6,196.6z M225.5,195.9
							c1,0.8,2.2,1.3,3.5,1.2c1.3-0.1,2.4-0.7,3.3-1.6l0,0c0.8-1,1.3-2.2,1.2-3.5c-0.1-1.3-0.7-2.4-1.6-3.3c-2-1.7-5-1.6-6.7,0.4
							c-0.2,0.2-0.3,0.4-0.4,0.6C223.4,191.7,223.7,194.3,225.5,195.9z"/>
					</g>
					<path class="st9" d="M242.1,201.2c0.3-0.5,0.6-0.9,0.8-1.4c0.5-1,0.9-2,1.2-3.1c0,0,0-0.1,0-0.1c0.1-0.4-0.1-0.7-0.4-0.9
						c-0.1,0-0.2-0.1-0.2-0.1c-0.5-0.1-0.9,0.1-1.1,0.6c-0.3,1-0.6,2-1.1,2.9l0,0c0,0.1-0.1,0.1-0.1,0.1c-1.1,2.2-2.8,3.9-4.7,5.3
						c-1.1,0.7-2.2,1.3-3.5,1.7c0,0,0,0,0,0c0,0-0.1,0-0.1,0c-3.7,1.2-7.6,0.9-11-0.9c-0.4-0.2-0.9-0.5-1.3-0.7
						c-2.8-1.8-4.8-4.5-5.9-7.7c-1.2-3.7-0.9-7.6,0.9-11c1.8-3.4,4.8-6,8.4-7.2c3.7-1.2,7.6-0.9,11,0.9c0.4,0.2,0.9,0.5,1.3,0.7
						c1.8,1.2,3.3,2.7,4.4,4.5c0.1,0.1,0.2,0.2,0.3,0.3c0.3,0.2,0.6,0.2,0.9,0c0.4-0.3,0.5-0.8,0.3-1.2c-1.2-2-2.9-3.7-4.9-5
						c-0.5-0.3-0.9-0.6-1.4-0.8c-3.8-2-8.2-2.3-12.3-1c-4.1,1.3-7.5,4.2-9.4,8c-2,3.8-2.3,8.2-1,12.3c1.1,3.6,3.4,6.6,6.6,8.6
						c0.5,0.3,0.9,0.6,1.4,0.8C228.6,210.5,237.7,208,242.1,201.2z"/>
				</g>
			</g>
		</g>
		<g>
			<polygon class="st1" points="431.1,259.4 406.1,285 436,277 			"/>
			<path class="st1" d="M579.6,270l-141.9,6.9c-3.6,0.2-6.7-2.7-6.7-6.4v-58.4c0-6.3,5-11.5,11.4-11.7l127.9-4
				c9.5,0,17.2,7.7,17.2,17.2v48C587.6,266.1,584.1,269.8,579.6,270z"/>
			<path class="st10" d="M442,274.6c-2.3,0-4.4-0.9-6-2.4c-1.8-1.7-2.7-3.9-2.7-6.3v-52.6c0-6.2,5-11.2,11.3-11.4l123.8-3.7
				c9.4,0,17,7.4,17,16.6V260c0,4.4-3.5,7.9-8,8.2l-135,6.4C442.3,274.6,442.1,274.6,442,274.6z M568.4,198.7l-123.8,3.7
				c-6,0.2-10.7,4.9-10.7,10.8v52.6c0,2.3,0.9,4.3,2.5,5.9c1.6,1.6,3.8,2.4,6,2.2l135-6.4c4.1-0.2,7.4-3.5,7.4-7.5v-45.4
				C584.8,205.8,577.4,198.7,568.4,198.7z"/>
			
				<linearGradient id="SVGID_6_" gradientUnits="userSpaceOnUse" x1="452.5544" y1="502.8137" x2="570.0648" y2="502.8137" gradientTransform="matrix(1 0 0 -1 0 716.2958)">
				<stop  offset="0" style="stop-color:#DAE3FE"/>
				<stop  offset="1" style="stop-color:#E9EFFD"/>
			</linearGradient>
			<path class="st11" d="M568,209.3l-113.4,4.2c-1.1,0-2,0.8-2,1.6l0,1c0,0.9,1,1.5,2.1,1.5l113.5-4.1c1.1,0,2-0.8,2-1.6l0-1.1
				C570,209.9,569.1,209.3,568,209.3z"/>
			
				<linearGradient id="SVGID_7_" gradientUnits="userSpaceOnUse" x1="442.4036" y1="474.0298" x2="559.9167" y2="474.0298" gradientTransform="matrix(1 0 0 -1 0 716.2958)">
				<stop  offset="0" style="stop-color:#DAE3FE"/>
				<stop  offset="1" style="stop-color:#E9EFFD"/>
			</linearGradient>
			<path class="st12" d="M557.8,238l-113.4,4.2c-1.1,0-2,0.8-2,1.7l0,1c0,0.9,1,1.6,2.1,1.5l113.5-4.1c1.1,0,2-0.8,2-1.7l0-1.1
				C559.8,238.7,558.9,238,557.8,238z"/>
			
				<linearGradient id="SVGID_8_" gradientUnits="userSpaceOnUse" x1="442.4047" y1="461.719" x2="573.4007" y2="461.719" gradientTransform="matrix(1 0 0 -1 0 716.2958)">
				<stop  offset="0" style="stop-color:#DAE3FE"/>
				<stop  offset="1" style="stop-color:#E9EFFD"/>
			</linearGradient>
			<path class="st13" d="M571.1,250l-126.5,4.8c-1.2,0-2.2,0.8-2.2,1.7l0,1c0,0.9,1.1,1.6,2.3,1.5l126.5-4.7c1.2,0,2.2-0.8,2.2-1.7
				l0-1.2C573.3,250.7,572.3,250,571.1,250z"/>
			
				<linearGradient id="SVGID_9_" gradientUnits="userSpaceOnUse" x1="442.9081" y1="486.768" x2="506.9991" y2="486.768" gradientTransform="matrix(1 0 0 -1 0 716.2958)">
				<stop  offset="0" style="stop-color:#DAE3FE"/>
				<stop  offset="1" style="stop-color:#E9EFFD"/>
			</linearGradient>
			<path class="st14" d="M505.8,226.2l-61.8,1.8c-0.6,0-1.1,0.9-1,1.9l0.1,1.2c0,1,0.6,1.8,1.2,1.8l61.8-1.7c0.6,0,1.1-0.9,1-1.9
				l-0.1-1.3C506.9,227,506.4,226.2,505.8,226.2z"/>
			
				<linearGradient id="SVGID_10_" gradientUnits="userSpaceOnUse" x1="514.49" y1="488.9688" x2="575.0734" y2="488.9688" gradientTransform="matrix(1 0 0 -1 0 716.2958)">
				<stop  offset="0" style="stop-color:#DAE3FE"/>
				<stop  offset="1" style="stop-color:#E9EFFD"/>
			</linearGradient>
			<path class="st15" d="M573.9,224.1l-58.4,1.7c-0.6,0-1,0.8-1,1.9l0.1,1.2c0,1,0.5,1.8,1.1,1.8l58.5-1.6c0.6,0,1-0.8,1-1.9
				l-0.1-1.3C575,224.9,574.5,224.1,573.9,224.1z"/>
		</g>
		<g>
			
				<linearGradient id="SVGID_11_" gradientUnits="userSpaceOnUse" x1="6735.6816" y1="133.4899" x2="6622.7593" y2="10.6618" gradientTransform="matrix(1 0 0 -1 -6484.3511 716.2958)">
				<stop  offset="0" style="stop-color:#09005D"/>
				<stop  offset="1" style="stop-color:#1A0F91"/>
			</linearGradient>
			<path class="st16" d="M215.6,592c0,0-1.2,6.6-1.7,13.2c-0.2,2.6,1.8,4.8,4.3,4.9c8.7,0.4,27.4,1.1,34.1,0.8c1,0,1.7-1.1,1.3-2
				l0,0c-0.3-0.8-0.9-1.4-1.7-1.8l-30.8-14.2L215.6,592z"/>
			
				<linearGradient id="SVGID_12_" gradientUnits="userSpaceOnUse" x1="6699.0288" y1="124.3673" x2="6709.0591" y2="124.3673" gradientTransform="matrix(1 0 0 -1 -6484.3511 716.2958)">
				<stop  offset="0" style="stop-color:#FEBBBA"/>
				<stop  offset="1" style="stop-color:#FF928E"/>
			</linearGradient>
			<path class="st17" d="M214.7,588.1l0.9,7.9c0,0,5.4,2.5,9.1-0.3l-2.2-8.8L214.7,588.1z"/>
			
				<linearGradient id="SVGID_13_" gradientUnits="userSpaceOnUse" x1="6744.5732" y1="272.3954" x2="6648.4868" y2="142.1629" gradientTransform="matrix(1 0 0 -1 -6484.3511 716.2958)">
				<stop  offset="0" style="stop-color:#09005D"/>
				<stop  offset="1" style="stop-color:#1A0F91"/>
			</linearGradient>
			<path class="st18" d="M215.4,439.2c-0.4,2.1-2.2,103.2,8.6,148.5c0.2,0.7-0.2,1.5-0.9,1.8c-1.7,0.7-4.9,1.7-8.8,1.8
				c-1.2,0-2.3-0.7-2.6-1.9c-3.1-10.5-17.9-63.2-19.8-113.5c-2.2-56.2,0-1.9,0-1.9l1.3-34.8L215.4,439.2z"/>
			
				<linearGradient id="SVGID_14_" gradientUnits="userSpaceOnUse" x1="6710.3491" y1="156.7793" x2="6597.4268" y2="33.9512" gradientTransform="matrix(1 0 0 -1 -6484.3511 716.2958)">
				<stop  offset="0" style="stop-color:#09005D"/>
				<stop  offset="1" style="stop-color:#1A0F91"/>
			</linearGradient>
			<path class="st19" d="M180.2,595.4c0,0-1.9,3.3-3.7,12.2c-0.3,1.6,0.8,3.1,2.4,3.3c2.9,0.3,7.3,0.6,10.9,0.6
				c1.6,0,2.9-1.4,2.7-3.1c-0.4-3.2-1.6-8.6-5.4-12.7L180.2,595.4z"/>
			
				<linearGradient id="SVGID_15_" gradientUnits="userSpaceOnUse" x1="6662.8794" y1="124.8816" x2="6671.5396" y2="124.8816" gradientTransform="matrix(1 0 0 -1 -6484.3511 716.2958)">
				<stop  offset="0" style="stop-color:#FEBBBA"/>
				<stop  offset="1" style="stop-color:#FF928E"/>
			</linearGradient>
			<path class="st20" d="M178.5,585.2l2.2,12c0,0,2.2,1.6,6.5,0.4l-1-12.9L178.5,585.2z"/>
			
				<linearGradient id="SVGID_16_" gradientUnits="userSpaceOnUse" x1="6727.4482" y1="285.0303" x2="6631.3623" y2="154.7978" gradientTransform="matrix(1 0 0 -1 -6484.3511 716.2958)">
				<stop  offset="0" style="stop-color:#09005D"/>
				<stop  offset="1" style="stop-color:#1A0F91"/>
			</linearGradient>
			<path class="st21" d="M172.6,442.3c-8.8,53.4,1.9,131.9,5.5,147.2c0.2,0.9,1,1.7,1.9,1.8c1.6,0.3,4.3,0.5,6.9-0.3
				c0.9-0.3,1.5-1.1,1.6-2c0.5-12.4-0.4-88.7,7.8-118.8c0.4-1.5,1.4-2.9,2.6-3.8l16-11.4l1.2-18.4L172.6,442.3z"/>
			<g>
				
					<linearGradient id="SVGID_17_" gradientUnits="userSpaceOnUse" x1="209.1219" y1="342.9777" x2="362.3067" y2="606.8987" gradientTransform="matrix(1 0 0 -1 0 716.2958)">
					<stop  offset="0" style="stop-color:#4F52FF"/>
					<stop  offset="1" style="stop-color:#4042E2"/>
				</linearGradient>
				<path class="st22" d="M228.9,341.2c-26.5-0.4-55.7,7-55.7,7c-7.9,46.1-1.4,99.2-1.4,99.2c20.5,5.4,43.7-3.3,43.7-3.3
					c3.4-19.3,19.3-73.5,19.3-73.5c12.9-1.6,23.6-5.3,32.4-10.3c-6.7-7.8-9.9-17.6-11.2-23.5C246.6,339.8,237.1,341.3,228.9,341.2z"
					/>
				
					<linearGradient id="SVGID_18_" gradientUnits="userSpaceOnUse" x1="-3012.0669" y1="445.7499" x2="-2994.3696" y2="395.1864" gradientTransform="matrix(-1 0 0 -1 -2712.7732 716.2958)">
					<stop  offset="0" style="stop-color:#FEBBBA"/>
					<stop  offset="1" style="stop-color:#FF928E"/>
				</linearGradient>
				<path class="st23" d="M307.2,302.2c-2.6-3.1-5.9-1.7-5.9-1.7c-3.9,16.5-24.3,29.8-45.3,36.4c1.4,5.8,4.5,15.7,11.2,23.5
					C302,340.7,307.2,302.2,307.2,302.2z"/>
			</g>
			<g>
				
					<linearGradient id="SVGID_19_" gradientUnits="userSpaceOnUse" x1="-3027.1929" y1="440.4558" x2="-3009.4956" y2="389.8925" gradientTransform="matrix(-1 0 0 -1 -2712.7732 716.2958)">
					<stop  offset="0" style="stop-color:#FEBBBA"/>
					<stop  offset="1" style="stop-color:#FF928E"/>
				</linearGradient>
				<path class="st24" d="M306.6,303c0.3,0.9-2.9,2.2-4.7-1.4c-0.1-1.7-1.1-9-0.1-10.4c5.4-7.4,15.9-16.6,15.9-16.6
					c1.8,1.7,0.3,3.5,0.3,3.5l-5.1,5.3c1.1,1.9,2.4,3.5,3,5.9c0.5,1.8,0.2,3.6-0.7,5.2c-0.9,1.6-2.1,3.7-3.3,5.3
					C309.7,302.9,306.6,303,306.6,303z"/>
				
					<linearGradient id="SVGID_20_" gradientUnits="userSpaceOnUse" x1="-3013.5977" y1="408.1509" x2="-3026.9282" y2="435.0417" gradientTransform="matrix(-1 0 0 -1 -2712.7732 716.2958)">
					<stop  offset="0" style="stop-color:#FEBBBA"/>
					<stop  offset="1" style="stop-color:#FF928E"/>
				</linearGradient>
				<path class="st25" d="M310.6,286.8l-4.6,3.9l-1.5,3.9l4.1,4.6c0,0,1.4-7.8,2.4-9.4C312.1,288.2,311.6,287.3,310.6,286.8z"/>
			</g>
			
				<linearGradient id="SVGID_21_" gradientUnits="userSpaceOnUse" x1="177.2589" y1="361.4715" x2="330.4437" y2="625.3926" gradientTransform="matrix(1 0 0 -1 0 716.2958)">
				<stop  offset="0" style="stop-color:#4F52FF"/>
				<stop  offset="1" style="stop-color:#4042E2"/>
			</linearGradient>
			<path class="st26" d="M183.4,373.8l-10.2-25.7c0,0-24.7,16.8-28.8,38.1c4.7,0.3,13.2,1.6,21.5,5.8
				C167.7,382,183.4,373.8,183.4,373.8z"/>
			
				<linearGradient id="SVGID_22_" gradientUnits="userSpaceOnUse" x1="6628.1729" y1="313.4615" x2="6693.0215" y2="313.4615" gradientTransform="matrix(1 0 0 -1 -6484.3511 716.2958)">
				<stop  offset="0" style="stop-color:#FEBBBA"/>
				<stop  offset="1" style="stop-color:#FF928E"/>
			</linearGradient>
			<path class="st27" d="M205,397.9c0,0-27.8,15.7-37.2,2.3c-1.9-2.8-2.4-5.6-1.9-8.2c-8.3-4.2-16.8-5.4-21.5-5.8
				c-1.2,6.4-0.6,13.3,3.2,20.2c16.4,30,61.1-1.7,61.1-1.7L205,397.9z"/>
			<g>
				<path class="st1" d="M201.7,417.8l15.2-53c0.2-0.6,0.7-1,1.3-1.1c2.7-0.3,10.7-1.2,19.9-2c11.1-0.9,23.9-1.7,31.6-1
					c1.1,0.1,1.8,1.2,1.3,2.2c-4.4,8.8-22.3,44.8-31.3,56.6c-0.3,0.4-0.8,0.6-1.3,0.6l-35.2-0.3
					C202.1,419.8,201.4,418.8,201.7,417.8z"/>
				<path class="st9" d="M239.6,357.1l11-1.8c0.6-0.1,1.1,0.5,0.9,1l-1.1,3.3c-0.1,0.3-0.3,0.5-0.6,0.5l-10.6,1.4
					c-0.5,0.1-1-0.4-0.9-1l0.7-2.9C239,357.4,239.3,357.2,239.6,357.1z"/>
				<path class="st9" d="M231.4,366.5l0.9-4.7c0.1-0.5,0.5-0.8,1-0.9l22.2-2.3c0.7-0.1,1.3,0.6,1.2,1.3l-1.4,5.9
					c-0.1,0.5-0.5,0.8-1,0.8l-21.7,1.1C231.8,367.8,231.2,367.2,231.4,366.5z"/>
				
					<linearGradient id="SVGID_23_" gradientUnits="userSpaceOnUse" x1="6688.2065" y1="320.261" x2="6708.4097" y2="320.261" gradientTransform="matrix(1 0 0 -1 -6484.3511 716.2958)">
					<stop  offset="0" style="stop-color:#FEBBBA"/>
					<stop  offset="1" style="stop-color:#FF928E"/>
				</linearGradient>
				<path class="st28" d="M205.3,405c0,0-2.1-8.7-1.3-11.8c0.9-3.1,2.5-7,8-6.2c5.5,0.9,12,3.2,12,3.2s-0.3,4-4.5,2.7l2.6,2
					c0,0-0.4,3.2-3.9,1.5l2.4,2.7c0,0-1.5,2.6-4.1,0.9C213.9,398.4,212.7,406.1,205.3,405z"/>
			</g>
			
				<linearGradient id="SVGID_24_" gradientUnits="userSpaceOnUse" x1="6677.9678" y1="382.7888" x2="6703.6064" y2="382.7888" gradientTransform="matrix(1 0 0 -1 -6484.3511 716.2958)">
				<stop  offset="0" style="stop-color:#FEBBBA"/>
				<stop  offset="1" style="stop-color:#FF928E"/>
			</linearGradient>
			<path class="st29" d="M202.1,319.7l-8.4,24.4c-0.1,0.4,0,0.9,0.4,1.1c2.3,1.3,10.6,4.9,20.6-1.4c1-0.7,1.7-1.7,1.9-3l2.7-21.1
				L202.1,319.7L202.1,319.7z"/>
			<g>
				
					<linearGradient id="SVGID_25_" gradientUnits="userSpaceOnUse" x1="161.2209" y1="-1528.5962" x2="151.6399" y2="-1496.9957" gradientTransform="matrix(0.746 -0.6659 -0.6659 -0.746 -912.8095 -715.7798)">
					<stop  offset="0" style="stop-color:#FEBBBA"/>
					<stop  offset="1" style="stop-color:#FF928E"/>
				</linearGradient>
				<path class="st30" d="M220.4,297.1c0,0,9.3,17.4,8.1,24.5c-1.2,7-12.7,6.5-22.7,0.8l-7-18.8L220.4,297.1z"/>
				
					<linearGradient id="SVGID_26_" gradientUnits="userSpaceOnUse" x1="152.5771" y1="-1473.537" x2="160.5916" y2="-1519.2491" gradientTransform="matrix(0.746 -0.6659 -0.6659 -0.746 -912.8095 -715.7798)">
					<stop  offset="0" style="stop-color:#09005D"/>
					<stop  offset="1" style="stop-color:#1A0F91"/>
				</linearGradient>
				<path class="st31" d="M206.3,313.1c0.4-0.2,0.6-0.7,0.3-1.1c-0.7-1.1-2.1-3.4-2.6-5.5c0,0-1.7-1.1,4.2-2.5
					c5.9-1.4,14.7-3.6,16.5-8.6c1.8-4.9-2.9-17.2-10.5-7.4c-0.3,0.4-0.9,0.4-1.1,0c-1.2-1.6-4.5-5-9-2.9c-4.2,1.9-4.7,5-4.7,6.6
					c0,0.5-0.4,0.8-0.8,0.7c-2.1-0.4-7.3-0.8-9.7,4.5c-2,4.3-0.7,6.8,0.5,8c0.4,0.4,0.2,1-0.3,1.2c-1.4,0.4-3.2,1.6-3,4.9
					c0.3,4.6,5.3,4.2,6.8,3.9c0.2,0,0.5,0,0.6,0.2c1.2,1.4,6.8,7.2,12.9,7.9c0.5,0.1,0.9-0.5,0.8-1l-2.6-7.6c-0.1-0.4,0-0.7,0.4-0.9
					L206.3,313.1z"/>
				
					<linearGradient id="SVGID_27_" gradientUnits="userSpaceOnUse" x1="151.4268" y1="-1528.449" x2="142.8066" y2="-1500.0176" gradientTransform="matrix(0.746 -0.6659 -0.6659 -0.746 -912.8095 -715.7798)">
					<stop  offset="0" style="stop-color:#FEBBBA"/>
					<stop  offset="1" style="stop-color:#FF928E"/>
				</linearGradient>
				<path class="st32" d="M207.3,314.2c0,0-6.6-4.5-7.1-0.7c-0.5,3.8,5.9,5.5,9.1,4.1L207.3,314.2z"/>
			</g>
		</g>
	</g>
</g>
</svg>
